SplineFontDB: 3.0
FontName: Rokkitt-Light
FullName: Rokkitt Light
FamilyName: Rokkitt Light
Weight: Regular
Copyright: Copyright © 2011-2013 by Vernon Adams. All rights reserved.
ItalicAngle: 0
UnderlinePosition: 0
UnderlineWidth: 0
Ascent: 1638
Descent: 410
UFOAscent: 1152
UFODescent: -410
LayerCount: 2
Layer: 0 0 "Back"  1
Layer: 1 0 "Fore"  0
FSType: 0
OS2Version: 0
OS2_WeightWidthSlopeOnly: 0
OS2_UseTypoMetrics: 0
CreationTime: 1388524322
ModificationTime: 1388524469
PfmFamily: 0
TTFWeight: 300
TTFWidth: 5
LineGap: 0
VLineGap: 0
Panose: 2 0 5 3 5 0 0 2 0 3
OS2TypoAscent: 0
OS2TypoAOffset: 1
OS2TypoDescent: 0
OS2TypoDOffset: 1
OS2TypoLinegap: 0
OS2WinAscent: 0
OS2WinAOffset: 1
OS2WinDescent: 0
OS2WinDOffset: 1
HheadAscent: 0
HheadAOffset: 1
HheadDescent: 0
HheadDOffset: 1
OS2SubXSize: 1331
OS2SubYSize: 1228
OS2SubXOff: 0
OS2SubYOff: 153
OS2SupXSize: 1331
OS2SupYSize: 1228
OS2SupXOff: 0
OS2SupYOff: 716
OS2StrikeYSize: 0
OS2StrikeYPos: 501
OS2Vendor: 'newt'
OS2CodePages: 00000093.00000001
OS2UnicodeRanges: 00000007.00000000.00000000.00000000
Lookup: 258 0 0 "'kern' Horizontal Kerning in Latin lookup 0"  {"'kern' Horizontal Kerning in Latin lookup 0 subtable"  } ['kern' ('latn' <'dflt' > ) ]
DEI: 91125
LangName: 1033 "" "" "" "" "" "" "" "Rokkitt Light is a trademark of vernon adams." "vernon adams" "Vernon Adams" "Copyright (c) 2011-13 by vernon adams. All rights reserved." "newtypography.co.uk" "newtypography.co.uk" 
PickledData: "(dp1
S'com.typemytype.robofont.shouldAddPointsInSplineConversion'
p2
I1
sS'com.petr.ptt'
p3
(dp4
S'originals'
p5
(dp6
S'maxp'
p7
(dp8
S'tableTag'
p9
S'maxp'
p10
sS'numGlyphs'
p11
I423
sS'tableVersion'
p12
I20480
ssssS'com.schriftgestaltung.weight'
p13
S'Light'
p14
sS'com.typemytype.robofont.compileSettings.autohint'
p15
I0
sS'GSDimensionPlugin.Dimensions'
p16
(dp17
S'1F09728C-766D-4240-AE17-E499EF32E23D'
p18
(dp19
sS'98C086B7-81AA-4491-8494-0C6A76849168'
p20
(dp21
sS'EFCDB4D9-E20B-4A8D-9DB5-150AD166B0AE'
p22
(dp23

StartChar: A
Encoding: 65 65 0
Width: 1284
VWidth: 0
Flags: W
PickledData: "(dp1
S'com.typemytype.robofont.layerData'
p2
(dp3
S'b'
(dp4
S'name'
p5
S'A'
sS'lib'
p6
(dp7
sS'unicodes'
p8
(tsS'width'
p9
I1284
sS'contours'
p10
(tsS'components'
p11
(tsS'anchors'
p12
(tsss."
AnchorPoint: "bot" 642 0 basechar 0
AnchorPoint: "top" 642 1152 basechar 0
AnchorPoint: "ogonek" 1064 0 basechar 0
LayerCount: 2
Fore
SplineSet
38 0 m 257
 419 0 l 257
 419 58 l 257
 271 58 l 257
 420 470 l 257
 864 470 l 257
 1014 58 l 257
 865 58 l 257
 865 0 l 257
 1246 0 l 257
 1246 58 l 257
 1094 58 l 257
 706 1093 l 257
 853 1093 l 257
 853 1152 l 257
 432 1152 l 257
 432 1093 l 257
 579 1093 l 257
 190 58 l 257
 38 58 l 257
 38 0 l 257
440 527 m 257
 639 1088 l 257
 645 1088 l 257
 853 527 l 257
 440 527 l 257
EndSplineSet
EndChar

StartChar: AE
Encoding: 198 198 1
Width: 2097
VWidth: 0
Flags: W
PickledData: "(dp1
S'com.typemytype.robofont.layerData'
p2
(dp3
S'b'
(dp4
S'name'
p5
S'AE'
p6
sS'lib'
p7
(dp8
sS'unicodes'
p9
(tsS'width'
p10
I2097
sS'contours'
p11
(tsS'components'
p12
(tsS'anchors'
p13
(tsss."
AnchorPoint: "top" 1048.5 1152 basechar 0
LayerCount: 2
Fore
SplineSet
60 0 m 257
 462 0 l 257
 474 62 l 257
 316 62 l 257
 558 441 l 257
 1039 441 l 257
 1116 62 l 257
 952 62 l 257
 940 0 l 257
 1968 0 l 257
 1899 376 l 257
 1822 376 l 257
 1878 70 l 257
 1201 70 l 257
 1103 534 l 257
 1529 534 l 257
 1560 362 l 257
 1627 362 l 257
 1553 762 l 257
 1486 762 l 257
 1516 604 l 257
 1090 604 l 257
 996 1082 l 257
 1654 1082 l 257
 1710 776 l 257
 1787 776 l 257
 1717 1152 l 257
 707 1152 l 257
 695 1089 l 257
 853 1089 l 257
 229 62 l 257
 72 62 l 257
 60 0 l 257
591 502 m 257
 915 1078 l 257
 924 1078 l 257
 1028 502 l 257
 591 502 l 257
EndSplineSet
EndChar

StartChar: B
Encoding: 66 66 13
Width: 1241
VWidth: 0
Flags: W
PickledData: "(dp1
S'com.typemytype.robofont.layerData'
p2
(dp3
S'b'
(dp4
S'name'
p5
S'B'
sS'lib'
p6
(dp7
sS'unicodes'
p8
(tsS'width'
p9
I1241
sS'contours'
p10
((dp11
S'points'
p12
((dp13
S'segmentType'
p14
S'line'
p15
sS'x'
I332
sS'smooth'
p16
I0
sS'y'
I1095
s(dp17
g14
S'line'
p18
sS'x'
I719
sg16
I1
sS'y'
I1095
s(dp19
S'y'
I1095
sS'x'
I896
sg16
I0
s(dp20
S'y'
I983
sS'x'
I983
sg16
I0
s(dp21
g14
S'curve'
p22
sS'x'
I983
sg16
I1
sS'y'
I868
s(dp23
S'y'
I751
sS'x'
I983
sg16
I0
s(dp24
S'y'
I634
sS'x'
I907
sg16
I0
s(dp25
g14
S'curve'
p26
sS'x'
I763
sg16
I1
sS'y'
I634
s(dp27
g14
S'line'
p28
sS'x'
I332
sg16
I0
sS'y'
I634
stp29
s(dp30
g12
((dp31
g14
S'line'
p32
sS'x'
I332
sg16
I0
sS'y'
I573
s(dp33
g14
S'line'
p34
sS'x'
I772
sg16
I1
sS'y'
I573
s(dp35
S'y'
I573
sS'x'
I958
sg16
I0
s(dp36
S'y'
I439
sS'x'
I1051
sg16
I0
s(dp37
g14
S'curve'
p38
sS'x'
I1051
sg16
I1
sS'y'
I320
s(dp39
S'y'
I187
sS'x'
I1051
sg16
I0
s(dp40
S'y'
I58
sS'x'
I964
sg16
I0
s(dp41
g14
S'curve'
p42
sS'x'
I786
sg16
I1
sS'y'
I58
s(dp43
g14
S'line'
p44
sS'x'
I332
sg16
I0
sS'y'
I58
stp45
s(dp46
g12
((dp47
g14
S'line'
p48
sS'x'
I786
sg16
I1
sS'y'
I0
s(dp49
S'y'
I0
sS'x'
I1010
sg16
I0
s(dp50
S'y'
I158
sS'x'
I1125
sg16
I0
s(dp51
g14
S'curve'
p52
sS'x'
I1125
sg16
I1
sS'y'
I316
s(dp53
S'y'
I439
sS'x'
I1125
sg16
I0
s(dp54
S'y'
I568
sS'x'
I1053
sg16
I0
s(dp55
g14
S'curve'
p56
sS'x'
I898
sg16
I0
sS'y'
I611
s(dp57
S'y'
I669
sS'x'
I1008
sg16
I0
s(dp58
S'y'
I769
sS'x'
I1058
sg16
I0
s(dp59
g14
S'curve'
p60
sS'x'
I1058
sg16
I1
sS'y'
I870
s(dp61
S'y'
I1012
sS'x'
I1058
sg16
I0
s(dp62
S'y'
I1154
sS'x'
I943
sg16
I0
s(dp63
g14
S'curve'
p64
sS'x'
I719
sg16
I1
sS'y'
I1154
s(dp65
g14
S'line'
p66
sS'x'
I101
sg16
I0
sS'y'
I1154
s(dp67
g14
S'line'
p68
sS'x'
I101
sg16
I0
sS'y'
I1095
s(dp69
g14
S'line'
p70
sS'x'
I257
sg16
I0
sS'y'
I1095
s(dp71
g14
S'line'
p72
sS'x'
I257
sg16
I0
sS'y'
I58
s(dp73
g14
S'line'
p74
sS'x'
I114
sg16
I0
sS'y'
I58
s(dp75
g14
S'line'
p76
sS'x'
I114
sg16
I0
sS'y'
I0
stp77
stp78
sS'components'
p79
(tsS'anchors'
p80
(tsss."
AnchorPoint: "top" 620.5 1152 basechar 0
LayerCount: 2
Fore
SplineSet
301 0 m 257
 786 0 l 258
 1010 0 1125 158 1125 316 c 256
 1125 439 1053 568 898 611 c 257
 1008 669 1058 767 1058 868 c 256
 1058 1010 943 1152 719 1152 c 258
 298 1152 l 257
 298 1093 l 257
 719 1093 l 258
 896 1093 983 981 983 866 c 256
 983 749 907 634 763 634 c 258
 302 634 l 257
 302 573 l 257
 772 573 l 258
 958 573 1051 439 1051 320 c 256
 1051 187 964 58 786 58 c 258
 301 58 l 257
 301 0 l 257
EndSplineSet
Refer: 382 -1 N 1 0 0 1 -21 0 2
EndChar

StartChar: C
Encoding: 67 67 14
Width: 1352
VWidth: 0
Flags: W
PickledData: "(dp1
S'com.typemytype.robofont.layerData'
p2
(dp3
S'b'
(dp4
S'name'
p5
S'C'
sS'lib'
p6
(dp7
sS'unicodes'
p8
(tsS'width'
p9
I1352
sS'contours'
p10
(tsS'components'
p11
(tsS'anchors'
p12
(tsss."
AnchorPoint: "top" 676 1152 basechar 0
AnchorPoint: "bot" 707 0 basechar 0
LayerCount: 2
Fore
SplineSet
692 -23 m 256
 937 -23 1117 70 1229 263 c 257
 1165 311 l 257
 1064 121 890 43 708 43 c 256
 355 43 188 307 188 580 c 256
 188 851 380 1104 708 1104 c 256
 939 1104 1095 967 1163 816 c 257
 1221 828 l 257
 1221 1152 l 257
 1151 1152 l 257
 1151 959 l 257
 1050 1100 884 1172 697 1172 c 256
 361 1172 110 917 110 580 c 256
 110 171 414 -23 692 -23 c 256
EndSplineSet
EndChar

StartChar: D
Encoding: 68 68 21
Width: 1370
VWidth: 0
Flags: W
PickledData: "(dp1
S'com.typemytype.robofont.layerData'
p2
(dp3
S'b'
(dp4
S'name'
p5
S'D'
sS'lib'
p6
(dp7
sS'unicodes'
p8
(tsS'width'
p9
I1370
sS'contours'
p10
(tsS'components'
p11
(tsS'anchors'
p12
(tsss."
AnchorPoint: "bot" 685 0 basechar 0
AnchorPoint: "top" 685 1152 basechar 0
AnchorPoint: "mid" 297 592 basechar 0
LayerCount: 2
Fore
SplineSet
293 0 m 257
 749 0 l 258
 1089 0 1259 286 1259 574 c 256
 1259 863 1088 1152 749 1152 c 258
 293 1152 l 257
 293 1093 l 257
 749 1093 l 258
 1037 1093 1180 835 1180 576 c 256
 1180 316 1038 58 749 58 c 258
 293 58 l 257
 293 0 l 257
EndSplineSet
Refer: 382 -1 N 1 0 0 1 -21 0 2
EndChar

StartChar: Delta
Encoding: 916 916 24
Width: 1284
VWidth: 0
Flags: W
LayerCount: 2
Fore
SplineSet
597 1152 m 257
 190 0 l 257
 1078 0 l 257
 708 1152 l 257
 597 1152 l 257
645 1107 m 257
 953 93 l 257
 294 93 l 257
 639 1107 l 257
 645 1107 l 257
EndSplineSet
EndChar

StartChar: E
Encoding: 69 69 25
Width: 1175
VWidth: 0
Flags: W
PickledData: "(dp1
S'com.typemytype.robofont.layerData'
p2
(dp3
S'b'
(dp4
S'name'
p5
S'E'
sS'lib'
p6
(dp7
sS'unicodes'
p8
(tsS'width'
p9
I1175
sS'contours'
p10
(tsS'components'
p11
(tsS'anchors'
p12
(tsss."
AnchorPoint: "bot" 587.5 0 basechar 0
AnchorPoint: "top" 587.5 1152 basechar 0
AnchorPoint: "ogonek" 665 0 basechar 0
LayerCount: 2
Fore
SplineSet
747 396 m 257
 809 396 l 257
 809 770 l 257
 747 770 l 257
 747 623 l 257
 300 623 l 257
 300 557 l 257
 747 557 l 257
 747 396 l 257
294 0 m 257
 1054 0 l 257
 1054 352 l 257
 982 352 l 257
 982 58 l 257
 294 58 l 257
 294 0 l 257
963 802 m 257
 1034 802 l 257
 1034 1152 l 257
 294 1152 l 257
 294 1093 l 257
 963 1093 l 257
 963 802 l 257
EndSplineSet
Refer: 382 -1 N 1 0 0 1 -21 0 2
EndChar

StartChar: Eng
Encoding: 330 330 34
Width: 1399
VWidth: 0
Flags: W
LayerCount: 2
Fore
SplineSet
1333 1093 m 257
 1333 1152 l 257
 971 1152 l 257
 971 1093 l 257
 1122 1093 l 257
 1122 117 l 257
 333 1152 l 257
 108 1152 l 257
 108 1093 l 257
 259 1093 l 257
 259 58 l 257
 108 58 l 257
 108 0 l 257
 483 0 l 257
 483 58 l 257
 333 58 l 257
 333 1040 l 257
 1122 1 l 257
 1122 -64 l 258
 1122 -235 1013 -332 816 -332 c 257
 813 -395 l 257
 1041 -395 1196 -287 1196 -47 c 258
 1196 1093 l 257
 1333 1093 l 257
EndSplineSet
EndChar

StartChar: Euro
Encoding: 8364 8364 37
Width: 1377
VWidth: 0
Flags: W
PickledData: "(dp1
S'com.typemytype.robofont.layerData'
p2
(dp3
S'b'
(dp4
S'name'
p5
S'Euro'
p6
sS'lib'
p7
(dp8
sS'unicodes'
p9
(tsS'width'
p10
I1377
sS'contours'
p11
(tsS'components'
p12
(tsS'anchors'
p13
(tsss."
LayerCount: 2
Fore
SplineSet
698 -23 m 256
 943 -23 1123 70 1235 263 c 257
 1171 311 l 257
 1070 121 896 43 714 43 c 256
 420 43 256 226 208 444 c 257
 602 444 l 257
 632 502 l 257
 199 502 l 257
 196 528 194 554 194 580 c 256
 194 599 195 617 197 636 c 257
 602 636 l 257
 632 694 l 257
 206 694 l 257
 251 918 433 1104 714 1104 c 256
 945 1104 1101 967 1169 816 c 257
 1227 828 l 257
 1227 1152 l 257
 1157 1152 l 257
 1157 959 l 257
 1056 1100 890 1172 703 1172 c 256
 406 1172 176 973 126 694 c 257
 5 694 l 257
 -25 636 l 257
 118 636 l 257
 117 618 116 599 116 580 c 256
 116 553 117 527 120 502 c 257
 5 502 l 257
 -25 444 l 257
 128 444 l 257
 187 128 453 -23 698 -23 c 256
EndSplineSet
EndChar

StartChar: F
Encoding: 70 70 38
Width: 1091
VWidth: 0
Flags: W
PickledData: "(dp1
S'com.typemytype.robofont.layerData'
p2
(dp3
S'b'
(dp4
S'name'
p5
S'F'
sS'lib'
p6
(dp7
sS'unicodes'
p8
(tsS'width'
p9
I1091
sS'contours'
p10
((dp11
S'points'
p12
((dp13
S'segmentType'
p14
S'line'
p15
sS'x'
I969
sS'smooth'
p16
I0
sS'y'
I1086
s(dp17
g14
S'line'
p18
sS'x'
I969
sg16
I0
sS'y'
I802
s(dp19
g14
S'line'
p20
sS'x'
I1041
sg16
I0
sS'y'
I802
s(dp21
g14
S'line'
p22
sS'x'
I1041
sg16
I0
sS'y'
I1152
s(dp23
g14
S'line'
p24
sS'x'
I101
sg16
I0
sS'y'
I1152
s(dp25
g14
S'line'
p26
sS'x'
I101
sg16
I0
sS'y'
I1086
s(dp27
g14
S'line'
p28
sS'x'
I265
sg16
I0
sS'y'
I1086
s(dp29
g14
S'line'
p30
sS'x'
I265
sg16
I0
sS'y'
I1039
s(dp31
g14
S'line'
p32
sS'x'
I342
sg16
I0
sS'y'
I1039
s(dp33
g14
S'line'
p34
sS'x'
I342
sg16
I0
sS'y'
I1086
stp35
s(dp36
g12
((dp37
g14
S'line'
p38
sS'x'
I265
sg16
I0
sS'y'
I1039
s(dp39
g14
S'line'
p40
sS'x'
I265
sg16
I0
sS'y'
I677
s(dp41
g14
S'line'
p42
sS'x'
I342
sg16
I0
sS'y'
I677
s(dp43
g14
S'line'
p44
sS'x'
I342
sg16
I0
sS'y'
I1039
stp45
s(dp46
g12
((dp47
g14
S'line'
p48
sS'x'
I265
sg16
I0
sS'y'
I677
s(dp49
g14
S'line'
p50
sS'x'
I265
sg16
I0
sS'y'
I65
s(dp51
g14
S'line'
p52
sS'x'
I101
sg16
I0
sS'y'
I65
s(dp53
g14
S'line'
p54
sS'x'
I101
sg16
I0
sS'y'
I0
s(dp55
g14
S'line'
p56
sS'x'
I531
sg16
I0
sS'y'
I0
s(dp57
g14
S'line'
p58
sS'x'
I531
sg16
I0
sS'y'
I65
s(dp59
g14
S'line'
p60
sS'x'
I342
sg16
I0
sS'y'
I65
s(dp61
g14
S'line'
p62
sS'x'
I342
sg16
I0
sS'y'
I539
s(dp63
g14
S'line'
p64
sS'x'
I803
sg16
I0
sS'y'
I539
s(dp65
g14
S'line'
p66
sS'x'
I803
sg16
I0
sS'y'
I378
s(dp67
g14
S'line'
p68
sS'x'
I865
sg16
I0
sS'y'
I378
s(dp69
g14
S'line'
p70
sS'x'
I865
sg16
I0
sS'y'
I764
s(dp71
g14
S'line'
p72
sS'x'
I803
sg16
I0
sS'y'
I764
s(dp73
g14
S'line'
p74
sS'x'
I803
sg16
I0
sS'y'
I601
s(dp75
g14
S'line'
p76
sS'x'
I342
sg16
I0
sS'y'
I601
s(dp77
g14
S'line'
p78
sS'x'
I342
sg16
I0
sS'y'
I677
stp79
stp80
sS'components'
p81
(tsS'anchors'
p82
(tsss."
AnchorPoint: "top" 545.5 1152 basechar 0
AnchorPoint: "bot" 545.5 0 basechar 0
LayerCount: 2
Fore
SplineSet
787 396 m 257
 849 396 l 257
 849 770 l 257
 787 770 l 257
 787 623 l 257
 302 623 l 257
 302 557 l 257
 787 557 l 257
 787 396 l 257
967 802 m 257
 1038 802 l 257
 1038 1152 l 257
 294 1152 l 257
 294 1093 l 257
 967 1093 l 257
 967 802 l 257
EndSplineSet
Refer: 382 -1 N 1 0 0 1 -21 0 2
EndChar

StartChar: G
Encoding: 71 71 39
Width: 1370
VWidth: 0
Flags: W
PickledData: "(dp1
S'com.typemytype.robofont.layerData'
p2
(dp3
S'b'
(dp4
S'name'
p5
S'G'
sS'lib'
p6
(dp7
sS'unicodes'
p8
(tsS'width'
p9
I1370
sS'contours'
p10
(tsS'components'
p11
(tsS'anchors'
p12
(tsss."
AnchorPoint: "top" 685 1152 basechar 0
AnchorPoint: "bot" 707 0 basechar 0
LayerCount: 2
Fore
SplineSet
696 -23 m 256
 943 -23 1247 93 1247 549 c 257
 921 549 l 257
 921 488 l 257
 1168 488 l 257
 1162 146 900 43 708 43 c 256
 355 43 188 303 188 580 c 256
 188 851 380 1104 708 1104 c 256
 928 1104 1075 978 1140 838 c 257
 1198 838 l 257
 1198 1152 l 257
 1128 1152 l 257
 1128 981 l 257
 1031 1107 876 1172 697 1172 c 256
 361 1172 110 917 110 580 c 256
 110 171 418 -23 696 -23 c 256
EndSplineSet
EndChar

StartChar: H
Encoding: 72 72 45
Width: 1403
VWidth: 0
Flags: W
PickledData: "(dp1
S'com.typemytype.robofont.layerData'
p2
(dp3
S'b'
(dp4
S'name'
p5
S'H'
sS'lib'
p6
(dp7
sS'unicodes'
p8
(tsS'width'
p9
I1403
sS'contours'
p10
(tsS'components'
p11
(tsS'anchors'
p12
(tsss."
AnchorPoint: "top" 701.5 1152 basechar 0
AnchorPoint: "bot" 703 0 basechar 0
LayerCount: 2
Fore
SplineSet
299 559 m 257
 1109 559 l 257
 1109 618 l 257
 299 618 l 257
 299 559 l 257
EndSplineSet
Refer: 382 -1 N 1 0 0 1 -21 0 2
Refer: 382 -1 N 1 0 0 1 789 0 2
EndChar

StartChar: Hbar
Encoding: 294 294 46
Width: 1445
VWidth: 0
Flags: W
PickledData: "(dp1
S'com.typemytype.robofont.layerData'
p2
(dp3
S'b'
(dp4
S'name'
p5
S'Hbar'
p6
sS'lib'
p7
(dp8
sS'unicodes'
p9
(tsS'width'
p10
I1445
sS'contours'
p11
(tsS'components'
p12
(tsS'anchors'
p13
(tsss."
LayerCount: 2
Fore
SplineSet
141 831 m 257
 1302 831 l 257
 1302 882 l 257
 141 882 l 257
 141 831 l 257
EndSplineSet
Refer: 45 72 N 1 0 0 1 0 0 2
EndChar

StartChar: J
Encoding: 74 74 59
Width: 607
VWidth: 0
Flags: W
PickledData: "(dp1
S'com.typemytype.robofont.layerData'
p2
(dp3
S'b'
(dp4
S'name'
p5
S'J'
sS'lib'
p6
(dp7
sS'unicodes'
p8
(tsS'width'
p9
I607
sS'contours'
p10
(tsS'components'
p11
(tsS'anchors'
p12
(tsss."
AnchorPoint: "bot" 303.5 0 basechar 0
AnchorPoint: "top" 303.5 1152 basechar 0
LayerCount: 2
Fore
SplineSet
101 -67 m 257
 218 -67 l 258
 336 -67 396 -23 396 156 c 258
 396 1096 l 257
 526 1096 l 257
 526 1152 l 257
 189 1152 l 257
 189 1096 l 257
 319 1096 l 257
 319 166 l 258
 319 45 304 0 223 0 c 258
 101 0 l 257
 101 -67 l 257
EndSplineSet
EndChar

StartChar: K
Encoding: 75 75 61
Width: 1198
VWidth: 0
Flags: W
PickledData: "(dp1
S'com.typemytype.robofont.guides'
p2
((dp3
S'y'
I593
sS'x'
I467
sS'magnetic'
p4
I5
sS'angle'
p5
I0
sS'isGlobal'
p6
I0
stp7
sS'com.typemytype.robofont.layerData'
p8
(dp9
S'b'
(dp10
S'name'
p11
S'K'
sS'lib'
p12
(dp13
sS'unicodes'
p14
(tsS'width'
p15
I1198
sS'contours'
p16
(tsS'components'
p17
(tsS'anchors'
p18
(tsss."
AnchorPoint: "top" 599 1152 basechar 0
AnchorPoint: "bot" 642 0 basechar 0
LayerCount: 2
Fore
SplineSet
775 0 m 257
 1180 0 l 257
 1180 56 l 257
 1041 56 l 257
 427 593 l 257
 985 1096 l 257
 1147 1096 l 257
 1147 1152 l 257
 743 1152 l 257
 743 1096 l 257
 886 1096 l 257
 329 593 l 257
 931 56 l 257
 775 56 l 257
 775 0 l 257
EndSplineSet
Refer: 382 -1 N 1 0 0 1 -21 0 2
EndChar

StartChar: L
Encoding: 76 76 63
Width: 1013
VWidth: 0
Flags: W
PickledData: "(dp1
S'com.typemytype.robofont.layerData'
p2
(dp3
S'b'
(dp4
S'name'
p5
S'L'
sS'lib'
p6
(dp7
sS'unicodes'
p8
(tsS'width'
p9
I1013
sS'contours'
p10
(tsS'components'
p11
(tsS'anchors'
p12
(tsss."
AnchorPoint: "bot" 592 0 basechar 0
AnchorPoint: "top" 506.5 1152 basechar 0
AnchorPoint: "mid" 298 592 basechar 0
AnchorPoint: "caron.alt" 411 804 basechar 0
LayerCount: 2
Fore
SplineSet
293 0 m 257
 966 0 l 257
 966 385 l 257
 895 385 l 257
 895 58 l 257
 293 58 l 257
 293 0 l 257
EndSplineSet
Refer: 382 -1 N 1 0 0 1 -21 0 2
EndChar

StartChar: Lslash
Encoding: 321 321 68
Width: 1169
VWidth: 0
Flags: W
PickledData: "(dp1
S'com.typemytype.robofont.layerData'
p2
(dp3
S'b'
(dp4
S'name'
p5
S'Lslash'
p6
sS'lib'
p7
(dp8
sS'unicodes'
p9
(tsS'width'
p10
I1169
sS'contours'
p11
(tsS'components'
p12
(tsS'anchors'
p13
(tsss."
LayerCount: 2
Fore
SplineSet
120 436 m 257
 542 693 l 257
 542 766 l 257
 120 506 l 257
 120 436 l 257
EndSplineSet
Refer: 63 76 N 1 0 0 1 0 0 2
EndChar

StartChar: M
Encoding: 77 77 69
Width: 1576
VWidth: 0
Flags: W
PickledData: "(dp1
S'com.typemytype.robofont.layerData'
p2
(dp3
S'b'
(dp4
S'name'
p5
S'M'
sS'lib'
p6
(dp7
sS'unicodes'
p8
(tsS'width'
p9
I1576
sS'contours'
p10
(tsS'components'
p11
(tsS'anchors'
p12
(tsss."
AnchorPoint: "bot" 788 0 basechar 0
AnchorPoint: "top" 788 1152 basechar 0
LayerCount: 2
Fore
SplineSet
108 0 m 257
 483 0 l 257
 483 58 l 257
 333 58 l 257
 333 1015 l 257
 790 88 l 257
 805 88 l 257
 1244 1015 l 257
 1244 58 l 257
 1093 58 l 257
 1093 0 l 257
 1468 0 l 257
 1468 58 l 257
 1317 58 l 257
 1317 1093 l 257
 1468 1093 l 257
 1468 1152 l 257
 1229 1152 l 257
 798 226 l 257
 348 1152 l 257
 108 1152 l 257
 108 1093 l 257
 259 1093 l 257
 259 58 l 257
 108 58 l 257
 108 0 l 257
EndSplineSet
EndChar

StartChar: N
Encoding: 78 78 70
Width: 1399
VWidth: 0
Flags: W
PickledData: "(dp1
S'com.typemytype.robofont.layerData'
p2
(dp3
S'b'
(dp4
S'name'
p5
S'N'
sS'lib'
p6
(dp7
sS'unicodes'
p8
(tsS'width'
p9
I1399
sS'contours'
p10
(tsS'components'
p11
(tsS'anchors'
p12
(tsss."
AnchorPoint: "top" 699.5 1152 basechar 0
AnchorPoint: "bot" 699 0 basechar 0
LayerCount: 2
Fore
SplineSet
108 0 m 257
 483 0 l 257
 483 58 l 257
 333 58 l 257
 333 1040 l 257
 1122 0 l 257
 1196 0 l 257
 1196 1093 l 257
 1333 1093 l 257
 1333 1152 l 257
 971 1152 l 257
 971 1093 l 257
 1122 1093 l 257
 1122 117 l 257
 333 1152 l 257
 108 1152 l 257
 108 1093 l 257
 259 1093 l 257
 259 58 l 257
 108 58 l 257
 108 0 l 257
EndSplineSet
EndChar

StartChar: O
Encoding: 79 79 75
Width: 1417
VWidth: 0
Flags: W
PickledData: "(dp1
S'com.typemytype.robofont.layerData'
p2
(dp3
S'b'
(dp4
S'name'
p5
S'O'
sS'lib'
p6
(dp7
sS'unicodes'
p8
(tsS'width'
p9
I1417
sS'contours'
p10
(tsS'components'
p11
(tsS'anchors'
p12
(tsss."
AnchorPoint: "bot" 708.5 0 basechar 0
AnchorPoint: "top" 708.5 1152 basechar 0
AnchorPoint: "ogonek" 769 0 basechar 0
LayerCount: 2
Fore
SplineSet
708 43 m 256
 359 43 188 302 188 573 c 256
 188 836 362 1104 708 1104 c 256
 1051 1104 1228 836 1228 573 c 256
 1228 309 1051 43 708 43 c 256
708 -23 m 256
 1108 -23 1307 273 1307 572 c 256
 1307 872 1106 1172 708 1172 c 256
 311 1172 110 872 110 572 c 256
 110 273 309 -23 708 -23 c 256
EndSplineSet
EndChar

StartChar: OE
Encoding: 338 338 76
Width: 2019
VWidth: 0
Flags: W
PickledData: "(dp1
S'com.typemytype.robofont.layerData'
p2
(dp3
S'b'
(dp4
S'name'
p5
S'OE'
p6
sS'lib'
p7
(dp8
sS'unicodes'
p9
(tsS'width'
p10
I2019
sS'contours'
p11
(tsS'components'
p12
(tsS'anchors'
p13
(tsss."
LayerCount: 2
Fore
SplineSet
794 0 m 258
 1849 0 l 257
 1849 376 l 257
 1772 376 l 257
 1772 70 l 257
 1120 70 l 257
 1120 534 l 257
 1553 534 l 257
 1553 362 l 257
 1620 362 l 257
 1620 762 l 257
 1553 762 l 257
 1553 604 l 257
 1120 604 l 257
 1120 1082 l 257
 1750 1082 l 257
 1750 796 l 257
 1827 796 l 257
 1827 1152 l 257
 794 1152 l 258
 401 1152 154 928 154 571 c 256
 154 220 401 0 794 0 c 258
794 70 m 258
 452 70 238 264 238 572 c 256
 238 882 452 1076 794 1076 c 258
 1038 1076 l 257
 1038 70 l 257
 794 70 l 258
EndSplineSet
EndChar

StartChar: Omega
Encoding: 937 937 84
Width: 1468
VWidth: 0
Flags: W
LayerCount: 2
Fore
SplineSet
734 1174 m 256
 369 1174 140 960 140 618 c 256
 140 411 257 210 477 60 c 257
 143 60 l 257
 143 0 l 257
 573 0 l 257
 573 48 l 257
 341 205 210 402 210 618 c 256
 210 925 412 1118 734 1118 c 256
 1056 1118 1258 925 1258 618 c 256
 1258 402 1127 205 895 48 c 257
 895 0 l 257
 1325 0 l 257
 1325 60 l 257
 991 60 l 257
 1211 210 1328 411 1328 618 c 256
 1328 960 1099 1174 734 1174 c 256
EndSplineSet
EndChar

StartChar: Oslash
Encoding: 216 216 85
Width: 1519
VWidth: 0
Flags: W
PickledData: "(dp1
S'com.typemytype.robofont.layerData'
p2
(dp3
S'b'
(dp4
S'name'
p5
S'Oslash'
p6
sS'lib'
p7
(dp8
sS'unicodes'
p9
(tsS'width'
p10
I1519
sS'contours'
p11
(tsS'components'
p12
(tsS'anchors'
p13
(tsss."
AnchorPoint: "top" 759.5 1152 basechar 0
LayerCount: 2
Fore
SplineSet
269 -73 m 257
 1243 1179 l 257
 1211 1203 l 257
 235 -47 l 257
 269 -73 l 257
EndSplineSet
Refer: 75 79 N 1 0 0 1 0 0 2
EndChar

StartChar: P
Encoding: 80 80 88
Width: 1134
VWidth: 0
Flags: W
PickledData: "(dp1
S'com.typemytype.robofont.layerData'
p2
(dp3
S'b'
(dp4
S'name'
p5
S'P'
sS'lib'
p6
(dp7
sS'unicodes'
p8
(tsS'width'
p9
I1134
sS'contours'
p10
((dp11
S'points'
p12
((dp13
S'segmentType'
p14
S'line'
p15
sS'x'
I332
sS'smooth'
p16
I0
sS'y'
I1095
s(dp17
g14
S'line'
p18
sS'x'
I738
sg16
I1
sS'y'
I1095
s(dp19
S'y'
I1095
sS'x'
I915
sg16
I0
s(dp20
S'y'
I960
sS'x'
I1003
sg16
I0
s(dp21
g14
S'curve'
p22
sS'x'
I1003
sg16
I1
sS'y'
I823
s(dp23
S'y'
I683
sS'x'
I1003
sg16
I0
s(dp24
S'y'
I544
sS'x'
I913
sg16
I0
s(dp25
g14
S'curve'
p26
sS'x'
I738
sg16
I1
sS'y'
I544
s(dp27
g14
S'line'
p28
sS'x'
I332
sg16
I0
sS'y'
I544
stp29
s(dp30
g12
((dp31
g14
S'line'
p32
sS'x'
I114
sg16
I0
sS'y'
I0
s(dp33
g14
S'line'
p34
sS'x'
I491
sg16
I0
sS'y'
I0
s(dp35
g14
S'line'
p36
sS'x'
I491
sg16
I0
sS'y'
I58
s(dp37
g14
S'line'
p38
sS'x'
I332
sg16
I0
sS'y'
I58
s(dp39
g14
S'line'
p40
sS'x'
I332
sg16
I0
sS'y'
I483
s(dp41
g14
S'line'
p42
sS'x'
I738
sg16
I1
sS'y'
I483
s(dp43
S'y'
I483
sS'x'
I963
sg16
I0
s(dp44
S'y'
I656
sS'x'
I1077
sg16
I0
s(dp45
g14
S'curve'
p46
sS'x'
I1077
sg16
I1
sS'y'
I826
s(dp47
S'y'
I989
sS'x'
I1077
sg16
I0
s(dp48
S'y'
I1154
sS'x'
I963
sg16
I0
s(dp49
g14
S'curve'
p50
sS'x'
I738
sg16
I1
sS'y'
I1154
s(dp51
g14
S'line'
p52
sS'x'
I101
sg16
I0
sS'y'
I1154
s(dp53
g14
S'line'
p54
sS'x'
I101
sg16
I0
sS'y'
I1095
s(dp55
g14
S'line'
p56
sS'x'
I257
sg16
I0
sS'y'
I1095
s(dp57
g14
S'line'
p58
sS'x'
I257
sg16
I0
sS'y'
I58
s(dp59
g14
S'line'
p60
sS'x'
I114
sg16
I0
sS'y'
I58
stp61
stp62
sS'components'
p63
(tsS'anchors'
p64
(tsss."
AnchorPoint: "bot" 567 0 basechar 0
AnchorPoint: "top" 567 1152 basechar 0
LayerCount: 2
Fore
SplineSet
426 483 m 257
 684 483 l 258
 901 483 1037 620 1037 839 c 256
 1037 1031 906 1152 697 1152 c 258
 296 1152 l 257
 296 1093 l 257
 697 1093 l 258
 860 1093 963 994 963 836 c 256
 963 657 855 544 684 544 c 258
 426 544 l 257
 426 483 l 257
EndSplineSet
Refer: 382 -1 N 1 0 0 1 -21 0 2
EndChar

StartChar: Q
Encoding: 81 81 89
Width: 1417
VWidth: 0
Flags: W
PickledData: "(dp1
S'com.typemytype.robofont.layerData'
p2
(dp3
S'b'
(dp4
S'name'
p5
S'Q'
sS'lib'
p6
(dp7
sS'unicodes'
p8
(tsS'width'
p9
I1417
sS'contours'
p10
(tsS'components'
p11
(tsS'anchors'
p12
(tsss."
LayerCount: 2
Fore
SplineSet
1024 -206 m 256
 1070 -206 1117 -198 1172 -179 c 257
 1151 -124 l 257
 1107 -139 1069 -146 1032 -146 c 256
 932 -146 847 -68 752 10 c 257
 656 10 l 257
 806 -108 887 -206 1024 -206 c 256
EndSplineSet
Refer: 75 79 N 1 0 0 1 0 0 2
EndChar

StartChar: R
Encoding: 82 82 90
Width: 1175
VWidth: 0
Flags: W
PickledData: "(dp1
S'com.typemytype.robofont.layerData'
p2
(dp3
S'b'
(dp4
S'name'
p5
S'R'
sS'lib'
p6
(dp7
sS'unicodes'
p8
(tsS'width'
p9
I1175
sS'contours'
p10
((dp11
S'points'
p12
((dp13
S'segmentType'
p14
S'line'
p15
sS'x'
I114
sS'smooth'
p16
I0
sS'y'
I0
s(dp17
g14
S'line'
p18
sS'x'
I491
sg16
I0
sS'y'
I0
s(dp19
g14
S'line'
p20
sS'x'
I491
sg16
I0
sS'y'
I58
s(dp21
g14
S'line'
p22
sS'x'
I332
sg16
I0
sS'y'
I58
s(dp23
g14
S'line'
p24
sS'x'
I332
sg16
I0
sS'y'
I539
s(dp25
g14
S'line'
p26
sS'x'
I620
sg16
I0
sS'y'
I539
s(dp27
g14
S'line'
p28
sS'x'
I940
sg16
I0
sS'y'
I0
s(dp29
g14
S'line'
p30
sS'x'
I1157
sg16
I0
sS'y'
I0
s(dp31
g14
S'line'
p32
sS'x'
I1157
sg16
I0
sS'y'
I58
s(dp33
g14
S'line'
p34
sS'x'
I994
sg16
I0
sS'y'
I58
s(dp35
g14
S'line'
p36
sS'x'
I700
sg16
I0
sS'y'
I539
s(dp37
S'y'
I539
sS'x'
I924
sg16
I0
s(dp38
S'y'
I696
sS'x'
I1038
sg16
I0
s(dp39
g14
S'curve'
p40
sS'x'
I1038
sg16
I1
sS'y'
I848
s(dp41
S'y'
I1000
sS'x'
I1038
sg16
I0
s(dp42
S'y'
I1154
sS'x'
I924
sg16
I0
s(dp43
g14
S'curve'
p44
sS'x'
I700
sg16
I1
sS'y'
I1154
s(dp45
g14
S'line'
p46
sS'x'
I101
sg16
I0
sS'y'
I1154
s(dp47
g14
S'line'
p48
sS'x'
I101
sg16
I0
sS'y'
I1095
s(dp49
g14
S'line'
p50
sS'x'
I257
sg16
I0
sS'y'
I1095
s(dp51
g14
S'line'
p52
sS'x'
I257
sg16
I0
sS'y'
I58
s(dp53
g14
S'line'
p54
sS'x'
I114
sg16
I0
sS'y'
I58
stp55
s(dp56
g12
((dp57
g14
S'line'
p58
sS'x'
I332
sg16
I0
sS'y'
I1095
s(dp59
g14
S'line'
p60
sS'x'
I700
sg16
I1
sS'y'
I1095
s(dp61
S'y'
I1095
sS'x'
I877
sg16
I0
s(dp62
S'y'
I971
sS'x'
I964
sg16
I0
s(dp63
g14
S'curve'
p64
sS'x'
I964
sg16
I1
sS'y'
I845
s(dp65
S'y'
I723
sS'x'
I964
sg16
I0
s(dp66
S'y'
I600
sS'x'
I875
sg16
I0
s(dp67
g14
S'curve'
p68
sS'x'
I700
sg16
I1
sS'y'
I600
s(dp69
g14
S'line'
p70
sS'x'
I332
sg16
I0
sS'y'
I600
stp71
stp72
sS'components'
p73
(tsS'anchors'
p74
(tsss."
AnchorPoint: "top" 587.5 1152 basechar 0
AnchorPoint: "bot" 682 0 basechar 0
LayerCount: 2
Fore
SplineSet
940 0 m 257
 1157 0 l 257
 1157 58 l 257
 994 58 l 257
 700 539 l 257
 924 539 1038 696 1038 848 c 256
 1038 1000 924 1152 700 1152 c 258
 296 1152 l 257
 296 1093 l 257
 700 1093 l 258
 877 1093 964 971 964 845 c 256
 964 723 875 600 700 600 c 258
 406 600 l 257
 406 539 l 257
 620 539 l 257
 940 0 l 257
EndSplineSet
Refer: 382 -1 N 1 0 0 1 -21 0 2
EndChar

StartChar: S
Encoding: 83 83 94
Width: 1121
VWidth: 0
Flags: W
PickledData: "(dp1
S'com.typemytype.robofont.layerData'
p2
(dp3
S'b'
(dp4
S'name'
p5
S'S'
sS'lib'
p6
(dp7
sS'unicodes'
p8
(tsS'width'
p9
I1121
sS'contours'
p10
((dp11
S'points'
p12
((dp13
S'segmentType'
p14
S'curve'
p15
sS'x'
I636
sS'smooth'
p16
I1
sS'y'
S'-23'
p17
s(dp18
S'y'
S'-23'
p19
sS'x'
I930
sg16
I0
s(dp20
S'y'
I171
sS'x'
I1026
sg16
I0
s(dp21
g14
S'curve'
p22
sS'x'
I1026
sg16
I1
sS'y'
I295
s(dp23
S'y'
I543
sS'x'
I1026
sg16
I0
s(dp24
S'y'
I599
sS'x'
I829
sg16
I0
s(dp25
g14
S'curve'
p26
sS'x'
I606
sg16
I1
sS'y'
I622
s(dp27
S'y'
I643
sS'x'
I405
sg16
I0
s(dp28
S'y'
I667
sS'x'
I269
sg16
I0
s(dp29
g14
S'curve'
p30
sS'x'
I269
sg16
I1
sS'y'
I851
s(dp31
S'y'
I998
sS'x'
I269
sg16
I0
s(dp32
S'y'
I1104
sS'x'
I360
sg16
I0
s(dp33
g14
S'curve'
p34
sS'x'
I573
sg16
I1
sS'y'
I1104
s(dp35
S'y'
I1104
sS'x'
I719
sg16
I0
s(dp36
S'y'
I1024
sS'x'
I885
sg16
I0
s(dp37
g14
S'curve'
p38
sS'x'
I885
sg16
I1
sS'y'
I941
s(dp39
g14
S'line'
p40
sS'x'
I885
sg16
I0
sS'y'
I839
s(dp41
g14
S'line'
p42
sS'x'
I959
sg16
I0
sS'y'
I839
s(dp43
g14
S'line'
p44
sS'x'
I959
sg16
I0
sS'y'
I1152
s(dp45
g14
S'line'
p46
sS'x'
I885
sg16
I0
sS'y'
I1152
s(dp47
g14
S'line'
p48
sS'x'
I885
sg16
I0
sS'y'
I1049
s(dp49
S'y'
I1131
sS'x'
I828
sg16
I0
s(dp50
S'y'
I1172
sS'x'
I673
sg16
I0
s(dp51
g14
S'curve'
p52
sS'x'
I561
sg16
I1
sS'y'
I1172
s(dp53
S'y'
I1172
sS'x'
I360
sg16
I0
s(dp54
S'y'
I1066
sS'x'
I184
sg16
I0
s(dp55
g14
S'curve'
p56
sS'x'
I184
sg16
I1
sS'y'
I863
s(dp57
S'y'
I635
sS'x'
I184
sg16
I0
s(dp58
S'y'
I579
sS'x'
I332
sg16
I0
s(dp59
g14
S'curve'
p60
sS'x'
I584
sg16
I1
sS'y'
I553
s(dp61
S'y'
I531
sS'x'
I805
sg16
I0
s(dp62
S'y'
I488
sS'x'
I942
sg16
I0
s(dp63
g14
S'curve'
p64
sS'x'
I942
sg16
I1
sS'y'
I300
s(dp65
S'y'
I169
sS'x'
I942
sg16
I0
s(dp66
S'y'
I47
sS'x'
I831
sg16
I0
s(dp67
g14
S'curve'
p68
sS'x'
I644
sg16
I1
sS'y'
I47
s(dp69
S'y'
I47
sS'x'
I448
sg16
I0
s(dp70
S'y'
I118
sS'x'
I261
sg16
I0
s(dp71
g14
S'curve'
p72
sS'x'
I261
sg16
I1
sS'y'
I247
s(dp73
g14
S'line'
p74
sS'x'
I261
sg16
I0
sS'y'
I387
s(dp75
g14
S'line'
p76
sS'x'
I187
sg16
I0
sS'y'
I387
s(dp77
g14
S'line'
p78
sS'x'
I187
sg16
I0
sS'y'
S'-1'
p79
s(dp80
g14
S'line'
p81
sS'x'
I261
sg16
I0
sS'y'
S'-1'
p82
s(dp83
g14
S'line'
p84
sS'x'
I261
sg16
I0
sS'y'
I122
s(dp85
S'y'
I22
sS'x'
I335
sg16
I0
s(dp86
S'y'
S'-23'
p87
sS'x'
I496
sg16
I0
stp88
stp89
sS'components'
p90
(tsS'anchors'
p91
(tsss."
AnchorPoint: "top" 560.5 1152 basechar 0
AnchorPoint: "bot" 642 0 basechar 0
LayerCount: 2
Fore
SplineSet
639 -23 m 256
 945 -23 1026 171 1026 295 c 256
 1026 573 810 597 608 620 c 256
 429 641 260 660 264 857 c 256
 267 1001 354 1104 568 1104 c 256
 714 1104 885 1024 885 941 c 258
 885 839 l 257
 959 839 l 257
 959 1152 l 257
 885 1152 l 257
 885 1049 l 257
 828 1131 679 1172 567 1172 c 256
 355 1172 184 1067 184 856 c 256
 184 598 396 574 598 550 c 256
 784 528 962 505 955 297 c 256
 951 166 861 47 644 47 c 256
 417 47 261 134 261 277 c 258
 261 387 l 257
 187 387 l 257
 187 -1 l 257
 261 -1 l 257
 261 122 l 257
 335 22 459 -23 639 -23 c 256
EndSplineSet
EndChar

StartChar: Sigma
Encoding: 931 931 100
Width: 1137
VWidth: 0
Flags: W
LayerCount: 2
Fore
SplineSet
82 0 m 257
 1000 0 l 257
 1000 352 l 257
 928 352 l 257
 928 58 l 257
 294 58 l 257
 679 578 l 257
 679 623 l 257
 309 1093 l 257
 909 1093 l 257
 909 802 l 257
 980 802 l 257
 980 1152 l 257
 82 1152 l 257
 82 1093 l 257
 233 1093 l 257
 618 591 l 257
 233 58 l 257
 82 58 l 257
 82 0 l 257
EndSplineSet
EndChar

StartChar: T
Encoding: 84 84 101
Width: 1151
VWidth: 0
Flags: W
PickledData: "(dp1
S'com.typemytype.robofont.layerData'
p2
(dp3
S'b'
(dp4
S'name'
p5
S'T'
sS'lib'
p6
(dp7
sS'unicodes'
p8
(tsS'width'
p9
I1151
sS'contours'
p10
(tsS'components'
p11
(tsS'anchors'
p12
(tsss."
AnchorPoint: "mid" 575.5 804 basechar 0
AnchorPoint: "top" 575.5 1152 basechar 0
AnchorPoint: "bot" 573 0 basechar 0
LayerCount: 2
Fore
SplineSet
68 786 m 257
 139 786 l 257
 139 1093 l 257
 1013 1093 l 257
 1013 786 l 257
 1085 786 l 257
 1085 1152 l 257
 68 1152 l 257
 68 786 l 257
EndSplineSet
Refer: 382 -1 N 1 0 0 1 255 0 2
EndChar

StartChar: Thorn
Encoding: 222 222 105
Width: 1130
VWidth: 0
Flags: W
PickledData: "(dp1
S'com.typemytype.robofont.layerData'
p2
(dp3
S'b'
(dp4
S'name'
p5
S'Thorn'
p6
sS'lib'
p7
(dp8
sS'unicodes'
p9
(tsS'width'
p10
I1130
sS'contours'
p11
(tsS'components'
p12
(tsS'anchors'
p13
(tsss."
LayerCount: 2
Fore
SplineSet
104 0 m 257
 508 0 l 257
 508 62 l 257
 338 62 l 257
 338 302 l 257
 699 302 l 258
 919 302 1037 464 1037 621 c 256
 1037 774 928 923 699 923 c 258
 338 923 l 257
 338 1089 l 257
 493 1089 l 257
 493 1152 l 257
 106 1152 l 257
 106 1089 l 257
 257 1089 l 257
 257 62 l 257
 104 62 l 257
 104 0 l 257
338 367 m 257
 338 860 l 257
 699 860 l 258
 875 860 958 743 958 621 c 256
 958 495 867 367 699 367 c 258
 338 367 l 257
EndSplineSet
EndChar

StartChar: U
Encoding: 85 85 106
Width: 1448
VWidth: 0
Flags: W
PickledData: "(dp1
S'com.typemytype.robofont.layerData'
p2
(dp3
S'b'
(dp4
S'name'
p5
S'U'
sS'lib'
p6
(dp7
sS'unicodes'
p8
(tsS'width'
p9
I1448
sS'contours'
p10
(tsS'components'
p11
(tsS'anchors'
p12
(tsss."
AnchorPoint: "bot" 724 0 basechar 0
AnchorPoint: "top" 724 1152 basechar 0
AnchorPoint: "ogonek" 793 0 basechar 0
LayerCount: 2
Fore
SplineSet
714 -23 m 256
 966 -23 1220 112 1220 376 c 258
 1220 1093 l 257
 1370 1093 l 257
 1370 1152 l 257
 993 1152 l 257
 993 1093 l 257
 1144 1093 l 257
 1144 378 l 258
 1144 157 927 43 712 43 c 256
 508 43 304 152 304 378 c 258
 304 1093 l 257
 455 1093 l 257
 455 1152 l 257
 78 1152 l 257
 78 1093 l 257
 228 1093 l 257
 228 376 l 258
 228 109 471 -23 714 -23 c 256
EndSplineSet
EndChar

StartChar: V
Encoding: 86 86 117
Width: 1258
VWidth: 0
Flags: W
PickledData: "(dp1
S'com.typemytype.robofont.layerData'
p2
(dp3
S'b'
(dp4
S'name'
p5
S'V'
sS'lib'
p6
(dp7
sS'unicodes'
p8
(tsS'width'
p9
I1258
sS'contours'
p10
(tsS'components'
p11
(tsS'anchors'
p12
(tsss."
LayerCount: 2
Fore
SplineSet
592 0 m 257
 672 0 l 257
 1087 1095 l 257
 1215 1095 l 257
 1215 1154 l 257
 847 1154 l 257
 847 1095 l 257
 1000 1095 l 257
 633 94 l 257
 263 1095 l 257
 418 1095 l 257
 418 1154 l 257
 41 1154 l 257
 41 1095 l 257
 180 1095 l 257
 592 0 l 257
EndSplineSet
EndChar

StartChar: W
Encoding: 87 87 118
Width: 1915
VWidth: 0
Flags: W
PickledData: "(dp1
S'com.typemytype.robofont.layerData'
p2
(dp3
S'b'
(dp4
S'name'
p5
S'W'
sS'lib'
p6
(dp7
sS'unicodes'
p8
(tsS'width'
p9
I1915
sS'contours'
p10
(tsS'components'
p11
(tsS'anchors'
p12
(tsss."
AnchorPoint: "top" 957.5 1152 basechar 0
AnchorPoint: "bot" 962 0 basechar 0
LayerCount: 2
Fore
SplineSet
562 0 m 257
 645 0 l 257
 957 974 l 257
 1280 0 l 257
 1362 0 l 257
 1717 1093 l 257
 1857 1093 l 257
 1857 1152 l 257
 1484 1152 l 257
 1484 1093 l 257
 1633 1093 l 257
 1322 94 l 257
 997 1093 l 257
 915 1093 l 257
 604 94 l 257
 279 1093 l 257
 435 1093 l 257
 435 1152 l 257
 58 1152 l 257
 58 1093 l 257
 197 1093 l 257
 562 0 l 257
EndSplineSet
EndChar

StartChar: X
Encoding: 88 88 123
Width: 1240
VWidth: 0
Flags: W
PickledData: "(dp1
S'com.typemytype.robofont.layerData'
p2
(dp3
S'b'
(dp4
S'name'
p5
S'X'
sS'lib'
p6
(dp7
sS'unicodes'
p8
(tsS'width'
p9
I1240
sS'contours'
p10
(tsS'components'
p11
(tsS'anchors'
p12
(tsss."
LayerCount: 2
Fore
SplineSet
78 0 m 257
 455 0 l 257
 455 58 l 257
 306 58 l 257
 618 531 l 257
 936 58 l 257
 785 58 l 257
 785 0 l 257
 1162 0 l 257
 1162 58 l 257
 1012 58 l 257
 656 588 l 257
 992 1095 l 257
 1140 1095 l 257
 1140 1154 l 257
 763 1154 l 257
 763 1095 l 257
 912 1095 l 257
 615 650 l 257
 317 1095 l 257
 466 1095 l 257
 466 1154 l 257
 90 1154 l 257
 90 1095 l 257
 240 1095 l 257
 577 593 l 257
 222 58 l 257
 78 58 l 257
 78 0 l 257
EndSplineSet
EndChar

StartChar: Y
Encoding: 89 89 124
Width: 1258
VWidth: 0
Flags: W
PickledData: "(dp1
S'com.typemytype.robofont.layerData'
p2
(dp3
S'b'
(dp4
S'name'
p5
S'Y'
sS'lib'
p6
(dp7
sS'unicodes'
p8
(tsS'width'
p9
I1258
sS'contours'
p10
(tsS'components'
p11
(tsS'anchors'
p12
(tsss."
AnchorPoint: "bot" 629 0 basechar 0
AnchorPoint: "top" 629 1152 basechar 0
LayerCount: 2
Fore
SplineSet
442 0 m 257
 819 0 l 257
 819 58 l 257
 669 58 l 257
 669 408 l 257
 1080 1093 l 257
 1226 1093 l 257
 1226 1152 l 257
 849 1152 l 257
 849 1093 l 257
 998 1093 l 257
 633 475 l 257
 262 1093 l 257
 409 1093 l 257
 409 1152 l 257
 32 1152 l 257
 32 1093 l 257
 180 1093 l 257
 593 408 l 257
 593 58 l 257
 442 58 l 257
 442 0 l 257
EndSplineSet
EndChar

StartChar: Z
Encoding: 90 90 129
Width: 1219
VWidth: 0
Flags: W
PickledData: "(dp1
S'com.typemytype.robofont.layerData'
p2
(dp3
S'b'
(dp4
S'name'
p5
S'Z'
sS'lib'
p6
(dp7
sS'unicodes'
p8
(tsS'width'
p9
I1219
sS'contours'
p10
(tsS'components'
p11
(tsS'anchors'
p12
(tsss."
AnchorPoint: "top" 609.5 1152 basechar 0
AnchorPoint: "bot" 633 0 basechar 0
LayerCount: 2
Fore
SplineSet
144 0 m 257
 1081 0 l 257
 1081 352 l 257
 1009 352 l 257
 1009 65 l 257
 222 65 l 257
 1047 1076 l 257
 1047 1152 l 257
 162 1152 l 257
 162 811 l 257
 234 811 l 257
 234 1086 l 257
 964 1086 l 257
 144 90 l 257
 144 0 l 257
EndSplineSet
EndChar

StartChar: a
Encoding: 97 97 133
Width: 941
VWidth: 0
Flags: W
PickledData: "(dp1
S'com.typemytype.robofont.layerData'
p2
(dp3
S'b'
(dp4
S'name'
p5
S'a'
sS'lib'
p6
(dp7
sS'unicodes'
p8
(tsS'width'
p9
I941
sS'contours'
p10
((dp11
S'points'
p12
((dp13
S'segmentType'
p14
S'curve'
p15
sS'x'
I391
sS'smooth'
p16
I1
sS'y'
S'-14'
p17
s(dp18
S'y'
S'-14'
p19
sS'x'
I507
sg16
I0
s(dp20
S'y'
I21
sS'x'
I593
sg16
I0
s(dp21
g14
S'curve'
p22
sS'x'
I687
sg16
I0
sS'y'
I91
s(dp23
g14
S'line'
p24
sS'x'
I703
sg16
I0
sS'y'
S'-1'
p25
s(dp26
g14
S'line'
p27
sS'x'
I890
sg16
I0
sS'y'
S'-1'
p28
s(dp29
g14
S'line'
p30
sS'x'
I890
sg16
I0
sS'y'
I57
s(dp31
g14
S'line'
p32
sS'x'
I764
sg16
I0
sS'y'
I57
s(dp33
g14
S'line'
p34
sS'x'
I764
sg16
I1
sS'y'
I569
s(dp35
S'y'
I672
sS'x'
I764
sg16
I0
s(dp36
S'y'
I819
sS'x'
I710
sg16
I0
s(dp37
g14
S'curve'
p38
sS'x'
I461
sg16
I1
sS'y'
I819
s(dp39
S'y'
I819
sS'x'
I332
sg16
I0
s(dp40
S'y'
I792
sS'x'
I226
sg16
I0
s(dp41
g14
S'curve'
p42
sS'x'
I155
sg16
I0
sS'y'
I724
s(dp43
g14
S'line'
p44
sS'x'
I190
sg16
I0
sS'y'
I668
s(dp45
S'y'
I726
sS'x'
I247
sg16
I0
s(dp46
S'y'
I755
sS'x'
I339
sg16
I0
s(dp47
g14
S'curve'
p48
sS'x'
I459
sg16
I1
sS'y'
I755
s(dp49
S'y'
I755
sS'x'
I600
sg16
I0
s(dp50
S'y'
I706
sS'x'
I687
sg16
I0
s(dp51
g14
S'curve'
p52
sS'x'
I687
sg16
I1
sS'y'
I551
s(dp53
g14
S'line'
p54
sS'x'
I687
sg16
I0
sS'y'
I428
s(dp55
S'y'
I443
sS'x'
I609
sg16
I0
s(dp56
S'y'
I455
sS'x'
I539
sg16
I0
s(dp57
g14
S'curve'
p58
sS'x'
I465
sg16
I1
sS'y'
I455
s(dp59
S'y'
I455
sS'x'
I295
sg16
I0
s(dp60
S'y'
I433
sS'x'
I117
sg16
I0
s(dp61
g14
S'curve'
p62
sS'x'
I117
sg16
I1
sS'y'
I222
s(dp63
S'y'
I96
sS'x'
I117
sg16
I0
s(dp64
S'y'
S'-14'
p65
sS'x'
I206
sg16
I0
stp66
s(dp67
g12
((dp68
g14
S'curve'
p69
sS'x'
I401
sg16
I1
sS'y'
I50
s(dp70
S'y'
I50
sS'x'
I246
sg16
I0
s(dp71
S'y'
I142
sS'x'
I195
sg16
I0
s(dp72
g14
S'curve'
p73
sS'x'
I195
sg16
I1
sS'y'
I220
s(dp74
S'y'
I390
sS'x'
I195
sg16
I0
s(dp75
S'y'
I393
sS'x'
I346
sg16
I0
s(dp76
g14
S'curve'
p77
sS'x'
I462
sg16
I1
sS'y'
I393
s(dp78
S'y'
I393
sS'x'
I559
sg16
I0
s(dp79
S'y'
I368
sS'x'
I687
sg16
I0
s(dp80
g14
S'curve'
p81
sS'x'
I687
sg16
I0
sS'y'
I368
s(dp82
g14
S'line'
p83
sS'x'
I687
sg16
I0
sS'y'
I151
s(dp84
S'y'
I76
sS'x'
I606
sg16
I0
s(dp85
S'y'
I50
sS'x'
I511
sg16
I0
stp86
stp87
sS'components'
p88
(tsS'anchors'
p89
(tsss."
AnchorPoint: "bot" 470.5 0 basechar 0
AnchorPoint: "top" 465 805 basechar 0
AnchorPoint: "ogonek" 805 0 basechar 0
LayerCount: 2
Fore
SplineSet
385 -23 m 256
 475 -23 580 10 687 83 c 257
 703 0 l 257
 890 0 l 257
 890 57 l 257
 764 57 l 257
 764 554 l 258
 764 683 682 826 458 826 c 256
 376 826 287 802 166 757 c 257
 182 696 l 257
 266 731 370 762 463 762 c 256
 587 762 687 713 687 552 c 258
 687 424 l 257
 595 441 497 457 408 457 c 256
 247 457 117 398 117 214 c 256
 117 72 229 -23 385 -23 c 256
392 42 m 256
 265 42 195 120 195 212 c 256
 195 353 295 397 422 397 c 256
 505 397 600 382 687 369 c 257
 687 143 l 257
 569 71 470 42 392 42 c 256
EndSplineSet
EndChar

StartChar: acute
Encoding: 180 180 137
Width: 193
VWidth: 0
Flags: W
PickledData: "(dp1
S'com.typemytype.robofont.layerData'
p2
(dp3
S'b'
(dp4
S'name'
p5
S'acute'
p6
sS'lib'
p7
(dp8
sS'unicodes'
p9
(tsS'width'
p10
I193
sS'contours'
p11
(tsS'components'
p12
(tsS'anchors'
p13
(tsss."
AnchorPoint: "top" 96.5 804 mark 0
LayerCount: 2
Fore
SplineSet
8 903 m 257
 39 903 l 257
 193 1152 l 257
 67 1152 l 257
 8 903 l 257
EndSplineSet
EndChar

StartChar: ae
Encoding: 230 230 139
Width: 1638
VWidth: 0
Flags: W
PickledData: "(dp1
S'com.typemytype.robofont.layerData'
p2
(dp3
S'b'
(dp4
S'name'
p5
S'ae'
p6
sS'lib'
p7
(dp8
sS'unicodes'
p9
(tsS'width'
p10
I1638
sS'contours'
p11
(tsS'components'
p12
(tsS'anchors'
p13
(tsss."
AnchorPoint: "top" 819 804 basechar 0
LayerCount: 2
Fore
SplineSet
425 -14 m 256
 544 -14 693 0 820 116 c 257
 899 25 1006 -14 1137 -14 c 256
 1259 -14 1390 35 1507 149 c 257
 1474 204 l 257
 1384 105 1262 52 1140 52 c 256
 983.523 52 889.532 103.84 845.43 211.297 c 256
 824.708 261.788 815 324.559 815 400 c 257
 1506 400 l 257
 1506 648 1375 854 1156 854 c 256
 988 854 870 766 803 641 c 257
 780 746 702 854 497 854 c 256
 363 854 253 826 179 755 c 257
 215 696 l 257
 275 757 370 787 495 787 c 256
 642 787 733 736 733 575 c 257
 739 446 l 257
 658 462 579 475 502 475 c 256
 324 475 139 452 139 232 c 256
 139 101 232 -14 425 -14 c 256
435 53 m 256
 273 53 220 148 220 230 c 256
 220 407 377 410 498 410 c 256
 612 410 739 384 739 384 c 257
 739 326 760 224 790 164 c 257
 651 56 561 53 435 53 c 256
817 466 m 257
 826 623 939 787 1156 787 c 256
 1321 787 1415 632 1428 466 c 257
 817 466 l 257
EndSplineSet
EndChar

StartChar: ampersand
Encoding: 38 38 144
Width: 1120
VWidth: 0
Flags: W
PickledData: "(dp1
S'com.typemytype.robofont.layerData'
p2
(dp3
S'b'
(dp4
S'name'
p5
S'ampersand'
p6
sS'lib'
p7
(dp8
sS'unicodes'
p9
(tsS'width'
p10
I1120
sS'contours'
p11
(tsS'components'
p12
(tsS'anchors'
p13
(tsss."
LayerCount: 2
Fore
SplineSet
470 -23 m 256
 581 -23 696 -6 794 104 c 257
 889 -1 l 257
 1071 -1 l 257
 1071 62 l 257
 921 62 l 257
 842 158 l 257
 857 179 940 301 940 416 c 257
 1071 416 l 257
 1071 476 l 257
 887 476 l 257
 887 305 819 234 805 213 c 257
 479 631 l 257
 694 718 754 825 754 956 c 256
 754 1077 652 1172 488 1172 c 256
 325 1172 227 1073 227 954 c 256
 227 824 383 655 383 655 c 257
 165 584 102 471 102 301 c 256
 102 121 266 -23 470 -23 c 256
478 43 m 256
 292 43 170 173 170 312 c 256
 170 435 221 545 418 603 c 257
 757 157 l 257
 669 56 582 43 478 43 c 256
446 679 m 257
 446 679 295 843 295 952 c 256
 295 1045 382 1105 491 1105 c 256
 597 1105 683 1055 683 954 c 256
 683 832 641 755 446 679 c 257
EndSplineSet
EndChar

StartChar: apostrophemod
Encoding: 700 700 146
Width: 600
VWidth: 0
Flags: W
AnchorPoint: "top" 205 804 mark 0
LayerCount: 2
Fore
SplineSet
-8 856 m 257
 93 856 127 932 127 1030 c 258
 127 1152 l 257
 1 1152 l 257
 1 1032 l 257
 63 1032 l 257
 63 948 58 922 -8 900 c 257
 -8 856 l 257
EndSplineSet
EndChar

StartChar: approxequal
Encoding: 8776 8776 147
Width: 815
VWidth: 0
Flags: W
PickledData: "(dp1
S'com.typemytype.robofont.layerData'
p2
(dp3
S'b'
(dp4
S'name'
p5
S'approxequal'
p6
sS'lib'
p7
(dp8
sS'unicodes'
p9
(tsS'width'
p10
I815
sS'contours'
p11
(tsS'components'
p12
(tsS'anchors'
p13
(tsss."
LayerCount: 2
Fore
SplineSet
547 334 m 256
 619 334 662 383 671 465 c 257
 634 465 l 257
 624 410 597 391 560 391 c 256
 485 391 367 469 259 469 c 256
 196 469 145 430 135 340 c 257
 173 340 l 257
 182 395 207 413 241 413 c 256
 313 413 428 334 547 334 c 256
547 631 m 256
 619 631 662 680 671 762 c 257
 634 762 l 257
 624 707 597 688 560 688 c 256
 485 688 367 766 259 766 c 256
 196 766 145 727 135 637 c 257
 173 637 l 257
 182 692 207 710 241 710 c 256
 313 710 428 631 547 631 c 256
EndSplineSet
EndChar

StartChar: asciicircum
Encoding: 94 94 149
Width: 887
VWidth: 0
Flags: W
PickledData: "(dp1
S'com.typemytype.robofont.layerData'
p2
(dp3
S'b'
(dp4
S'name'
p5
S'asciicircum'
p6
sS'lib'
p7
(dp8
sS'unicodes'
p9
(tsS'width'
p10
I887
sS'contours'
p11
(tsS'components'
p12
(tsS'anchors'
p13
(tsss."
LayerCount: 2
Fore
SplineSet
61 761 m 257
 135 761 l 257
 449 1186 l 257
 750 761 l 257
 822 761 l 257
 492 1255 l 257
 407 1255 l 257
 61 761 l 257
EndSplineSet
EndChar

StartChar: asciitilde
Encoding: 126 126 150
Width: 809
VWidth: 0
Flags: W
PickledData: "(dp1
S'com.typemytype.robofont.layerData'
p2
(dp3
S'b'
(dp4
S'name'
p5
S'asciitilde'
p6
sS'lib'
p7
(dp8
sS'unicodes'
p9
(tsS'width'
p10
I809
sS'contours'
p11
(tsS'components'
p12
(tsS'anchors'
p13
(tsss."
LayerCount: 2
Fore
SplineSet
126 528 m 257
 164 528 l 257
 169 592 195 615 233 615 c 256
 319 615 468 498 573 498 c 256
 636 498 679 538 692 653 c 257
 655 653 l 257
 646 587 617 565 577 565 c 256
 487 565 342 677 240 677 c 256
 186 677 139 644 126 528 c 257
EndSplineSet
EndChar

StartChar: asterisk
Encoding: 42 42 151
Width: 939
VWidth: 0
Flags: W
PickledData: "(dp1
S'com.typemytype.robofont.layerData'
p2
(dp3
S'b'
(dp4
S'name'
p5
S'asterisk'
p6
sS'lib'
p7
(dp8
sS'unicodes'
p9
(tsS'width'
p10
I939
sS'contours'
p11
(tsS'components'
p12
(tsS'anchors'
p13
(tsss."
LayerCount: 2
Fore
SplineSet
249 415 m 257
 470 761 l 257
 690 415 l 257
 766 472 l 257
 497 785 l 257
 893 906 l 257
 862 992 l 257
 488 818 l 257
 520 1229 l 257
 419 1229 l 257
 452 818 l 257
 77 992 l 257
 46 906 l 257
 442 785 l 257
 173 472 l 257
 249 415 l 257
EndSplineSet
EndChar

StartChar: at
Encoding: 64 64 152
Width: 1396
VWidth: 0
Flags: W
PickledData: "(dp1
S'com.typemytype.robofont.layerData'
p2
(dp3
S'b'
(dp4
S'name'
p5
S'at'
p6
sS'lib'
p7
(dp8
sS'unicodes'
p9
(tsS'width'
p10
I1396
sS'contours'
p11
(tsS'components'
p12
(tsS'anchors'
p13
(tsss."
LayerCount: 2
Fore
SplineSet
758 -43 m 256
 934 -43 1056 -2 1158 75 c 257
 1124 122 l 257
 1029 54 911 22 758 22 c 256
 392 22 187 229 187 545 c 256
 187 873 419 1114 745 1114 c 256
 1051 1114 1221 905 1221 682 c 256
 1221 433 1039 301 968 301 c 256
 934 301 911 335 917 373 c 257
 1031 897 l 257
 950 897 l 257
 928 783 l 257
 880 880 792 916 714 916 c 256
 486 916 379 709 379 521 c 256
 379 332 498 233 614 233 c 256
 697 233 782 277 859 394 c 257
 836 276 900 233 945 233 c 256
 1118 233 1295 452 1295 682 c 256
 1295 930 1138 1180 749 1180 c 256
 333 1180 105 857 105 547 c 256
 105 245 311 -43 758 -43 c 256
647 295 m 256
 525 295 467 399 467 520 c 256
 467 671 549 851 703 851 c 256
 813 851 887 772 887 653 c 256
 887 483 779 295 647 295 c 256
EndSplineSet
EndChar

StartChar: backslash
Encoding: 92 92 155
Width: 438
VWidth: 0
Flags: W
PickledData: "(dp1
S'com.typemytype.robofont.layerData'
p2
(dp3
S'b'
(dp4
S'name'
p5
S'backslash'
p6
sS'lib'
p7
(dp8
sS'unicodes'
p9
(tsS'width'
p10
I438
sS'contours'
p11
(tsS'components'
p12
(tsS'anchors'
p13
(tsss."
LayerCount: 2
Fore
SplineSet
355 -23 m 257
 426 -23 l 257
 79 1172 l 257
 12 1172 l 257
 355 -23 l 257
EndSplineSet
EndChar

StartChar: bar
Encoding: 124 124 156
Width: 364
VWidth: 0
Flags: W
PickledData: "(dp1
S'com.typemytype.robofont.layerData'
p2
(dp3
S'b'
(dp4
S'name'
p5
S'bar'
p6
sS'lib'
p7
(dp8
sS'unicodes'
p9
(tsS'width'
p10
I364
sS'contours'
p11
(tsS'components'
p12
(tsS'anchors'
p13
(tsss."
LayerCount: 2
Fore
SplineSet
154 -23 m 257
 218 -23 l 257
 218 1172 l 257
 154 1172 l 257
 154 -23 l 257
EndSplineSet
EndChar

StartChar: braceleft
Encoding: 123 123 157
Width: 446
VWidth: 0
Flags: W
PickledData: "(dp1
S'com.typemytype.robofont.layerData'
p2
(dp3
S'b'
(dp4
S'name'
p5
S'braceleft'
p6
sS'lib'
p7
(dp8
sS'unicodes'
p9
(tsS'width'
p10
I446
sS'contours'
p11
(tsS'components'
p12
(tsS'anchors'
p13
(tsss."
LayerCount: 2
Fore
SplineSet
340 -23 m 258
 401 -23 l 257
 401 27 l 257
 269 27 238 53 238 212 c 256
 238 444 226 567 110 574 c 257
 226 581 238 705 238 937 c 256
 238 1097 269 1121 401 1121 c 257
 401 1172 l 257
 340 1172 l 258
 164 1172 159 1051 159 847 c 256
 159 671 159 614 21 614 c 257
 21 535 l 257
 152 535 159 484 159 323 c 256
 159 98 164 -23 340 -23 c 258
EndSplineSet
EndChar

StartChar: braceright
Encoding: 125 125 158
Width: 448
VWidth: 0
Flags: W
PickledData: "(dp1
S'com.typemytype.robofont.layerData'
p2
(dp3
S'b'
(dp4
S'name'
p5
S'braceright'
p6
sS'lib'
p7
(dp8
sS'unicodes'
p9
(tsS'width'
p10
I448
sS'contours'
p11
(tsS'components'
p12
(tsS'anchors'
p13
(tsss."
LayerCount: 2
Fore
SplineSet
45 -23 m 257
 106 -23 l 258
 283 -23 288 98 288 270 c 256
 288 479 288 535 425 535 c 257
 425 614 l 257
 295 614 288 665 288 878 c 256
 288 1051 283 1172 106 1172 c 258
 45 1172 l 257
 45 1121 l 257
 178 1121 208 1097 208 937 c 256
 208 705 221 581 336 574 c 257
 221 567 208 444 208 212 c 256
 208 53 178 27 45 27 c 257
 45 -23 l 257
EndSplineSet
EndChar

StartChar: bracketleft
Encoding: 91 91 159
Width: 390
VWidth: 0
Flags: W
PickledData: "(dp1
S'com.typemytype.robofont.layerData'
p2
(dp3
S'b'
(dp4
S'name'
p5
S'bracketleft'
p6
sS'lib'
p7
(dp8
sS'unicodes'
p9
(tsS'width'
p10
I390
sS'contours'
p11
(tsS'components'
p12
(tsS'anchors'
p13
(tsss."
LayerCount: 2
Fore
SplineSet
154 -145 m 257
 381 -145 l 257
 381 -86 l 257
 231 -86 l 257
 231 1152 l 257
 381 1152 l 257
 381 1210 l 257
 154 1210 l 257
 154 -145 l 257
EndSplineSet
EndChar

StartChar: bracketright
Encoding: 93 93 160
Width: 388
VWidth: 0
Flags: W
PickledData: "(dp1
S'com.typemytype.robofont.layerData'
p2
(dp3
S'b'
(dp4
S'name'
p5
S'bracketright'
p6
sS'lib'
p7
(dp8
sS'unicodes'
p9
(tsS'width'
p10
I388
sS'contours'
p11
(tsS'components'
p12
(tsS'anchors'
p13
(tsss."
LayerCount: 2
Fore
SplineSet
2 -145 m 257
 229 -145 l 257
 229 1210 l 257
 2 1210 l 257
 2 1152 l 257
 152 1152 l 257
 152 -86 l 257
 2 -86 l 257
 2 -145 l 257
EndSplineSet
EndChar

StartChar: breve
Encoding: 728 728 161
Width: 333
VWidth: 0
Flags: W
PickledData: "(dp1
S'com.typemytype.robofont.layerData'
p2
(dp3
S'b'
(dp4
S'name'
p5
S'breve'
p6
sS'lib'
p7
(dp8
sS'unicodes'
p9
(tsS'width'
p10
I333
sS'contours'
p11
(tsS'components'
p12
(tsS'anchors'
p13
(tsss."
AnchorPoint: "top" 166.5 804 mark 0
LayerCount: 2
Fore
SplineSet
169 936 m 256
 251 936 332 986 346 1086 c 257
 280 1086 l 257
 266 1025 218 996 169 996 c 256
 120 996 70 1026 56 1086 c 257
 -11 1086 l 257
 6 986 88 936 169 936 c 256
EndSplineSet
EndChar

StartChar: breveinvertedcomb
Encoding: 785 785 162
Width: 854
VWidth: 0
Flags: W
PickledData: "(dp1
S'com.typemytype.robofont.layerData'
p2
(dp3
S'b'
(dp4
S'name'
p5
S'uni0311'
p6
sS'lib'
p7
(dp8
sS'unicodes'
p9
(tsS'width'
p10
I854
sS'contours'
p11
(tsS'components'
p12
(tsS'anchors'
p13
(tsss."
AnchorPoint: "top" 434 804 mark 0
LayerCount: 2
Fore
SplineSet
251 936 m 257
 318 936 l 257
 332 996 382 1026 431 1026 c 256
 480 1026 528 997 542 936 c 257
 608 936 l 257
 594 1036 513 1086 431 1086 c 256
 350 1086 268 1036 251 936 c 257
EndSplineSet
EndChar

StartChar: brokenbar
Encoding: 166 166 163
Width: 414
VWidth: 0
Flags: W
PickledData: "(dp1
S'com.typemytype.robofont.layerData'
p2
(dp3
S'b'
(dp4
S'name'
p5
S'brokenbar'
p6
sS'lib'
p7
(dp8
sS'unicodes'
p9
(tsS'width'
p10
I414
sS'contours'
p11
(tsS'components'
p12
(tsS'anchors'
p13
(tsss."
LayerCount: 2
Fore
SplineSet
172 -24 m 257
 240 -24 l 257
 240 516 l 257
 172 516 l 257
 172 -24 l 257
172 715 m 257
 240 715 l 257
 240 1255 l 257
 172 1255 l 257
 172 715 l 257
EndSplineSet
EndChar

StartChar: bullet
Encoding: 8226 8226 164
Width: 708
VWidth: 0
Flags: W
PickledData: "(dp1
S'com.typemytype.robofont.layerData'
p2
(dp3
S'b'
(dp4
S'name'
p5
S'bullet'
p6
sS'lib'
p7
(dp8
sS'unicodes'
p9
(tsS'width'
p10
I708
sS'contours'
p11
(tsS'components'
p12
(tsS'anchors'
p13
(tsss."
LayerCount: 2
Fore
SplineSet
354 442 m 256
 487 442 595 546 595 674 c 256
 595 804 487 905 354 905 c 256
 220 905 114 804 114 674 c 256
 114 546 220 442 354 442 c 256
EndSplineSet
EndChar

StartChar: c
Encoding: 99 99 165
Width: 951
VWidth: 0
Flags: W
PickledData: "(dp1
S'com.typemytype.robofont.layerData'
p2
(dp3
S'b'
(dp4
S'name'
p5
S'c'
sS'lib'
p6
(dp7
sS'unicodes'
p8
(tsS'width'
p9
I951
sS'contours'
p10
((dp11
S'points'
p12
((dp13
S'y'
S'-14'
p14
sS'x'
I633
sS'smooth'
p15
I0
s(dp16
S'y'
I33
sS'x'
I758
sg15
I0
s(dp17
S'segmentType'
p18
S'curve'
p19
sS'x'
I868
sg15
I0
sS'y'
I142
s(dp20
g18
S'line'
p21
sS'x'
I845
sg15
I0
sS'y'
I213
s(dp22
S'y'
I105
sS'x'
I763
sg15
I0
s(dp23
S'y'
I51
sS'x'
I637
sg15
I0
s(dp24
g18
S'curve'
p25
sS'x'
I515
sg15
I1
sS'y'
I51
s(dp26
S'y'
I51
sS'x'
I316
sg15
I0
s(dp27
S'y'
I193
sS'x'
I169
sg15
I0
s(dp28
g18
S'curve'
p29
sS'x'
I169
sg15
I1
sS'y'
I406
s(dp30
S'y'
I630
sS'x'
I169
sg15
I0
s(dp31
S'y'
I755
sS'x'
I336
sg15
I0
s(dp32
g18
S'curve'
p33
sS'x'
I515
sg15
I1
sS'y'
I755
s(dp34
S'y'
I755
sS'x'
I705
sg15
I0
s(dp35
S'y'
I657
sS'x'
I768
sg15
I0
s(dp36
g18
S'curve'
p37
sS'x'
I776
sg15
I0
sS'y'
I570
s(dp38
g18
S'line'
p39
sS'x'
I840
sg15
I0
sS'y'
I570
s(dp40
g18
S'line'
p41
sS'x'
I840
sg15
I0
sS'y'
I825
s(dp42
g18
S'line'
p43
sS'x'
I767
sg15
I0
sS'y'
I825
s(dp44
g18
S'line'
p45
sS'x'
I767
sg15
I0
sS'y'
I714
s(dp46
S'y'
I764
sS'x'
I736
sg15
I0
s(dp47
S'y'
I819
sS'x'
I645
sg15
I0
s(dp48
g18
S'curve'
p49
sS'x'
I522
sg15
I1
sS'y'
I819
s(dp50
S'y'
I819
sS'x'
F268.96812951340218
sg15
I0
s(dp51
S'y'
I650
sS'x'
I90
sg15
I0
s(dp52
g18
S'curve'
p53
sS'x'
I90
sg15
I1
sS'y'
I406
s(dp54
S'y'
I145
sS'x'
I90
sg15
I0
s(dp55
S'y'
S'-14'
p56
sS'x'
I286
sg15
I0
s(dp57
g18
S'curve'
p58
sS'x'
I515
sg15
I1
sS'y'
S'-14'
p59
stp60
stp61
sS'components'
p62
(tsS'anchors'
p63
(tsss."
AnchorPoint: "top" 482 805 basechar 0
AnchorPoint: "bot" 455 0 basechar 0
LayerCount: 2
Fore
SplineSet
478 -14 m 256
 599 -14 728 34 842 142 c 257
 819 208 l 257
 711 99 591 51 481 51 c 256
 296 51 143 190 143 406 c 256
 143 653 323 757 486 757 c 256
 620 757 743 688 750 570 c 257
 814 570 l 257
 814 825 l 257
 741 825 l 257
 741 714 l 257
 685 783 588 819 483 819 c 256
 285 819 64 689 64 406 c 256
 64 150 255 -14 478 -14 c 256
EndSplineSet
EndChar

StartChar: caron
Encoding: 711 711 167
Width: 420
VWidth: 0
Flags: W
PickledData: "(dp1
S'com.typemytype.robofont.layerData'
p2
(dp3
S'b'
(dp4
S'name'
p5
S'caron'
p6
sS'lib'
p7
(dp8
sS'unicodes'
p9
(tsS'width'
p10
I420
sS'contours'
p11
(tsS'components'
p12
(tsS'anchors'
p13
(tsss."
AnchorPoint: "top" 210 804 mark 0
LayerCount: 2
Fore
SplineSet
160 922 m 257
 255 922 l 257
 401 1195 l 257
 312 1195 l 257
 208 971 l 257
 103 1195 l 257
 21 1195 l 257
 160 922 l 257
EndSplineSet
EndChar

StartChar: caron.alt
Encoding: 65539 -1 168
Width: 600
VWidth: 0
Flags: W
PickledData: "(dp1
S'com.typemytype.robofont.layerData'
p2
(dp3
S'b'
(dp4
S'name'
p5
S'caron.alt'
p6
sS'lib'
p7
(dp8
sS'unicodes'
p9
(tsS'width'
p10
I600
sS'contours'
p11
(tsS'components'
p12
(tsS'anchors'
p13
(tsss."
AnchorPoint: "caron.alt" 300 804 mark 0
LayerCount: 2
Fore
SplineSet
464 878 m 257
 565 878 599 954 599 1052 c 258
 599 1174 l 257
 473 1174 l 257
 473 1054 l 257
 535 1054 l 257
 535 970 530 944 464 922 c 257
 464 878 l 257
EndSplineSet
EndChar

StartChar: cedilla
Encoding: 184 184 173
Width: 381
VWidth: 0
Flags: W
PickledData: "(dp1
S'com.typemytype.robofont.layerData'
p2
(dp3
S'b'
(dp4
S'name'
p5
S'cedilla'
p6
sS'lib'
p7
(dp8
sS'unicodes'
p9
(tsS'width'
p10
I381
sS'contours'
p11
(tsS'components'
p12
(tsS'anchors'
p13
(tsss."
AnchorPoint: "bot" 190.5 0 mark 0
LayerCount: 2
Fore
SplineSet
200 -276 m 256
 279 -276 316 -236 316 -197 c 256
 316 -152 273 -108 192 -108 c 258
 180 -108 l 257
 219 6 l 257
 169 6 l 257
 111 -144 l 257
 126.644 -145.349 141.197 -147.57 154.109 -150.606 c 256
 189.068 -158.825 212 -173.013 212 -192 c 256
 212 -217 189 -224 163 -224 c 256
 132 -224 93 -214 80 -210 c 257
 80 -256 l 257
 108 -266 154 -276 200 -276 c 256
EndSplineSet
EndChar

StartChar: cent
Encoding: 162 162 174
Width: 951
VWidth: 0
Flags: W
PickledData: "(dp1
S'com.typemytype.robofont.layerData'
p2
(dp3
S'b'
(dp4
S'name'
p5
S'cent'
p6
sS'lib'
p7
(dp8
sS'unicodes'
p9
(tsS'width'
p10
I951
sS'contours'
p11
(tsS'components'
p12
(tsS'anchors'
p13
(tsss."
LayerCount: 2
Fore
SplineSet
323 -244 m 257
 690 1034 l 257
 632 1034 l 257
 260 -244 l 257
 323 -244 l 257
EndSplineSet
Refer: 165 99 N 1 0 0 1 0 0 2
EndChar

StartChar: circumflex
Encoding: 710 710 175
Width: 417
VWidth: 0
Flags: W
PickledData: "(dp1
S'com.typemytype.robofont.layerData'
p2
(dp3
S'b'
(dp4
S'name'
p5
S'circumflex'
p6
sS'lib'
p7
(dp8
sS'unicodes'
p9
(tsS'width'
p10
I417
sS'contours'
p11
(tsS'components'
p12
(tsS'anchors'
p13
(tsss."
AnchorPoint: "top" 208.5 804 mark 0
LayerCount: 2
Fore
SplineSet
19 922 m 257
 101 922 l 257
 206 1146 l 257
 310 922 l 257
 399 922 l 257
 253 1195 l 257
 158 1195 l 257
 19 922 l 257
EndSplineSet
EndChar

StartChar: colon
Encoding: 58 58 176
Width: 442
VWidth: 0
Flags: W
PickledData: "(dp1
S'com.typemytype.robofont.layerData'
p2
(dp3
S'b'
(dp4
S'name'
p5
S'colon'
p6
sS'lib'
p7
(dp8
sS'unicodes'
p9
(tsS'width'
p10
I442
sS'contours'
p11
(tsS'components'
p12
(tsS'anchors'
p13
(tsss."
LayerCount: 2
Fore
SplineSet
165 194 m 257
 282 194 l 257
 282 314 l 257
 165 314 l 257
 165 194 l 257
165 695 m 257
 282 695 l 257
 282 815 l 257
 165 815 l 257
 165 695 l 257
EndSplineSet
EndChar

StartChar: comma
Encoding: 44 44 177
Width: 399
VWidth: 0
Flags: W
PickledData: "(dp1
S'com.typemytype.robofont.layerData'
p2
(dp3
S'b'
(dp4
S'name'
p5
S'comma'
p6
sS'lib'
p7
(dp8
sS'unicodes'
p9
(tsS'width'
p10
I399
sS'contours'
p11
(tsS'components'
p12
(tsS'anchors'
p13
(tsss."
AnchorPoint: "bot" 199.5 0 mark 0
LayerCount: 2
Fore
SplineSet
152 -180 m 257
 253 -180 287 -104 287 -6 c 258
 287 116 l 257
 161 116 l 257
 161 -4 l 257
 223 -4 l 257
 223 -88 218 -114 152 -136 c 257
 152 -180 l 257
EndSplineSet
EndChar

StartChar: commaaccent
Encoding: 65540 -1 178
Width: 399
VWidth: 0
Flags: W
PickledData: "(dp1
S'com.typemytype.robofont.layerData'
p2
(dp3
S'b'
(dp4
S'name'
p5
S'commaaccent'
p6
sS'lib'
p7
(dp8
sS'unicodes'
p9
(tsS'width'
p10
I399
sS'contours'
p11
(tsS'components'
p12
(tsS'anchors'
p13
(tsss."
AnchorPoint: "caron" 3 -169 mark 0
AnchorPoint: "bot" 199.5 0 mark 0
LayerCount: 2
Fore
SplineSet
121 -399 m 257
 222 -399 256 -324 256 -225 c 258
 256 -103 l 257
 130 -103 l 257
 130 -223 l 257
 192 -223 l 257
 192 -307 187 -333 121 -355 c 257
 121 -399 l 257
EndSplineSet
EndChar

StartChar: commaturnedabovecomb
Encoding: 786 786 179
Width: 600
VWidth: 0
Flags: W
AnchorPoint: "top" 286 804 mark 0
LayerCount: 2
Fore
SplineSet
356 1302 m 257
 255 1302 221 1227 221 1128 c 258
 221 1006 l 257
 347 1006 l 257
 347 1126 l 257
 285 1126 l 257
 285 1210 290 1236 356 1258 c 257
 356 1302 l 257
EndSplineSet
EndChar

StartChar: copyright
Encoding: 169 169 180
Width: 1516
VWidth: 0
Flags: W
PickledData: "(dp1
S'com.typemytype.robofont.layerData'
p2
(dp3
S'b'
(dp4
S'name'
p5
S'copyright'
p6
sS'lib'
p7
(dp8
sS'unicodes'
p9
(tsS'width'
p10
I1516
sS'contours'
p11
(tsS'components'
p12
(tsS'anchors'
p13
(tsss."
LayerCount: 2
Fore
SplineSet
757 206 m 256
 860 206 974 247 1070 344 c 257
 1048 413 l 257
 976 318 865 270 760 270 c 256
 605 270 463 384 463 565 c 256
 463 770 607 875 760 875 c 256
 923 875 976 793 985 719 c 257
 1046 719 l 257
 1046 942 l 257
 975 942 l 257
 975 860 l 257
 945 902 867 937 760 937 c 256
 529 932 387 780 387 567 c 256
 387 350 563 209 757 206 c 256
758 -58 m 256
 1187 -58 1400 261 1400 581 c 256
 1400 902 1185 1223 758 1223 c 256
 333 1223 116 902 116 581 c 256
 116 261 331 -58 758 -58 c 256
758 -1 m 256
 374 -1 188 283 188 582 c 256
 188 869 379 1164 758 1164 c 256
 1133 1164 1329 869 1329 582 c 256
 1329 293 1135 -1 758 -1 c 256
EndSplineSet
EndChar

StartChar: currency
Encoding: 164 164 181
Width: 1068
VWidth: 0
Flags: W
PickledData: "(dp1
S'com.typemytype.robofont.layerData'
p2
(dp3
S'b'
(dp4
S'name'
p5
S'currency'
p6
sS'lib'
p7
(dp8
sS'unicodes'
p9
(tsS'width'
p10
I1068
sS'contours'
p11
(tsS'components'
p12
(tsS'anchors'
p13
(tsss."
LayerCount: 2
Fore
SplineSet
230 598 m 257
 319 692 l 257
 391 649 463 629 533 629 c 256
 607 629 680 651 755 694 c 257
 843 597 l 257
 891 642 l 257
 795 737 l 257
 852 815 880 900 880 984 c 256
 880 1068 852 1152 795 1227 c 257
 891 1322 l 257
 843 1367 l 257
 755 1270 l 257
 676 1313 603 1335 529 1335 c 256
 460 1335 390 1314 319 1272 c 257
 230 1366 l 257
 178 1322 l 257
 271 1229 l 257
 211 1158 181 1067 181 978 c 256
 181 890 211 802 271 735 c 257
 178 642 l 257
 230 598 l 257
531 689 m 256
 389 689 248 790 248 982 c 256
 248 1174 389 1275 531 1275 c 256
 675 1275 820 1178 820 982 c 256
 820 786 675 689 531 689 c 256
EndSplineSet
EndChar

StartChar: dagger
Encoding: 8224 8224 183
Width: 522
VWidth: 0
Flags: W
PickledData: "(dp1
S'com.typemytype.robofont.layerData'
p2
(dp3
S'b'
(dp4
S'name'
p5
S'dagger'
p6
sS'lib'
p7
(dp8
sS'unicodes'
p9
(tsS'width'
p10
I522
sS'contours'
p11
(tsS'components'
p12
(tsS'anchors'
p13
(tsss."
LayerCount: 2
Fore
SplineSet
242 2 m 257
 282 2 l 257
 282 227 308 406 308 593 c 256
 308 686 302 782 282 887 c 257
 509 862 l 257
 509 941 l 257
 282 923 l 257
 315 1210 l 257
 209 1210 l 257
 242 923 l 257
 12 941 l 257
 12 862 l 257
 242 887 l 257
 222 780 216 684 216 590 c 256
 216 404 242 229 242 2 c 257
EndSplineSet
EndChar

StartChar: daggerdbl
Encoding: 8225 8225 184
Width: 536
VWidth: 0
Flags: W
PickledData: "(dp1
S'com.typemytype.robofont.layerData'
p2
(dp3
S'b'
(dp4
S'name'
p5
S'daggerdbl'
p6
sS'lib'
p7
(dp8
sS'unicodes'
p9
(tsS'width'
p10
I536
sS'contours'
p11
(tsS'components'
p12
(tsS'anchors'
p13
(tsss."
LayerCount: 2
Fore
SplineSet
216 -24 m 257
 322 -24 l 257
 289 263 l 257
 516 245 l 257
 516 324 l 257
 289 299 l 257
 298 349 303 467 303 587 c 256
 303 709 298 834 289 887 c 257
 516 862 l 257
 516 941 l 257
 289 923 l 257
 322 1210 l 257
 216 1210 l 257
 249 923 l 257
 19 941 l 257
 19 862 l 257
 249 887 l 257
 239 835 235 714 235 593 c 256
 235 472 239 350 249 299 c 257
 19 324 l 257
 19 245 l 257
 249 263 l 257
 216 -24 l 257
EndSplineSet
EndChar

StartChar: dblgravecmb
Encoding: 783 783 185
Width: 627
VWidth: 0
Flags: W
PickledData: "(dp1
S'com.typemytype.robofont.layerData'
p2
(dp3
S'b'
(dp4
S'name'
p5
S'uni030F'
p6
sS'lib'
p7
(dp8
sS'unicodes'
p9
(tsS'width'
p10
I627
sS'contours'
p11
(tsS'components'
p12
(tsS'anchors'
p13
(tsss."
AnchorPoint: "top" 406 804 mark 0
LayerCount: 2
Fore
SplineSet
257 903 m 257
 288 903 l 257
 229 1152 l 257
 103 1152 l 257
 257 903 l 257
467 903 m 257
 498 903 l 257
 439 1152 l 257
 313 1152 l 257
 467 903 l 257
EndSplineSet
EndChar

StartChar: degree
Encoding: 176 176 188
Width: 845
VWidth: 0
Flags: W
PickledData: "(dp1
S'com.typemytype.robofont.layerData'
p2
(dp3
S'b'
(dp4
S'name'
p5
S'degree'
p6
sS'lib'
p7
(dp8
sS'unicodes'
p9
(tsS'width'
p10
I845
sS'contours'
p11
(tsS'components'
p12
(tsS'anchors'
p13
(tsss."
LayerCount: 2
Fore
SplineSet
423 720 m 256
 567 720 675 820 675 953 c 256
 675 1086 567 1186 423 1186 c 256
 279 1186 171 1086 171 953 c 256
 171 820 279 720 423 720 c 256
423 777 m 256
 317 777 238 852 238 953 c 256
 238 1054 317 1129 423 1129 c 256
 529 1129 608 1054 608 953 c 256
 608 852 529 777 423 777 c 256
EndSplineSet
EndChar

StartChar: dieresis
Encoding: 168 168 189
Width: 374
VWidth: 0
Flags: W
PickledData: "(dp1
S'com.typemytype.robofont.layerData'
p2
(dp3
S'b'
(dp4
S'name'
p5
S'dieresis'
p6
sS'lib'
p7
(dp8
sS'unicodes'
p9
(tsS'width'
p10
I374
sS'contours'
p11
(tsS'components'
p12
(tsS'anchors'
p13
(tsss."
AnchorPoint: "top" 187 804 mark 0
LayerCount: 2
Fore
SplineSet
46 937 m 256
 90 937 110 969 110 998 c 256
 110 1029 90 1059 46 1059 c 256
 3 1059 -17 1029 -17 998 c 256
 -17 969 3 937 46 937 c 256
323 937 m 256
 367 937 387 969 387 998 c 256
 387 1029 367 1059 323 1059 c 256
 280 1059 260 1029 260 998 c 256
 260 969 280 937 323 937 c 256
EndSplineSet
EndChar

StartChar: divide
Encoding: 247 247 190
Width: 673
VWidth: 0
Flags: W
PickledData: "(dp1
S'com.typemytype.robofont.layerData'
p2
(dp3
S'b'
(dp4
S'name'
p5
S'divide'
p6
sS'lib'
p7
(dp8
sS'unicodes'
p9
(tsS'width'
p10
I673
sS'contours'
p11
(tsS'components'
p12
(tsS'anchors'
p13
(tsss."
LayerCount: 2
Fore
SplineSet
280 256 m 257
 396 256 l 257
 396 376 l 257
 280 376 l 257
 280 256 l 257
32 513 m 257
 641 513 l 257
 641 575 l 257
 32 575 l 257
 32 513 l 257
280 705 m 257
 396 705 l 257
 396 825 l 257
 280 825 l 257
 280 705 l 257
EndSplineSet
EndChar

StartChar: dollar
Encoding: 36 36 191
Width: 1144
VWidth: 0
Flags: W
PickledData: "(dp1
S'com.typemytype.robofont.layerData'
p2
(dp3
S'b'
(dp4
S'name'
p5
S'dollar'
p6
sS'lib'
p7
(dp8
sS'unicodes'
p9
(tsS'width'
p10
I1144
sS'contours'
p11
(tsS'components'
p12
(tsS'anchors'
p13
(tsss."
LayerCount: 2
Fore
SplineSet
576 -190 m 257
 632 -190 l 257
 632 1316 l 257
 576 1316 l 257
 576 -190 l 257
EndSplineSet
Refer: 94 83 N 1 0 0 1 0 0 2
EndChar

StartChar: dotaccent
Encoding: 729 729 192
Width: 126
VWidth: 0
Flags: W
PickledData: "(dp1
S'com.typemytype.robofont.layerData'
p2
(dp3
S'b'
(dp4
S'name'
p5
S'dotaccent'
p6
sS'lib'
p7
(dp8
sS'unicodes'
p9
(tsS'width'
p10
I126
sS'contours'
p11
(tsS'components'
p12
(tsS'anchors'
p13
(tsss."
AnchorPoint: "top" 62 805 mark 0
LayerCount: 2
Fore
SplineSet
60 985 m 256
 107 985 129 1017 129 1046 c 256
 129 1077 107 1107 60 1107 c 256
 17 1107 -5 1077 -5 1046 c 256
 -5 1017 17 985 60 985 c 256
EndSplineSet
EndChar

StartChar: dotlessi
Encoding: 305 305 194
Width: 536
VWidth: 0
Flags: W
PickledData: "(dp1
S'com.typemytype.robofont.layerData'
p2
(dp3
S'b'
(dp4
S'name'
p5
S'dotlessi'
p6
sS'lib'
p7
(dp8
sS'unicodes'
p9
(tsS'width'
p10
I536
sS'contours'
p11
(tsS'components'
p12
(tsS'anchors'
p13
(tsss."
AnchorPoint: "top" 306 805 basechar 0
AnchorPoint: "ogonek" 314 0 basechar 0
LayerCount: 2
Fore
SplineSet
101 0 m 257
 516 0 l 257
 516 58 l 257
 351 58 l 257
 351 804 l 257
 102 804 l 257
 102 749 l 257
 275 749 l 257
 275 58 l 257
 101 58 l 257
 101 0 l 257
EndSplineSet
EndChar

StartChar: dotlessj
Encoding: 567 567 195
Width: 444
VWidth: 0
Flags: W
PickledData: "(dp1
S'com.typemytype.robofont.layerData'
p2
(dp3
S'b'
(dp4
S'name'
p5
S'uni0237'
p6
sS'lib'
p7
(dp8
sS'unicodes'
p9
(tsS'width'
p10
I444
sS'contours'
p11
(tsS'components'
p12
(tsS'anchors'
p13
(tsss."
AnchorPoint: "top" 273 804 basechar 0
LayerCount: 2
Fore
SplineSet
28 -258 m 257
 105 -258 l 258
 310 -258 310 -135 310 -19 c 258
 310 805 l 257
 66 805 l 257
 66 750 l 257
 234 750 l 257
 234 -30 l 258
 234 -141 234 -200 103 -200 c 258
 28 -200 l 257
 28 -258 l 257
EndSplineSet
EndChar

StartChar: e
Encoding: 101 101 196
Width: 966
VWidth: 0
Flags: W
PickledData: "(dp1
S'com.typemytype.robofont.layerData'
p2
(dp3
S'b'
(dp4
S'name'
p5
S'e'
sS'lib'
p6
(dp7
sS'unicodes'
p8
(tsS'width'
p9
I966
sS'contours'
p10
((dp11
S'points'
p12
((dp13
S'segmentType'
p14
S'line'
p15
sS'x'
I171
sS'smooth'
p16
I0
sS'y'
I442
s(dp17
S'y'
I592
sS'x'
I182
sg16
I0
s(dp18
S'y'
I755
sS'x'
I296
sg16
I0
s(dp19
g14
S'curve'
p20
sS'x'
I507
sg16
I1
sS'y'
I755
s(dp21
S'y'
I755
sS'x'
I699
sg16
I0
s(dp22
S'y'
I616
sS'x'
I803
sg16
I0
s(dp23
g14
S'curve'
p24
sS'x'
I820
sg16
I0
sS'y'
I442
stp25
s(dp26
g12
((dp27
g14
S'line'
p28
sS'x'
I890
sg16
I0
sS'y'
I383
s(dp29
S'y'
I601
sS'x'
I889
sg16
I0
s(dp30
S'y'
I819
sS'x'
F778.76831688899995
sg16
I0
s(dp31
g14
S'curve'
p32
sS'x'
I502
sg16
I1
sS'y'
I819
s(dp33
S'y'
I819
sS'x'
I232
sg16
I0
s(dp34
S'y'
I618
sS'x'
I90
sg16
I0
s(dp35
g14
S'curve'
p36
sS'x'
I90
sg16
I1
sS'y'
I403
s(dp37
S'y'
I150
sS'x'
I90
sg16
I0
s(dp38
S'y'
S'-14'
p39
sS'x'
I284
sg16
I0
s(dp40
g14
S'curve'
p41
sS'x'
I511
sg16
I1
sS'y'
S'-14'
p42
s(dp43
S'y'
S'-14'
p44
sS'x'
I657
sg16
I0
s(dp45
S'y'
I34
sS'x'
I761
sg16
I0
s(dp46
g14
S'curve'
p47
sS'x'
I868
sg16
I0
sS'y'
I139
s(dp48
g14
S'line'
p49
sS'x'
I836
sg16
I0
sS'y'
I197
s(dp50
S'y'
I103
sS'x'
I747
sg16
I0
s(dp51
S'y'
I50
sS'x'
I652
sg16
I0
s(dp52
g14
S'curve'
p53
sS'x'
I515
sg16
I1
sS'y'
I50
s(dp54
S'y'
I50
sS'x'
I347
sg16
I0
s(dp55
S'y'
I162
sS'x'
I182
sg16
I0
s(dp56
g14
S'curve'
p57
sS'x'
I169
sg16
I0
sS'y'
I383
stp58
stp59
sS'components'
p60
(tsS'anchors'
p61
(tsss."
AnchorPoint: "bot" 483 0 basechar 0
AnchorPoint: "top" 484 805 basechar 0
AnchorPoint: "ogonek" 561 0 basechar 0
LayerCount: 2
Fore
SplineSet
488 -14 m 256
 613 -14 742 35 842 139 c 257
 810 197 l 257
 728 100 607 50 491 50 c 256
 318 50 155 159 144 383 c 257
 864 383 l 257
 858 693 672 819 471 819 c 256
 269 819 64 675 64 403 c 256
 64 138 268 -14 488 -14 c 256
144 442 m 257
 160 643 321 755 479 755 c 256
 627 755 772 657 794 442 c 257
 144 442 l 257
EndSplineSet
EndChar

StartChar: eight
Encoding: 56 56 204
Width: 1108
VWidth: 0
Flags: W
PickledData: "(dp1
S'com.typemytype.robofont.layerData'
p2
(dp3
S'b'
(dp4
S'name'
p5
S'eight'
p6
sS'lib'
p7
(dp8
sS'unicodes'
p9
(tsS'width'
p10
I1108
sS'contours'
p11
(tsS'components'
p12
(tsS'anchors'
p13
(tsss."
LayerCount: 2
Fore
SplineSet
554 -24 m 256
 745 -24 939 78 939 296 c 256
 939 444 841 570 688 601 c 257
 826 637 902 762 902 875 c 256
 902 1024 780 1172 555 1172 c 256
 329 1172 208 1024 208 875 c 256
 208 762 273 645 421 601 c 257
 269 570 170 444 170 296 c 256
 170 79 360 -24 554 -24 c 256
554 44 m 256
 402 44 248 128 248 300 c 256
 248 427 353 555 555 556 c 256
 757 555 860 427 860 300 c 256
 860 131 708 44 554 44 c 256
555 633 m 256
 377 633 287 757 287 875 c 256
 287 991 376 1104 555 1104 c 256
 733 1104 821 991 821 875 c 256
 821 757 731 633 555 633 c 256
EndSplineSet
EndChar

StartChar: ellipsis
Encoding: 8230 8230 205
Width: 966
VWidth: 0
Flags: W
PickledData: "(dp1
S'com.typemytype.robofont.layerData'
p2
(dp3
S'b'
(dp4
S'name'
p5
S'ellipsis'
p6
sS'lib'
p7
(dp8
sS'unicodes'
p9
(tsS'width'
p10
I966
sS'contours'
p11
(tsS'components'
p12
(tsS'anchors'
p13
(tsss."
LayerCount: 2
Fore
SplineSet
165 0 m 257
 281 0 l 257
 281 120 l 257
 165 120 l 257
 165 0 l 257
425 0 m 257
 542 0 l 257
 542 120 l 257
 425 120 l 257
 425 0 l 257
686 0 m 257
 802 0 l 257
 802 120 l 257
 686 120 l 257
 686 0 l 257
EndSplineSet
EndChar

StartChar: emdash
Encoding: 8212 8212 207
Width: 1406
VWidth: 0
Flags: W
PickledData: "(dp1
S'com.typemytype.robofont.layerData'
p2
(dp3
S'b'
(dp4
S'name'
p5
S'emdash'
p6
sS'lib'
p7
(dp8
sS'unicodes'
p9
(tsS'width'
p10
I1406
sS'contours'
p11
(tsS'components'
p12
(tsS'anchors'
p13
(tsss."
LayerCount: 2
Fore
SplineSet
165 545 m 257
 1242 545 l 257
 1242 605 l 257
 165 605 l 257
 165 545 l 257
EndSplineSet
EndChar

StartChar: emptyset
Encoding: 8709 8709 208
Width: 1417
VWidth: 0
Flags: W
LayerCount: 2
Fore
SplineSet
149 19 m 257
 1307 1104 l 257
 1279 1132 l 257
 119 50 l 257
 149 19 l 257
EndSplineSet
Refer: 75 79 N 1 0 0 1 0 0 2
EndChar

StartChar: endash
Encoding: 8211 8211 209
Width: 1045
VWidth: 0
Flags: W
PickledData: "(dp1
S'com.typemytype.robofont.layerData'
p2
(dp3
S'b'
(dp4
S'name'
p5
S'endash'
p6
sS'lib'
p7
(dp8
sS'unicodes'
p9
(tsS'width'
p10
I1045
sS'contours'
p11
(tsS'components'
p12
(tsS'anchors'
p13
(tsss."
LayerCount: 2
Fore
SplineSet
165 470 m 257
 881 470 l 257
 881 530 l 257
 165 530 l 257
 165 470 l 257
EndSplineSet
EndChar

StartChar: eng
Encoding: 331 331 210
Width: 1056
VWidth: 0
Flags: W
LayerCount: 2
Fore
SplineSet
276 693 m 257
 276 633 l 257
 423 726 540 764 626 764 c 256
 747 764 807 688 807 579 c 258
 807 -44 l 258
 807 -215 700 -312 503 -312 c 257
 500 -375 l 257
 728 -375 883 -267 883 -27 c 258
 883 578 l 258
 883 742 782 826 637 826 c 256
 532 826 405 782 276 693 c 257
EndSplineSet
Refer: 276 -1 N 1 0 0 1 -41 0 2
EndChar

StartChar: equal
Encoding: 61 61 212
Width: 917
VWidth: 0
Flags: W
PickledData: "(dp1
S'com.typemytype.robofont.layerData'
p2
(dp3
S'b'
(dp4
S'name'
p5
S'equal'
p6
sS'lib'
p7
(dp8
sS'unicodes'
p9
(tsS'width'
p10
I917
sS'contours'
p11
(tsS'components'
p12
(tsS'anchors'
p13
(tsss."
LayerCount: 2
Fore
SplineSet
164 356 m 257
 753 356 l 257
 753 419 l 257
 164 419 l 257
 164 356 l 257
164 634 m 257
 753 634 l 257
 753 696 l 257
 164 696 l 257
 164 634 l 257
EndSplineSet
EndChar

StartChar: estimated
Encoding: 8494 8494 213
Width: 992
VWidth: 0
Flags: W
LayerCount: 2
Fore
SplineSet
521 -14 m 256
 669 -14 783 52 868 139 c 257
 840 171 l 257
 772 90 661 30 524 30 c 256
 331 30 194 184 187 393 c 257
 869 393 l 257
 869 642.053 704 819 497 819 c 256
 264 819 106 641 106 403 c 256
 106 165 279 -14 521 -14 c 256
187 430 m 257
 195 634 318 785 501 785 c 256
 671 785 808 633 820 430 c 257
 187 430 l 257
EndSplineSet
EndChar

StartChar: eth
Encoding: 240 240 214
Width: 920
VWidth: 0
Flags: W
PickledData: "(dp1
S'com.typemytype.robofont.layerData'
p2
(dp3
S'b'
(dp4
S'name'
p5
S'eth'
p6
sS'lib'
p7
(dp8
sS'unicodes'
p9
(tsS'width'
p10
I920
sS'contours'
p11
(tsS'components'
p12
(tsS'anchors'
p13
(tsss."
LayerCount: 2
Fore
SplineSet
452 -23 m 256
 662 -23 839 129 839 391 c 256
 839 769 455 1113 159 1351 c 257
 114 1301 l 257
 328 1133 560 947 691 690 c 257
 619 760 515 796 436 796 c 256
 230 796 53 632 53 421 c 256
 53 193 191 -23 452 -23 c 256
452 42 m 256
 235 42 129 224 129 404 c 256
 129 625 288 735 447 735 c 256
 607 735 768 622 768 394 c 256
 768 216 666 42 452 42 c 256
172 904 m 257
 743 1152 l 257
 714 1202 l 257
 144 957 l 257
 172 904 l 257
EndSplineSet
EndChar

StartChar: exclam
Encoding: 33 33 215
Width: 240
VWidth: 0
Flags: W
PickledData: "(dp1
S'com.typemytype.robofont.layerData'
p2
(dp3
S'b'
(dp4
S'name'
p5
S'exclam'
p6
sS'lib'
p7
(dp8
sS'unicodes'
p9
(tsS'width'
p10
I240
sS'contours'
p11
(tsS'components'
p12
(tsS'anchors'
p13
(tsss."
LayerCount: 2
Fore
SplineSet
106 322 m 257
 135 322 l 257
 162 756 l 257
 162 1155 l 257
 79 1155 l 257
 79 756 l 257
 106 322 l 257
72 0 m 257
 168 0 l 257
 168 99 l 257
 72 99 l 257
 72 0 l 257
EndSplineSet
EndChar

StartChar: f
Encoding: 102 102 217
Width: 661
VWidth: 0
Flags: W
PickledData: "(dp1
S'com.typemytype.robofont.layerData'
p2
(dp3
S'b'
(dp4
S'name'
p5
S'f'
sS'lib'
p6
(dp7
sS'unicodes'
p8
(tsS'width'
p9
I661
sS'contours'
p10
(tsS'components'
p11
(tsS'anchors'
p12
(tsss."
AnchorPoint: "top" 306 1086 basechar 0
LayerCount: 2
Fore
SplineSet
104 0 m 257
 512 0 l 257
 512 58 l 257
 328 58 l 257
 328 750 l 257
 545 750 l 257
 545 804 l 257
 328 804 l 257
 328 1009 l 258
 328 1084 381 1125 432 1125 c 256
 480 1125 533 1109 546 1023 c 257
 599 1043 l 257
 584 1151 513 1185 429 1185 c 256
 342 1185 252 1123 252 1007 c 258
 252 804 l 257
 104 804 l 257
 104 750 l 257
 252 750 l 257
 252 58 l 257
 104 58 l 257
 104 0 l 257
EndSplineSet
EndChar

StartChar: ff
Encoding: 64256 64256 218
Width: 1221
VWidth: 0
Flags: W
PickledData: "(dp1
S'com.typemytype.robofont.layerData'
p2
(dp3
S'b'
(dp4
S'name'
p5
S'ff'
p6
sS'lib'
p7
(dp8
sS'unicodes'
p9
(tsS'width'
p10
I1221
sS'contours'
p11
(tsS'components'
p12
(tsS'anchors'
p13
(tsss."
LayerCount: 2
Fore
SplineSet
664 0 m 257
 1072 0 l 257
 1072 58 l 257
 888 58 l 257
 888 750 l 257
 1105 750 l 257
 1105 805 l 257
 888 805 l 257
 888 1009 l 258
 888 1084 941 1125 992 1125 c 256
 1040 1125 1093 1109 1106 1023 c 257
 1159 1043 l 257
 1144 1151 1073 1185 989 1185 c 256
 902 1185 812 1123 812 1007 c 258
 812 805 l 257
 493 805 l 257
 493 750 l 257
 812 750 l 257
 812 58 l 257
 664 58 l 257
 664 0 l 257
EndSplineSet
Refer: 217 102 N 1 0 0 1 0 0 2
EndChar

StartChar: ffi
Encoding: 64259 64259 219
Width: 1723
VWidth: 0
Flags: W
PickledData: "(dp1
S'com.typemytype.robofont.layerData'
p2
(dp3
S'b'
(dp4
S'name'
p5
S'ffi'
p6
sS'lib'
p7
(dp8
sS'unicodes'
p9
(tsS'width'
p10
I1723
sS'contours'
p11
(tsS'components'
p12
(tsS'anchors'
p13
(tsss."
LayerCount: 2
Fore
SplineSet
190 0 m 257
 598 0 l 257
 598 58 l 257
 414 58 l 257
 414 750 l 257
 831 750 l 257
 831 804 l 257
 414 804 l 257
 414 989 l 258
 414 1079.33 530.914 1148.51 684.335 1144.12 c 256
 773.791 1141.56 875.659 1113.98 974 1051 c 257
 1015 1089 l 257
 902.091 1169.32 777.553 1205.43 666.408 1207.44 c 256
 484.21 1210.74 338 1122.4 338 987 c 258
 338 804 l 257
 190 804 l 257
 190 750 l 257
 338 750 l 257
 338 58 l 257
 190 58 l 257
 190 0 l 257
EndSplineSet
Refer: 221 64257 N 1 0 0 1 661 0 2
EndChar

StartChar: ffl
Encoding: 64260 64260 220
Width: 1793
VWidth: 0
Flags: W
PickledData: "(dp1
S'com.typemytype.robofont.layerData'
p2
(dp3
S'b'
(dp4
S'name'
p5
S'ffl'
p6
sS'lib'
p7
(dp8
sS'unicodes'
p9
(tsS'width'
p10
I1793
sS'contours'
p11
(tsS'components'
p12
(tsS'anchors'
p13
(tsss."
LayerCount: 2
Fore
SplineSet
104 0 m 257
 512 0 l 257
 512 58 l 257
 328 58 l 257
 328 750 l 257
 745 750 l 257
 745 804 l 257
 328 804 l 257
 328 989 l 258
 328 1132 621 1222 888 1051 c 257
 929 1089 l 257
 631 1301 252 1205 252 987 c 258
 252 804 l 257
 104 804 l 257
 104 750 l 257
 252 750 l 257
 252 58 l 257
 104 58 l 257
 104 0 l 257
EndSplineSet
Refer: 224 64258 N 1 0 0 1 584 0 2
EndChar

StartChar: fi
Encoding: 64257 64257 221
Width: 1074
VWidth: 0
Flags: W
PickledData: "(dp1
S'com.typemytype.robofont.layerData'
p2
(dp3
S'b'
(dp4
S'name'
p5
S'fi'
p6
sS'lib'
p7
(dp8
sS'unicodes'
p9
(tsS'width'
p10
I1074
sS'contours'
p11
(tsS'components'
p12
(tsS'anchors'
p13
(tsss."
LayerCount: 2
Fore
SplineSet
104 0 m 257
 529 0 l 257
 529 60 l 257
 338 60 l 257
 338 750 l 257
 822 750 l 257
 822 60 l 257
 672 60 l 257
 672 0 l 257
 1054 0 l 257
 1054 60 l 257
 901 60 l 257
 901 804 l 257
 338 804 l 257
 338 940 l 258
 338 1077 495 1154 638 1154 c 256
 708 1154 775 1136 820 1098 c 257
 802 1088 792 1068 792 1049 c 256
 792 1022 817 993 859 993 c 256
 896 993 921 1024 921 1058 c 256
 921 1167 765 1216 636 1216 c 256
 457 1216 259 1113 259 938 c 258
 259 804 l 257
 104 804 l 257
 104 750 l 257
 259 750 l 257
 259 60 l 257
 104 60 l 257
 104 0 l 257
EndSplineSet
EndChar

StartChar: five
Encoding: 53 53 222
Width: 1108
VWidth: 0
Flags: W
PickledData: "(dp1
S'com.typemytype.robofont.layerData'
p2
(dp3
S'b'
(dp4
S'name'
p5
S'five'
p6
sS'lib'
p7
(dp8
sS'unicodes'
p9
(tsS'width'
p10
I1108
sS'contours'
p11
(tsS'components'
p12
(tsS'anchors'
p13
(tsss."
LayerCount: 2
Fore
SplineSet
576 -18 m 256
 803 -18 955 131 955 354 c 256
 955 575 811 722 596 722 c 256
 503 722 395 691 329 621 c 257
 337 1086 l 257
 834 1086 l 257
 834 883 l 257
 904 883 l 257
 904 1152 l 257
 263 1152 l 257
 263 581 l 257
 322 548 l 257
 408 626 494 657 606 657 c 256
 768 657 876 537 876 358 c 256
 876 172 756 48 575 48 c 256
 445 48 349 90 274 204 c 257
 230 153 l 257
 321 30 429 -18 576 -18 c 256
EndSplineSet
EndChar

StartChar: fj
Encoding: 0 0 223
Width: 1064
VWidth: 0
Flags: W
PickledData: "(dp1
S'com.typemytype.robofont.layerData'
p2
(dp3
S'b'
(dp4
S'name'
p5
S'fj'
p6
sS'lib'
p7
(dp8
sS'unicodes'
p9
(tsS'width'
p10
I1064
sS'contours'
p11
(tsS'components'
p12
(tsS'anchors'
p13
(tsss."
LayerCount: 2
Fore
SplineSet
646 -258 m 257
 723 -258 l 258
 928 -258 928 -135 928 -19 c 258
 928 804 l 257
 445 804 l 257
 445 750 l 257
 852 750 l 257
 852 -30 l 258
 852 -141 852 -200 721 -200 c 258
 646 -200 l 257
 646 -258 l 257
881 1030 m 256
 928 1030 950 1062 950 1091 c 256
 950 1122 928 1152 881 1152 c 256
 838 1152 816 1122 816 1091 c 256
 816 1062 838 1030 881 1030 c 256
EndSplineSet
Refer: 217 102 N 1 0 0 1 0 0 2
EndChar

StartChar: fl
Encoding: 64258 64258 224
Width: 1209
VWidth: 0
Flags: W
PickledData: "(dp1
S'com.typemytype.robofont.layerData'
p2
(dp3
S'b'
(dp4
S'name'
p5
S'fl'
p6
sS'lib'
p7
(dp8
sS'unicodes'
p9
(tsS'width'
p10
I1209
sS'contours'
p11
(tsS'components'
p12
(tsS'anchors'
p13
(tsss."
LayerCount: 2
Fore
SplineSet
104 0 m 257
 529 0 l 257
 529 60 l 257
 338 60 l 257
 338 750 l 257
 541 750 l 257
 541 804 l 257
 338 804 l 257
 338 951 l 258
 338 1109 505 1176 651 1176 c 256
 763 1176 862 1149 862 1109 c 258
 862 60 l 257
 676 60 l 257
 676 0 l 257
 1125 0 l 257
 1125 60 l 257
 942 60 l 257
 942 1109 l 258
 942 1196 804 1239 652 1239 c 256
 466 1239 259 1149 259 948 c 258
 259 804 l 257
 104 804 l 257
 104 750 l 257
 259 750 l 257
 259 60 l 257
 104 60 l 257
 104 0 l 257
EndSplineSet
EndChar

StartChar: florin
Encoding: 402 402 225
Width: 767
VWidth: 0
Flags: W
PickledData: "(dp1
S'com.typemytype.robofont.layerData'
p2
(dp3
S'b'
(dp4
S'name'
p5
S'florin'
p6
sS'lib'
p7
(dp8
sS'unicodes'
p9
(tsS'width'
p10
I767
sS'contours'
p11
(tsS'components'
p12
(tsS'anchors'
p13
(tsss."
LayerCount: 2
Fore
SplineSet
17 -86 m 257
 109 -86 215 -86 255 60 c 258
 453 779 l 257
 656 779 l 257
 671 836 l 257
 469 836 l 257
 536 1080 l 257
 553 1157 599 1183 649 1183 c 256
 681 1183 715 1176 745 1165 c 257
 759 1219 l 257
 721 1236 679 1244 645 1244 c 256
 551 1244 483 1183 457 1078 c 258
 389 836 l 257
 235 836 l 257
 219 779 l 257
 374 779 l 257
 176 60 l 258
 153 -24 87 -24 33 -24 c 257
 17 -86 l 257
EndSplineSet
EndChar

StartChar: foundryicon
Encoding: 65545 -1 226
Width: 1347
VWidth: 0
Flags: W
PickledData: "(dp1
S'com.typemytype.robofont.layerData'
p2
(dp3
S'b'
(dp4
S'name'
p5
S'foundryicon'
p6
sS'lib'
p7
(dp8
sS'unicodes'
p9
(tsS'width'
p10
I1347
sS'contours'
p11
(tsS'components'
p12
(tsS'anchors'
p13
(tsss."
LayerCount: 2
Fore
SplineSet
485 405 m 257
 485 672 l 257
 591 672 l 257
 761 523 l 257
 761 672 l 257
 867 672 l 257
 867 405 l 257
 761 405 l 257
 591 552 l 257
 591 405 l 257
 485 405 l 257
280 2 m 257
 669 278 l 257
 1066 2 l 257
 922 461 l 257
 1313 755 l 257
 828 755 l 257
 669 1215 l 257
 519 755 l 257
 34 755 l 257
 423 461 l 257
 280 2 l 257
EndSplineSet
EndChar

StartChar: four
Encoding: 52 52 227
Width: 1108
VWidth: 0
Flags: W
PickledData: "(dp1
S'com.typemytype.robofont.layerData'
p2
(dp3
S'b'
(dp4
S'name'
p5
S'four'
p6
sS'lib'
p7
(dp8
sS'unicodes'
p9
(tsS'width'
p10
I1108
sS'contours'
p11
(tsS'components'
p12
(tsS'anchors'
p13
(tsss."
LayerCount: 2
Fore
SplineSet
521 0 m 257
 898 0 l 257
 898 58 l 257
 748 58 l 257
 748 354 l 257
 988 354 l 257
 988 413 l 257
 748 413 l 257
 748 1152 l 257
 641 1152 l 257
 167 413 l 257
 178 354 l 257
 672 354 l 257
 672 58 l 257
 521 58 l 257
 521 0 l 257
254 413 m 257
 672 1079 l 257
 672 413 l 257
 254 413 l 257
EndSplineSet
EndChar

StartChar: foursuperior
Encoding: 8308 8308 228
Width: 770
VWidth: 0
Flags: W
PickledData: "(dp1
S'com.typemytype.robofont.layerData'
p2
(dp3
S'b'
(dp4
S'name'
p5
S'uni2074'
p6
sS'lib'
p7
(dp8
sS'unicodes'
p9
(tsS'width'
p10
I770
sS'contours'
p11
(tsS'components'
p12
(tsS'anchors'
p13
(tsss."
LayerCount: 2
Fore
SplineSet
305 455 m 257
 611 455 l 257
 611 516 l 257
 494 516 l 257
 494 715 l 257
 678 715 l 257
 678 772 l 257
 494 772 l 257
 494 1321 l 257
 408 1321 l 257
 52 771 l 257
 61 715 l 257
 426 715 l 257
 426 516 l 257
 305 516 l 257
 305 455 l 257
132 772 m 257
 426 1234 l 257
 426 772 l 257
 132 772 l 257
EndSplineSet
EndChar

StartChar: fraction
Encoding: 8260 8260 229
Width: 467
VWidth: 0
Flags: W
PickledData: "(dp1
S'com.typemytype.robofont.layerData'
p2
(dp3
S'b'
(dp4
S'name'
p5
S'fraction'
p6
sS'lib'
p7
(dp8
sS'unicodes'
p9
(tsS'width'
p10
I467
sS'contours'
p11
(tsS'components'
p12
(tsS'anchors'
p13
(tsss."
LayerCount: 2
Fore
SplineSet
12 -23 m 257
 87 -23 l 257
 455 1255 l 257
 384 1255 l 257
 12 -23 l 257
EndSplineSet
EndChar

StartChar: g
Encoding: 103 103 230
Width: 1021
VWidth: 0
Flags: W
PickledData: "(dp1
S'com.typemytype.robofont.layerData'
p2
(dp3
S'b'
(dp4
S'name'
p5
S'g'
sS'lib'
p6
(dp7
sS'unicodes'
p8
(tsS'width'
p9
F1021.02
sS'contours'
p10
((dp11
S'points'
p12
((dp13
S'segmentType'
p14
S'curve'
p15
sS'x'
I510
sS'smooth'
p16
I1
sS'y'
S'-333'
p17
s(dp18
S'y'
S'-333'
p19
sS'x'
I722
sg16
I0
s(dp20
S'y'
S'-225'
p21
sS'x'
I880
sg16
I0
s(dp22
g14
S'curve'
p23
sS'x'
I880
sg16
I0
sS'y'
I15
s(dp24
g14
S'line'
p25
sS'x'
I880
sg16
I0
sS'y'
I735
s(dp26
g14
S'line'
p27
sS'x'
I1005
sg16
I0
sS'y'
I735
s(dp28
g14
S'line'
p29
sS'x'
I1005
sg16
I0
sS'y'
I789
s(dp30
g14
S'line'
p31
sS'x'
I804
sg16
I0
sS'y'
I789
s(dp32
g14
S'line'
p33
sS'x'
I804
sg16
I0
sS'y'
I673
s(dp34
S'y'
I673
sS'x'
I804
sg16
I0
s(dp35
S'y'
S'-2'
p36
sS'x'
I804
sg16
I0
s(dp37
g14
S'curve'
p38
sS'x'
I804
sg16
I1
sS'y'
S'-2'
p39
s(dp40
S'y'
S'-173'
p41
sS'x'
I804
sg16
I0
s(dp42
S'y'
S'-271'
p43
sS'x'
I695
sg16
I0
s(dp44
g14
S'curve'
p45
sS'x'
I515
sg16
I1
sS'y'
S'-271'
p46
s(dp47
S'y'
S'-271'
p48
sS'x'
I444
sg16
I0
s(dp49
S'y'
S'-255'
p50
sS'x'
I362
sg16
I0
s(dp51
g14
S'curve'
p52
sS'x'
I272
sg16
I0
sS'y'
S'-224'
p53
s(dp54
g14
S'line'
p55
sS'x'
I257
sg16
I0
sS'y'
S'-289'
p56
s(dp57
S'y'
S'-318'
p58
sS'x'
I345
sg16
I0
s(dp59
S'y'
S'-333'
p60
sS'x'
I431
sg16
I0
stp61
stp62
sS'components'
p63
(tsS'anchors'
p64
(tsss."
AnchorPoint: "bot" 510.51 0 basechar 0
AnchorPoint: "top" 499 805 basechar 0
LayerCount: 2
Fore
SplineSet
471 -375 m 256
 699 -375 854 -267 854 -27 c 258
 854 751 l 257
 1011 751 l 257
 1011 805 l 257
 778 805 l 257
 778 -44 l 258
 778 -215 671 -312 474 -312 c 256
 397 -312 306 -297 203 -266 c 257
 188 -331 l 257
 290 -360 385 -375 471 -375 c 256
EndSplineSet
Refer: 272 -1 N 1 0 0 0.98 -71 15 2
EndChar

StartChar: germandbls
Encoding: 223 223 236
Width: 1174
VWidth: 0
Flags: W
PickledData: "(dp1
S'com.typemytype.robofont.layerData'
p2
(dp3
S'b'
(dp4
S'name'
p5
S'germandbls'
p6
sS'lib'
p7
(dp8
sS'unicodes'
p9
(tsS'width'
p10
I1174
sS'contours'
p11
(tsS'components'
p12
(tsS'anchors'
p13
(tsss."
LayerCount: 2
Fore
SplineSet
99 0 m 257
 449 0 l 257
 449 62 l 257
 324 62 l 257
 324 856 l 258
 324 1055 424 1180 591 1180 c 256
 755 1180 858 1093 858 955 c 256
 858 797 756 693 594 685 c 257
 594 641 l 257
 839 641 993 524 993 337 c 256
 993 168 836 62 586 62 c 257
 586 0 l 257
 885 0 1072 130 1072 337 c 256
 1072 537 935 668 718 676 c 257
 853 703 937 812 937 958 c 256
 937 1140 803 1248 588 1248 c 256
 374 1248 252 1099 252 851 c 258
 252 62 l 257
 99 62 l 257
 99 0 l 257
EndSplineSet
EndChar

StartChar: grave
Encoding: 96 96 237
Width: 196
VWidth: 0
Flags: W
PickledData: "(dp1
S'com.typemytype.robofont.layerData'
p2
(dp3
S'b'
(dp4
S'name'
p5
S'grave'
p6
sS'lib'
p7
(dp8
sS'unicodes'
p9
(tsS'width'
p10
I196
sS'contours'
p11
(tsS'components'
p12
(tsS'anchors'
p13
(tsss."
AnchorPoint: "top" 98 804 mark 0
LayerCount: 2
Fore
SplineSet
142 903 m 257
 173 903 l 257
 114 1152 l 257
 -12 1152 l 257
 142 903 l 257
EndSplineSet
EndChar

StartChar: greater
Encoding: 62 62 238
Width: 1065
VWidth: 0
Flags: W
PickledData: "(dp1
S'com.typemytype.robofont.layerData'
p2
(dp3
S'b'
(dp4
S'name'
p5
S'greater'
p6
sS'lib'
p7
(dp8
sS'unicodes'
p9
(tsS'width'
p10
I1065
sS'contours'
p11
(tsS'components'
p12
(tsS'anchors'
p13
(tsss."
LayerCount: 2
Fore
SplineSet
196 77 m 257
 963 496 l 257
 963 526 l 257
 196 955 l 257
 196 872 l 257
 869 511 l 257
 196 158 l 257
 196 77 l 257
EndSplineSet
EndChar

StartChar: greaterequal
Encoding: 8805 8805 239
Width: 846
VWidth: 0
Flags: W
PickledData: "(dp1
S'com.typemytype.robofont.layerData'
p2
(dp3
S'b'
(dp4
S'name'
p5
S'greaterequal'
p6
sS'lib'
p7
(dp8
sS'unicodes'
p9
(tsS'width'
p10
I846
sS'contours'
p11
(tsS'components'
p12
(tsS'anchors'
p13
(tsss."
LayerCount: 2
Fore
SplineSet
97 194 m 257
 785 553 l 257
 785 590 l 257
 97 952 l 257
 97 882 l 257
 679 571 l 257
 97 262 l 257
 97 194 l 257
97 0 m 257
 785 0 l 257
 785 58 l 257
 97 58 l 257
 97 0 l 257
EndSplineSet
EndChar

StartChar: guillemotleft
Encoding: 171 171 240
Width: 779
VWidth: 0
Flags: W
PickledData: "(dp1
S'com.typemytype.robofont.layerData'
p2
(dp3
S'b'
(dp4
S'name'
p5
S'guillemotleft'
p6
sS'lib'
p7
(dp8
sS'unicodes'
p9
(tsS'width'
p10
I779
sS'contours'
p11
(tsS'components'
p12
(tsS'anchors'
p13
(tsss."
LayerCount: 2
Fore
SplineSet
329 281 m 257
 377 281 l 257
 165 664 l 257
 377 1043 l 257
 329 1043 l 257
 57 664 l 257
 329 281 l 257
597 281 m 257
 645 281 l 257
 432 664 l 257
 645 1043 l 257
 597 1043 l 257
 324 664 l 257
 597 281 l 257
EndSplineSet
EndChar

StartChar: guillemotright
Encoding: 187 187 241
Width: 779
VWidth: 0
Flags: W
PickledData: "(dp1
S'com.typemytype.robofont.layerData'
p2
(dp3
S'b'
(dp4
S'name'
p5
S'guillemotright'
p6
sS'lib'
p7
(dp8
sS'unicodes'
p9
(tsS'width'
p10
I779
sS'contours'
p11
(tsS'components'
p12
(tsS'anchors'
p13
(tsss."
LayerCount: 2
Fore
SplineSet
134 281 m 257
 182 281 l 257
 454 664 l 257
 182 1043 l 257
 134 1043 l 257
 346 664 l 257
 134 281 l 257
401 281 m 257
 449 281 l 257
 722 664 l 257
 449 1043 l 257
 401 1043 l 257
 614 664 l 257
 401 281 l 257
EndSplineSet
EndChar

StartChar: guilsinglleft
Encoding: 8249 8249 242
Width: 441
VWidth: 0
Flags: W
PickledData: "(dp1
S'com.typemytype.robofont.layerData'
p2
(dp3
S'b'
(dp4
S'name'
p5
S'guilsinglleft'
p6
sS'lib'
p7
(dp8
sS'unicodes'
p9
(tsS'width'
p10
I441
sS'contours'
p11
(tsS'components'
p12
(tsS'anchors'
p13
(tsss."
LayerCount: 2
Fore
SplineSet
282 281 m 257
 330 281 l 257
 118 664 l 257
 330 1043 l 257
 282 1043 l 257
 10 664 l 257
 282 281 l 257
EndSplineSet
EndChar

StartChar: guilsinglright
Encoding: 8250 8250 243
Width: 441
VWidth: 0
Flags: W
PickledData: "(dp1
S'com.typemytype.robofont.layerData'
p2
(dp3
S'b'
(dp4
S'name'
p5
S'guilsinglright'
p6
sS'lib'
p7
(dp8
sS'unicodes'
p9
(tsS'width'
p10
I441
sS'contours'
p11
(tsS'components'
p12
(tsS'anchors'
p13
(tsss."
LayerCount: 2
Fore
SplineSet
111 281 m 257
 159 281 l 257
 431 664 l 257
 159 1043 l 257
 111 1043 l 257
 323 664 l 257
 111 281 l 257
EndSplineSet
EndChar

StartChar: hungarumlaut
Encoding: 733 733 247
Width: 422
VWidth: 0
Flags: W
PickledData: "(dp1
S'com.typemytype.robofont.layerData'
p2
(dp3
S'b'
(dp4
S'name'
p5
S'hungarumlaut'
p6
sS'lib'
p7
(dp8
sS'unicodes'
p9
(tsS'width'
p10
I422
sS'contours'
p11
(tsS'components'
p12
(tsS'anchors'
p13
(tsss."
AnchorPoint: "top" 211 804 mark 0
LayerCount: 2
Fore
SplineSet
19 903 m 257
 50 903 l 257
 204 1152 l 257
 78 1152 l 257
 19 903 l 257
229 903 m 257
 260 903 l 257
 414 1152 l 257
 288 1152 l 257
 229 903 l 257
EndSplineSet
EndChar

StartChar: hyphen
Encoding: 45 45 248
Width: 859
VWidth: 0
Flags: W
PickledData: "(dp1
S'com.typemytype.robofont.layerData'
p2
(dp3
S'b'
(dp4
S'name'
p5
S'hyphen'
p6
sS'lib'
p7
(dp8
sS'unicodes'
p9
(tsS'width'
p10
I859
sS'contours'
p11
(tsS'components'
p12
(tsS'anchors'
p13
(tsss."
AnchorPoint: "mid" 411 441 mark 0
LayerCount: 2
Fore
SplineSet
165 413 m 257
 695 413 l 257
 695 475 l 257
 165 475 l 257
 165 413 l 257
EndSplineSet
EndChar

StartChar: i
Encoding: 105 105 249
Width: 521
VWidth: 0
Flags: W
PickledData: "(dp1
S'com.typemytype.robofont.layerData'
p2
(dp3
S'b'
(dp4
S'name'
p5
S'i'
sS'lib'
p6
(dp7
sS'unicodes'
p8
(tsS'width'
p9
I521
sS'contours'
p10
(tsS'components'
p11
(tsS'anchors'
p12
(tsss."
AnchorPoint: "ogonek" 299 0 basechar 0
LayerCount: 2
Fore
SplineSet
86 0 m 257
 501 0 l 257
 501 58 l 257
 336 58 l 257
 336 642 l 257
 336 804 l 257
 87 804 l 257
 87 749 l 257
 260 749 l 257
 260 58 l 257
 86 58 l 257
 86 0 l 257
287 1030 m 256
 331 1030 353 1062 353 1091 c 256
 353 1122 331 1152 287 1152 c 256
 244 1152 222 1122 222 1091 c 256
 222 1062 244 1030 287 1030 c 256
EndSplineSet
EndChar

StartChar: infinity
Encoding: 8734 8734 258
Width: 1217
VWidth: 0
Flags: W
PickledData: "(dp1
S'com.typemytype.robofont.layerData'
p2
(dp3
S'b'
(dp4
S'name'
p5
S'infinity'
p6
sS'lib'
p7
(dp8
sS'unicodes'
p9
(tsS'width'
p10
I1217
sS'contours'
p11
(tsS'components'
p12
(tsS'anchors'
p13
(tsss."
LayerCount: 2
Fore
SplineSet
348 270 m 256
 442 270 537 325 611 462 c 257
 684 313 777 265 873 265 c 256
 994 265 1121 365 1121 548 c 256
 1121 738 998 832 874 832 c 256
 760 832 672 763 608 644 c 257
 538 782 429 836 348 836 c 256
 192 836 96 703 96 553 c 256
 96 397 178 270 348 270 c 256
342 320 m 256
 224 320 164 422 164 552 c 256
 164 661 219 785 340 785 c 256
 438 785 518 701 582 553 c 257
 507 390 431 320 342 320 c 256
876 316 m 256
 773 316 708 382 634 548 c 257
 706 702 778 780 875 780 c 256
 982 780 1053 679 1053 550 c 256
 1053 409 980 316 876 316 c 256
EndSplineSet
EndChar

StartChar: integral
Encoding: 8747 8747 259
Width: 763
VWidth: 0
Flags: W
PickledData: "(dp1
S'com.typemytype.robofont.layerData'
p2
(dp3
S'b'
(dp4
S'name'
p5
S'integral'
p6
sS'lib'
p7
(dp8
sS'unicodes'
p9
(tsS'width'
p10
I763
sS'contours'
p11
(tsS'components'
p12
(tsS'anchors'
p13
(tsss."
LayerCount: 2
Fore
SplineSet
15 -86 m 257
 107 -86 213 -86 253 60 c 258
 534 1080 l 258
 555 1156 596 1183 647 1183 c 256
 679 1183 713 1176 743 1165 c 257
 757 1219 l 257
 719 1236 677 1244 643 1244 c 256
 548 1244 484 1182 455 1078 c 258
 174 60 l 258
 151 -24 85 -24 31 -24 c 257
 15 -86 l 257
EndSplineSet
EndChar

StartChar: j
Encoding: 106 106 262
Width: 434
VWidth: 0
Flags: W
PickledData: "(dp1
S'com.typemytype.robofont.layerData'
p2
(dp3
S'b'
(dp4
S'name'
p5
S'j'
sS'lib'
p6
(dp7
sS'unicodes'
p8
(tsS'width'
p9
I434
sS'contours'
p10
(tsS'components'
p11
(tsS'anchors'
p12
(tsss."
LayerCount: 2
Fore
SplineSet
28 -258 m 257
 105 -258 l 258
 310 -258 310 -135 310 -19 c 258
 310 805 l 257
 66 805 l 257
 66 750 l 257
 234 750 l 257
 234 -30 l 258
 234 -141 234 -200 103 -200 c 258
 28 -200 l 257
 28 -258 l 257
263 1030 m 256
 307 1030 329 1062 329 1091 c 256
 329 1122 307 1152 263 1152 c 256
 220 1152 198 1122 198 1091 c 256
 198 1062 220 1030 263 1030 c 256
EndSplineSet
EndChar

StartChar: k
Encoding: 107 107 264
Width: 959
VWidth: 0
Flags: W
PickledData: "(dp1
S'com.typemytype.robofont.guides'
p2
((dp3
S'y'
I421
sS'x'
I474
sS'magnetic'
p4
I5
sS'angle'
p5
I0
sS'isGlobal'
p6
I0
stp7
sS'com.typemytype.robofont.layerData'
p8
(dp9
S'b'
(dp10
S'name'
p11
S'k'
sS'lib'
p12
(dp13
sS'unicodes'
p14
(tsS'width'
p15
I959
sS'contours'
p16
(tsS'components'
p17
(tsS'anchors'
p18
(tsss."
AnchorPoint: "top" 479.5 804 basechar 0
AnchorPoint: "bot" 498 0 basechar 0
LayerCount: 2
Fore
SplineSet
704 0 m 257
 917 0 l 257
 917 58 l 257
 742 58 l 257
 368 421 l 257
 765 747 l 257
 907 747 l 257
 907 805 l 257
 528 805 l 257
 528 747 l 257
 667 747 l 257
 279 421 l 257
 704 0 l 257
EndSplineSet
Refer: 269 -1 N 1 0 0 1 -21 0 2
EndChar

StartChar: kgreenlandic
Encoding: 312 312 266
Width: 1072
VWidth: 0
Flags: W
PickledData: "(dp1
S'com.typemytype.robofont.layerData'
p2
(dp3
S'b'
(dp4
S'name'
p5
S'kgreenlandic'
p6
sS'lib'
p7
(dp8
sS'unicodes'
p9
(tsS'width'
p10
I1072
sS'contours'
p11
(tsS'components'
p12
(tsS'anchors'
p13
(tsss."
LayerCount: 2
Fore
SplineSet
84 0 m 257
 533 0 l 257
 533 60 l 257
 349 60 l 257
 349 399 l 257
 779 60 l 257
 656 60 l 257
 656 0 l 257
 1034 0 l 257
 1034 60 l 257
 883 60 l 257
 434 416 l 257
 845 744 l 257
 1004 744 l 257
 1004 804 l 257
 619 804 l 257
 619 744 l 257
 743 744 l 257
 349 422 l 257
 349 804 l 257
 84 804 l 257
 84 744 l 257
 270 744 l 257
 270 60 l 257
 84 60 l 257
 84 0 l 257
EndSplineSet
EndChar

StartChar: lc_ascender_stem
Encoding: 65547 -1 269
Width: 1156
VWidth: 0
Flags: W
PickledData: "(dp1
S'com.schriftgestaltung.Glyphs.Export'
p2
I00
sS'com.typemytype.robofont.layerData'
p3
(dp4
S'b'
(dp5
S'name'
p6
S'lc_descender_stem'
p7
sS'lib'
p8
(dp9
sS'unicodes'
p10
(tsS'width'
p11
I1156
sS'contours'
p12
(tsS'components'
p13
(tsS'anchors'
p14
(tsss."
LayerCount: 2
Fore
SplineSet
87 0 m 257
 447 0 l 257
 447 58 l 257
 306 58 l 257
 306 1174 l 257
 93 1174 l 257
 93 1116 l 257
 230 1116 l 257
 230 58 l 257
 87 58 l 257
 87 0 l 257
EndSplineSet
EndChar

StartChar: lc_ascender_stem_1
Encoding: 65548 -1 270
Width: 1156
VWidth: 0
Flags: W
PickledData: "(dp1
S'com.schriftgestaltung.Glyphs.Export'
p2
I00
sS'com.typemytype.robofont.layerData'
p3
(dp4
S'b'
(dp5
S'name'
p6
S'lc_ascender_stem_1'
p7
sS'lib'
p8
(dp9
sS'unicodes'
p10
(tsS'width'
p11
I1156
sS'contours'
p12
(tsS'components'
p13
(tsS'anchors'
p14
(tsss."
LayerCount: 2
Fore
SplineSet
87 0 m 257
 306 0 l 257
 306 1174 l 257
 93 1174 l 257
 93 1116 l 257
 230 1116 l 257
 230 58 l 257
 87 58 l 257
 87 0 l 257
EndSplineSet
EndChar

StartChar: lc_ascender_stem_2
Encoding: 65549 -1 271
Width: 1156
VWidth: 0
Flags: W
PickledData: "(dp1
S'com.schriftgestaltung.Glyphs.Export'
p2
I00
sS'com.typemytype.robofont.layerData'
p3
(dp4
S'b'
(dp5
S'name'
p6
S'lc_descender_stem'
p7
sS'lib'
p8
(dp9
sS'unicodes'
p10
(tsS'width'
p11
I1156
sS'contours'
p12
(tsS'components'
p13
(tsS'anchors'
p14
(tsss."
LayerCount: 2
Fore
SplineSet
230 0 m 257
 447 0 l 257
 447 58 l 257
 306 58 l 257
 306 1174 l 257
 93 1174 l 257
 93 1116 l 257
 230 1116 l 257
 230 0 l 257
EndSplineSet
EndChar

StartChar: lc_bowl_left
Encoding: 65550 -1 272
Width: 1156
VWidth: 0
Flags: W
PickledData: "(dp1
S'com.schriftgestaltung.Glyphs.Export'
p2
I00
sS'com.typemytype.robofont.layerData'
p3
(dp4
S'b'
(dp5
S'name'
p6
S'lc_bowl_left'
p7
sS'lib'
p8
(dp9
sS'unicodes'
p10
(tsS'width'
p11
I1156
sS'contours'
p12
((dp13
S'points'
p14
((dp15
S'segmentType'
p16
S'line'
p17
sS'x'
I134
sS'smooth'
p18
I0
sS'y'
I121
s(dp19
S'y'
I36
sS'x'
I206
sg18
I0
s(dp20
S'y'
S'-16'
p21
sS'x'
I320
sg18
I0
s(dp22
g16
S'curve'
p23
sS'x'
I464
sg18
I1
sS'y'
S'-16'
p24
s(dp25
S'y'
S'-16'
p26
sS'x'
I739
sg18
I0
s(dp27
S'y'
I185
sS'x'
I886
sg18
I0
s(dp28
g16
S'curve'
p29
sS'x'
I886
sg18
I1
sS'y'
I387
s(dp30
S'y'
I573
sS'x'
I886
sg18
I0
s(dp31
S'y'
I817
sS'x'
I774
sg18
I0
s(dp32
g16
S'curve'
p33
sS'x'
I467
sg18
I1
sS'y'
I817
s(dp34
S'y'
I817
sS'x'
I309
sg18
I0
s(dp35
S'y'
I733
sS'x'
I179
sg18
I0
s(dp36
g16
S'curve'
p37
sS'x'
I134
sg18
I0
sS'y'
I684
s(dp38
g16
S'line'
p39
sS'x'
I134
sg18
I0
sS'y'
I618
s(dp40
S'y'
I725
sS'x'
I273
sg18
I0
s(dp41
S'y'
I753
sS'x'
I353
sg18
I0
s(dp42
g16
S'curve'
p43
sS'x'
I470
sg18
I1
sS'y'
I753
s(dp44
S'y'
I753
sS'x'
I701
sg18
I0
s(dp45
S'y'
I568
sS'x'
I810
sg18
I0
s(dp46
g16
S'curve'
p47
sS'x'
I810
sg18
I1
sS'y'
I395
s(dp48
S'y'
I204
sS'x'
I810
sg18
I0
s(dp49
S'y'
I48
sS'x'
I680
sg18
I0
s(dp50
g16
S'curve'
p51
sS'x'
I468
sg18
I1
sS'y'
I48
s(dp52
S'y'
I48
sS'x'
I346
sg18
I0
s(dp53
S'y'
I62
sS'x'
I263
sg18
I0
s(dp54
g16
S'curve'
p55
sS'x'
I134
sg18
I0
sS'y'
I194
stp56
stp57
sS'components'
p58
(tsS'anchors'
p59
(tsss."
LayerCount: 2
Fore
SplineSet
557 -16 m 256
 677 -16 798 29 887 120 c 257
 887 193 l 257
 789 94 669 48 557 48 c 256
 373 48 211 175 211 403 c 256
 211 627 353 754 538 754 c 256
 646 754 769 711 887 617 c 257
 887 683 l 257
 793 770 664 817 539 817 c 256
 330 817 133 686 135 396 c 256
 138 125 344 -16 557 -16 c 256
EndSplineSet
EndChar

StartChar: lc_bowl_right
Encoding: 65551 -1 273
Width: 1156
VWidth: 0
Flags: W
PickledData: "(dp1
S'com.schriftgestaltung.Glyphs.Export'
p2
I00
sS'com.typemytype.robofont.layerData'
p3
(dp4
S'b'
(dp5
S'name'
p6
S'lc_bowl_right'
p7
sS'lib'
p8
(dp9
sS'unicodes'
p10
(tsS'width'
p11
I1156
sS'contours'
p12
((dp13
S'points'
p14
((dp15
S'segmentType'
p16
S'line'
p17
sS'x'
I268
sS'smooth'
p18
I0
sS'y'
I121
s(dp19
S'y'
I36
sS'x'
I340
sg18
I0
s(dp20
S'y'
S'-16'
p21
sS'x'
I454
sg18
I0
s(dp22
g16
S'curve'
p23
sS'x'
I598
sg18
I1
sS'y'
S'-16'
p24
s(dp25
S'y'
S'-16'
p26
sS'x'
I873
sg18
I0
s(dp27
S'y'
I185
sS'x'
I1020
sg18
I0
s(dp28
g16
S'curve'
p29
sS'x'
I1020
sg18
I1
sS'y'
I387
s(dp30
S'y'
I573
sS'x'
I1020
sg18
I0
s(dp31
S'y'
I817
sS'x'
I908
sg18
I0
s(dp32
g16
S'curve'
p33
sS'x'
I601
sg18
I1
sS'y'
I817
s(dp34
S'y'
I817
sS'x'
I443
sg18
I0
s(dp35
S'y'
I733
sS'x'
I313
sg18
I0
s(dp36
g16
S'curve'
p37
sS'x'
I268
sg18
I0
sS'y'
I684
s(dp38
g16
S'line'
p39
sS'x'
I268
sg18
I0
sS'y'
I618
s(dp40
S'y'
I725
sS'x'
I407
sg18
I0
s(dp41
S'y'
I753
sS'x'
I487
sg18
I0
s(dp42
g16
S'curve'
p43
sS'x'
I604
sg18
I1
sS'y'
I753
s(dp44
S'y'
I753
sS'x'
I835
sg18
I0
s(dp45
S'y'
I568
sS'x'
I944
sg18
I0
s(dp46
g16
S'curve'
p47
sS'x'
I944
sg18
I1
sS'y'
I395
s(dp48
S'y'
I204
sS'x'
I944
sg18
I0
s(dp49
S'y'
I48
sS'x'
I814
sg18
I0
s(dp50
g16
S'curve'
p51
sS'x'
I602
sg18
I1
sS'y'
I48
s(dp52
S'y'
I48
sS'x'
I480
sg18
I0
s(dp53
S'y'
I62
sS'x'
I397
sg18
I0
s(dp54
g16
S'curve'
p55
sS'x'
I268
sg18
I0
sS'y'
I194
stp56
stp57
sS'components'
p58
(tsS'anchors'
p59
(tsss."
LayerCount: 2
Fore
SplineSet
597 -22 m 256
 810 -22 1014 125 1017 396 c 256
 1020 686 824 826 615 826 c 256
 490 826 375 777 281 690 c 257
 281 624 l 257
 398 728 508 763 616 763 c 256
 801 763 941 626 941 403 c 256
 941 205 814 41 597 41 c 256
 485 41 379 82 281 186 c 257
 281 113 l 257
 370 22 477 -22 597 -22 c 256
EndSplineSet
EndChar

StartChar: lc_descender_stem
Encoding: 65552 -1 274
Width: 1156
VWidth: 0
Flags: W
PickledData: "(dp1
S'com.schriftgestaltung.Glyphs.Export'
p2
I00
sS'com.typemytype.robofont.layerData'
p3
(dp4
S'b'
(dp5
S'name'
p6
S'lc_descender_stem'
p7
sS'lib'
p8
(dp9
sS'unicodes'
p10
(tsS'width'
p11
I1156
sS'contours'
p12
(tsS'components'
p13
(tsS'anchors'
p14
(tsss."
LayerCount: 2
Fore
SplineSet
87 -312 m 257
 447 -312 l 257
 447 -254 l 257
 306 -254 l 257
 306 650 l 257
 301 804 l 257
 93 804 l 257
 93 746 l 257
 230 746 l 257
 230 -254 l 257
 87 -254 l 257
 87 -312 l 257
EndSplineSet
EndChar

StartChar: lc_xheight_curved_stem
Encoding: 65553 -1 275
Width: 1124
VWidth: 0
Flags: W
PickledData: "(dp1
S'com.schriftgestaltung.Glyphs.Export'
p2
I00
sS'com.typemytype.robofont.layerData'
p3
(dp4
S'b'
(dp5
S'name'
p6
S'lc_xheight_curved_stem'
p7
sS'lib'
p8
(dp9
sS'unicodes'
p10
(tsS'width'
p11
I1124
sS'contours'
p12
((dp13
S'points'
p14
((dp15
S'segmentType'
p16
S'line'
p17
sS'x'
I351
sS'smooth'
p18
I0
sS'y'
I643
s(dp19
S'y'
I715
sS'x'
I455
sg18
I0
s(dp20
S'y'
I756
sS'x'
I545
sg18
I0
s(dp21
g16
S'curve'
p22
sS'x'
I675
sg18
I1
sS'y'
I756
s(dp23
S'y'
I756
sS'x'
I821
sg18
I0
s(dp24
S'y'
I676
sS'x'
I849
sg18
I0
s(dp25
g16
S'curve'
p26
sS'x'
I849
sg18
I1
sS'y'
I577
s(dp27
g16
S'line'
p28
sS'x'
I849
sg18
I0
sS'y'
I58
s(dp29
g16
S'line'
p30
sS'x'
I688
sg18
I0
sS'y'
I58
s(dp31
g16
S'line'
p32
sS'x'
I688
sg18
I0
sS'y'
I0
s(dp33
g16
S'line'
p34
sS'x'
I1073
sg18
I0
sS'y'
I0
s(dp35
g16
S'line'
p36
sS'x'
I1073
sg18
I0
sS'y'
I58
s(dp37
g16
S'line'
p38
sS'x'
I924
sg18
I0
sS'y'
I58
s(dp39
g16
S'line'
p40
sS'x'
I924
sg18
I1
sS'y'
I592
s(dp41
S'y'
I697
sS'x'
I924
sg18
I0
s(dp42
S'y'
I820
sS'x'
I866
sg18
I0
s(dp43
g16
S'curve'
p44
sS'x'
I682
sg18
I1
sS'y'
I820
s(dp45
S'y'
I820
sS'x'
I557
sg18
I0
s(dp46
S'y'
I789
sS'x'
I468
sg18
I0
s(dp47
g16
S'curve'
p48
sS'x'
I348
sg18
I0
sS'y'
I709
stp49
stp50
sS'components'
p51
(tsS'anchors'
p52
(tsss."
LayerCount: 2
Fore
SplineSet
688 0 m 257
 1073 0 l 257
 1073 58 l 257
 924 58 l 257
 924 578 l 258
 924 742 823 826 678 826 c 256
 573 826 446 782 317 693 c 257
 317 633 l 257
 464 726 581 764 667 764 c 256
 788 764 848 688 848 579 c 258
 848 58 l 257
 688 58 l 257
 688 0 l 257
EndSplineSet
EndChar

StartChar: lc_xheight_stem
Encoding: 65554 -1 276
Width: 1124
VWidth: 0
Flags: W
PickledData: "(dp1
S'com.schriftgestaltung.Glyphs.Export'
p2
I00
sS'com.typemytype.robofont.layerData'
p3
(dp4
S'b'
(dp5
S'name'
p6
S'lc_xheight_stem'
p7
sS'lib'
p8
(dp9
sS'unicodes'
p10
(tsS'width'
p11
I1124
sS'contours'
p12
(tsS'components'
p13
(tsS'anchors'
p14
(tsss."
LayerCount: 2
Fore
SplineSet
101 0 m 257
 516 0 l 257
 516 58 l 257
 351 58 l 257
 351 642 l 257
 351 804 l 257
 102 804 l 257
 102 749 l 257
 275 749 l 257
 275 58 l 257
 101 58 l 257
 101 0 l 257
EndSplineSet
EndChar

StartChar: less
Encoding: 60 60 280
Width: 1065
VWidth: 0
Flags: W
PickledData: "(dp1
S'com.typemytype.robofont.layerData'
p2
(dp3
S'b'
(dp4
S'name'
p5
S'less'
p6
sS'lib'
p7
(dp8
sS'unicodes'
p9
(tsS'width'
p10
I1065
sS'contours'
p11
(tsS'components'
p12
(tsS'anchors'
p13
(tsss."
LayerCount: 2
Fore
SplineSet
869 77 m 257
 869 158 l 257
 196 511 l 257
 869 872 l 257
 869 955 l 257
 102 526 l 257
 102 496 l 257
 869 77 l 257
EndSplineSet
EndChar

StartChar: lessequal
Encoding: 8804 8804 281
Width: 846
VWidth: 0
Flags: W
PickledData: "(dp1
S'com.typemytype.robofont.layerData'
p2
(dp3
S'b'
(dp4
S'name'
p5
S'lessequal'
p6
sS'lib'
p7
(dp8
sS'unicodes'
p9
(tsS'width'
p10
I846
sS'contours'
p11
(tsS'components'
p12
(tsS'anchors'
p13
(tsss."
LayerCount: 2
Fore
SplineSet
794 194 m 257
 794 262 l 257
 212 571 l 257
 794 882 l 257
 794 952 l 257
 106 590 l 257
 106 553 l 257
 794 194 l 257
106 0 m 257
 794 0 l 257
 794 58 l 257
 106 58 l 257
 106 0 l 257
EndSplineSet
EndChar

StartChar: logicalnot
Encoding: 172 172 282
Width: 909
VWidth: 0
Flags: W
PickledData: "(dp1
S'com.typemytype.robofont.layerData'
p2
(dp3
S'b'
(dp4
S'name'
p5
S'logicalnot'
p6
sS'lib'
p7
(dp8
sS'unicodes'
p9
(tsS'width'
p10
I909
sS'contours'
p11
(tsS'components'
p12
(tsS'anchors'
p13
(tsss."
LayerCount: 2
Fore
SplineSet
749 304 m 257
 826 304 l 257
 826 683 l 257
 88 683 l 257
 88 617 l 257
 749 617 l 257
 749 304 l 257
EndSplineSet
EndChar

StartChar: lozenge
Encoding: 9674 9674 283
Width: 964
VWidth: 0
Flags: W
PickledData: "(dp1
S'com.typemytype.robofont.layerData'
p2
(dp3
S'b'
(dp4
S'name'
p5
S'lozenge'
p6
sS'lib'
p7
(dp8
sS'unicodes'
p9
(tsS'width'
p10
I964
sS'contours'
p11
(tsS'components'
p12
(tsS'anchors'
p13
(tsss."
LayerCount: 2
Fore
SplineSet
457 -23 m 257
 508 -23 l 257
 908 616 l 257
 508 1254 l 257
 457 1254 l 257
 56 614 l 257
 457 -23 l 257
485 47 m 257
 142 616 l 257
 485 1181 l 257
 826 616 l 257
 485 47 l 257
EndSplineSet
EndChar

StartChar: lslash
Encoding: 322 322 284
Width: 534
VWidth: 0
Flags: W
PickledData: "(dp1
S'com.typemytype.robofont.layerData'
p2
(dp3
S'b'
(dp4
S'name'
p5
S'lslash'
p6
sS'lib'
p7
(dp8
sS'unicodes'
p9
(tsS'width'
p10
I534
sS'contours'
p11
(tsS'components'
p12
(tsS'anchors'
p13
(tsss."
LayerCount: 2
Fore
SplineSet
96 447 m 257
 472 664 l 257
 472 737 l 257
 95 517 l 257
 96 447 l 257
EndSplineSet
Refer: 267 108 N 1 0 0 1 9 0 2
EndChar

StartChar: macron
Encoding: 175 175 286
Width: 395
VWidth: 0
Flags: W
PickledData: "(dp1
S'com.typemytype.robofont.layerData'
p2
(dp3
S'b'
(dp4
S'name'
p5
S'macron'
p6
sS'lib'
p7
(dp8
sS'unicodes'
p9
(tsS'width'
p10
I395
sS'contours'
p11
(tsS'components'
p12
(tsS'anchors'
p13
(tsss."
AnchorPoint: "top" 197.5 804 mark 0
AnchorPoint: "mid" 198 983 mark 0
LayerCount: 2
Fore
SplineSet
2 954 m 257
 393 954 l 257
 393 1008 l 257
 2 1008 l 257
 2 954 l 257
EndSplineSet
EndChar

StartChar: minus
Encoding: 8722 8722 288
Width: 1008
VWidth: 0
Flags: W
PickledData: "(dp1
S'com.typemytype.robofont.layerData'
p2
(dp3
S'b'
(dp4
S'name'
p5
S'minus'
p6
sS'lib'
p7
(dp8
sS'unicodes'
p9
(tsS'width'
p10
I1008
sS'contours'
p11
(tsS'components'
p12
(tsS'anchors'
p13
(tsss."
LayerCount: 2
Fore
SplineSet
142 591 m 257
 866 591 l 257
 866 660 l 257
 142 660 l 257
 142 591 l 257
EndSplineSet
EndChar

StartChar: mu
Encoding: 956 956 289
Width: 1015
VWidth: 0
Flags: W
LayerCount: 2
Fore
SplineSet
979 56 m 257
 829 56 l 257
 829 805 l 257
 602 805 l 257
 602 747 l 257
 753 747 l 257
 753 167 l 257
 655 106 566 51 441 51 c 256
 285 51 258 131 258 230 c 258
 258 805 l 257
 30 805 l 257
 30 747 l 257
 182 747 l 257
 182 -192 l 257
 258 -192 l 257
 258 40 l 257
 297 8 354 -13 434 -13 c 256
 554 -13 629 24 757 100 c 257
 764 0 l 257
 979 0 l 257
 979 56 l 257
EndSplineSet
EndChar

StartChar: multiply
Encoding: 215 215 290
Width: 651
VWidth: 0
Flags: W
PickledData: "(dp1
S'com.typemytype.robofont.layerData'
p2
(dp3
S'b'
(dp4
S'name'
p5
S'multiply'
p6
sS'lib'
p7
(dp8
sS'unicodes'
p9
(tsS'width'
p10
I651
sS'contours'
p11
(tsS'components'
p12
(tsS'anchors'
p13
(tsss."
LayerCount: 2
Fore
SplineSet
529 317 m 257
 573 361 l 257
 371 565 l 257
 573 769 l 257
 529 814 l 257
 325 610 l 257
 122 812 l 257
 78 768 l 257
 281 565 l 257
 78 362 l 257
 122 318 l 257
 325 521 l 257
 529 317 l 257
EndSplineSet
EndChar

StartChar: nine
Encoding: 57 57 296
Width: 1108
VWidth: 0
Flags: W
PickledData: "(dp1
S'com.typemytype.robofont.layerData'
p2
(dp3
S'b'
(dp4
S'name'
p5
S'nine'
p6
sS'lib'
p7
(dp8
sS'unicodes'
p9
(tsS'width'
p10
I1108
sS'contours'
p11
(tsS'components'
p12
(tsS'anchors'
p13
(tsss."
LayerCount: 2
Fore
SplineSet
490 -92 m 257
 811 492 l 257
 811 492 937 692 937 826 c 256
 937 1020 781 1165 574 1165 c 256
 331 1165 202 987 202 798 c 256
 202 611 367 465 559 465 c 256
 619 465 682 480 743 510 c 257
 424 -55 l 257
 490 -92 l 257
570 529 m 256
 424 529 278 625 278 813 c 256
 278 956 376 1098 574 1098 c 256
 740 1098 865 980 865 822 c 256
 865 627 717 529 570 529 c 256
EndSplineSet
EndChar

StartChar: notequal
Encoding: 8800 8800 297
Width: 875
VWidth: 0
Flags: W
PickledData: "(dp1
S'com.typemytype.robofont.layerData'
p2
(dp3
S'b'
(dp4
S'name'
p5
S'notequal'
p6
sS'lib'
p7
(dp8
sS'unicodes'
p9
(tsS'width'
p10
I875
sS'contours'
p11
(tsS'components'
p12
(tsS'anchors'
p13
(tsss."
LayerCount: 2
Fore
SplineSet
307 136 m 257
 367 136 l 257
 414 328 l 257
 791 328 l 257
 791 389 l 257
 431 389 l 257
 504 665 l 257
 791 665 l 257
 791 729 l 257
 516 729 l 257
 569 920 l 257
 511 920 l 257
 462 729 l 257
 88 729 l 257
 88 665 l 257
 447 665 l 257
 375 389 l 257
 88 389 l 257
 88 328 l 257
 357 328 l 257
 307 136 l 257
EndSplineSet
EndChar

StartChar: numbersign
Encoding: 35 35 299
Width: 994
VWidth: 0
Flags: W
PickledData: "(dp1
S'com.typemytype.robofont.layerData'
p2
(dp3
S'b'
(dp4
S'name'
p5
S'numbersign'
p6
sS'lib'
p7
(dp8
sS'unicodes'
p9
(tsS'width'
p10
I994
sS'contours'
p11
(tsS'components'
p12
(tsS'anchors'
p13
(tsss."
LayerCount: 2
Fore
SplineSet
200 0 m 257
 274 0 l 257
 305 372 l 257
 646 372 l 257
 615 0 l 257
 689 0 l 257
 720 372 l 257
 895 372 l 257
 899 427 l 257
 725 427 l 257
 753 768 l 257
 928 768 l 257
 933 823 l 257
 757 823 l 257
 784 1154 l 257
 711 1154 l 257
 683 823 l 257
 342 823 l 257
 369 1154 l 257
 295 1154 l 257
 268 823 l 257
 105 823 l 257
 100 768 l 257
 264 768 l 257
 236 427 l 257
 71 427 l 257
 66 372 l 257
 231 372 l 257
 200 0 l 257
309 427 m 257
 338 768 l 257
 679 768 l 257
 651 427 l 257
 309 427 l 257
EndSplineSet
EndChar

StartChar: o
Encoding: 111 111 300
Width: 986
VWidth: 0
Flags: W
PickledData: "(dp1
S'com.typemytype.robofont.layerData'
p2
(dp3
S'b'
(dp4
S'name'
p5
S'o'
sS'lib'
p6
(dp7
sS'unicodes'
p8
(tsS'width'
p9
I986
sS'contours'
p10
(tsS'components'
p11
(tsS'anchors'
p12
(tsss."
AnchorPoint: "ogonek" 554 0 basechar 0
AnchorPoint: "bot" 493 0 basechar 0
AnchorPoint: "top" 489 805 basechar 0
LayerCount: 2
Fore
SplineSet
491 42 m 256
 287 42 143 193 143 406 c 256
 143 615 287 762 491 762 c 256
 698 762 845 615 845 406 c 256
 845 193 698 42 491 42 c 256
491 -22 m 256
 743 -22 922 155 922 406 c 256
 922 652 743 826 491 826 c 256
 241 826 64 652 64 406 c 256
 64 155 241 -22 491 -22 c 256
EndSplineSet
EndChar

StartChar: oe
Encoding: 339 339 305
Width: 1749
VWidth: 0
Flags: W
PickledData: "(dp1
S'com.typemytype.robofont.layerData'
p2
(dp3
S'b'
(dp4
S'name'
p5
S'oe'
p6
sS'lib'
p7
(dp8
sS'unicodes'
p9
(tsS'width'
p10
I1749
sS'contours'
p11
(tsS'components'
p12
(tsS'anchors'
p13
(tsss."
LayerCount: 2
Fore
SplineSet
519 -22 m 256
 672 -22 835 58 903 217 c 257
 969 72 1113 -22 1280 -22 c 256
 1398 -22 1525 26 1639 136 c 257
 1607 190 l 257
 1520 94 1400 42 1283 42 c 256
 1113 42 959 156 944 380 c 257
 1647 380 l 257
 1647 621 1520 826 1287 826 c 256
 1090 826 962 724 904 584 c 257
 837 747 672 826 519 826 c 256
 298 826 90 677 90 403 c 256
 90 124 299 -22 519 -22 c 256
519 43 m 256
 339 43 169 164 169 403 c 256
 169 633 339 761 519 761 c 256
 688 761 864 633 864 403 c 256
 864 164 688 43 519 43 c 256
946 440 m 257
 955 592 1068 761 1287 761 c 256
 1468 761 1558 601 1571 440 c 257
 946 440 l 257
EndSplineSet
EndChar

StartChar: ogonek
Encoding: 731 731 306
Width: 446
VWidth: 0
Flags: W
PickledData: "(dp1
S'com.typemytype.robofont.layerData'
p2
(dp3
S'b'
(dp4
S'name'
p5
S'ogonek'
p6
sS'lib'
p7
(dp8
sS'unicodes'
p9
(tsS'width'
p10
I446
sS'contours'
p11
(tsS'components'
p12
(tsS'anchors'
p13
(tsss."
AnchorPoint: "ogonek" 243 0 mark 0
LayerCount: 2
Fore
SplineSet
262 -364 m 256
 312 -364 366 -348 409 -319 c 257
 409 -256 l 257
 377 -269 324 -291 288 -291 c 256
 225 -291 170 -264 176 -174 c 256
 180 -121 216 -58 277 0 c 257
 224 0 l 257
 149 -56 103 -149 103 -227 c 256
 103 -320 178 -364 262 -364 c 256
EndSplineSet
EndChar

StartChar: one
Encoding: 49 49 310
Width: 780
VWidth: 0
Flags: W
PickledData: "(dp1
S'com.typemytype.robofont.layerData'
p2
(dp3
S'b'
(dp4
S'name'
p5
S'one'
p6
sS'lib'
p7
(dp8
sS'unicodes'
p9
(tsS'width'
p10
I780
sS'contours'
p11
(tsS'components'
p12
(tsS'anchors'
p13
(tsss."
LayerCount: 2
Fore
SplineSet
217 0 m 257
 616 0 l 257
 616 58 l 257
 458 58 l 257
 458 1154 l 257
 220 1109 l 257
 236 1045 l 257
 382 1072 l 257
 382 58 l 257
 217 58 l 257
 217 0 l 257
EndSplineSet
EndChar

StartChar: onehalf
Encoding: 189 189 311
Width: 1569
VWidth: 0
Flags: W
PickledData: "(dp1
S'com.typemytype.robofont.layerData'
p2
(dp3
S'b'
(dp4
S'name'
p5
S'onehalf'
p6
sS'lib'
p7
(dp8
sS'unicodes'
p9
(tsS'width'
p10
I1569
sS'contours'
p11
(tsS'components'
p12
(tsS'anchors'
p13
(tsss."
LayerCount: 2
Fore
SplineSet
1064 0 m 257
 1536 0 l 257
 1536 57 l 257
 1145 57 l 257
 1419 363 l 258
 1499 452 1534 541 1534 616 c 256
 1534 777 1393 824 1300 824 c 256
 1169 824 1074 741 1074 601 c 256
 1074 585 1078 540 1089 499 c 257
 1149 499 l 257
 1139 537 1135 570 1135 599 c 256
 1135 727 1223 767 1308 767 c 256
 1389 767 1469 723 1469 615 c 256
 1469 549 1438 471 1372 398 c 258
 1064 55 l 257
 1064 0 l 257
104 348 m 257
 416 348 l 257
 416 400 l 257
 294 400 l 257
 294 1152 l 257
 104 1152 l 257
 105 1099 l 257
 225 1099 l 257
 225 400 l 257
 104 400 l 257
 104 348 l 257
342 0 m 257
 411 0 l 257
 1185 1152 l 257
 1119 1152 l 257
 342 0 l 257
EndSplineSet
EndChar

StartChar: onequarter
Encoding: 188 188 312
Width: 1472
VWidth: 0
Flags: W
PickledData: "(dp1
S'com.typemytype.robofont.layerData'
p2
(dp3
S'b'
(dp4
S'name'
p5
S'onequarter'
p6
sS'lib'
p7
(dp8
sS'unicodes'
p9
(tsS'width'
p10
I1472
sS'contours'
p11
(tsS'components'
p12
(tsS'anchors'
p13
(tsss."
LayerCount: 2
Fore
SplineSet
1128 0 m 257
 1418 0 l 257
 1418 57 l 257
 1306 57 l 257
 1306 260 l 257
 1426 260 l 257
 1426 314 l 257
 1306 314 l 257
 1306 804 l 257
 1221 804 l 257
 883 307 l 257
 892 260 l 257
 1240 260 l 257
 1240 57 l 257
 1128 57 l 257
 1128 0 l 257
99 348 m 257
 411 348 l 257
 411 400 l 257
 289 400 l 257
 289 1152 l 257
 99 1152 l 257
 100 1099 l 257
 220 1099 l 257
 220 400 l 257
 99 400 l 257
 99 348 l 257
337 0 m 257
 406 0 l 257
 1180 1152 l 257
 1114 1152 l 257
 337 0 l 257
953 314 m 257
 1240 736 l 257
 1240 314 l 257
 953 314 l 257
EndSplineSet
EndChar

StartChar: onesuperior
Encoding: 185 185 313
Width: 551
VWidth: 0
Flags: W
PickledData: "(dp1
S'com.typemytype.robofont.layerData'
p2
(dp3
S'b'
(dp4
S'name'
p5
S'uni00B9'
p6
sS'lib'
p7
(dp8
sS'unicodes'
p9
(tsS'width'
p10
I551
sS'contours'
p11
(tsS'components'
p12
(tsS'anchors'
p13
(tsss."
LayerCount: 2
Fore
SplineSet
136 455 m 257
 448 455 l 257
 448 516 l 257
 331 516 l 257
 331 1324 l 257
 136 1287 l 257
 153 1222 l 257
 257 1242 l 257
 257 516 l 257
 136 516 l 257
 136 455 l 257
EndSplineSet
EndChar

StartChar: ordfeminine
Encoding: 170 170 314
Width: 791
VWidth: 0
Flags: W
PickledData: "(dp1
S'com.typemytype.robofont.layerData'
p2
(dp3
S'b'
(dp4
S'name'
p5
S'ordfeminine'
p6
sS'lib'
p7
(dp8
sS'unicodes'
p9
(tsS'width'
p10
I791
sS'contours'
p11
(tsS'components'
p12
(tsS'anchors'
p13
(tsss."
LayerCount: 2
Fore
SplineSet
322 560 m 256
 400 560 469 585 531 627 c 257
 540 569 l 257
 708 569 l 257
 708 629 l 257
 602 629 l 257
 602 986 l 258
 602 1064 562 1174 375 1174 c 256
 280 1174 201 1154 145 1100 c 257
 181 1042 l 257
 225 1088 290 1111 374 1111 c 256
 470 1111 529 1077 529 974 c 258
 529 897 l 257
 477 907 425 915 375 915 c 256
 249 915 117 898 117 737 c 256
 117 644 184 560 322 560 c 256
329 625 m 256
 225 625 191 685 191 736 c 256
 191 848 284 851 381 851 c 256
 437 851 507 841 529 836 c 257
 529 691 l 257
 472 640 404 625 329 625 c 256
EndSplineSet
EndChar

StartChar: ordmasculine
Encoding: 186 186 315
Width: 810
VWidth: 0
Flags: W
PickledData: "(dp1
S'com.typemytype.robofont.layerData'
p2
(dp3
S'b'
(dp4
S'name'
p5
S'ordmasculine'
p6
sS'lib'
p7
(dp8
sS'unicodes'
p9
(tsS'width'
p10
I810
sS'contours'
p11
(tsS'components'
p12
(tsS'anchors'
p13
(tsss."
LayerCount: 2
Fore
SplineSet
404 611 m 256
 277 611 163 696 163 863 c 256
 163 1027 277 1112 404 1112 c 256
 530 1112 647 1027 647 863 c 256
 647 696 530 611 404 611 c 256
404 548 m 256
 566 548 720 655 720 863 c 256
 720 1070 566 1174 404 1174 c 256
 240 1174 90 1068 90 863 c 256
 90 655 241 548 404 548 c 256
EndSplineSet
EndChar

StartChar: oslash
Encoding: 248 248 316
Width: 1018
VWidth: 0
Flags: W
PickledData: "(dp1
S'com.typemytype.robofont.layerData'
p2
(dp3
S'b'
(dp4
S'name'
p5
S'oslash'
p6
sS'lib'
p7
(dp8
sS'unicodes'
p9
(tsS'width'
p10
I1018
sS'contours'
p11
(tsS'components'
p12
(tsS'anchors'
p13
(tsss."
LayerCount: 2
Fore
SplineSet
219 -173 m 257
 869 952 l 257
 828 976 l 257
 179 -149 l 257
 219 -173 l 257
EndSplineSet
Refer: 300 111 N 1 0 0 1 0 0 2
EndChar

StartChar: paragraph
Encoding: 182 182 320
Width: 982
VWidth: 0
Flags: W
PickledData: "(dp1
S'com.typemytype.robofont.layerData'
p2
(dp3
S'b'
(dp4
S'name'
p5
S'paragraph'
p6
sS'lib'
p7
(dp8
sS'unicodes'
p9
(tsS'width'
p10
I982
sS'contours'
p11
(tsS'components'
p12
(tsS'anchors'
p13
(tsss."
LayerCount: 2
Fore
SplineSet
502 -20 m 257
 879 -20 l 257
 879 38 l 257
 744 38 l 257
 744 1093 l 257
 899 1093 l 257
 899 1152 l 257
 423 1152 l 258
 213 1152 106 1021 106 891 c 256
 106 756 213 617 423 617 c 258
 669 617 l 257
 669 38 l 257
 502 38 l 257
 502 -20 l 257
485 686 m 257
 485 1093 l 257
 669 1093 l 257
 669 686 l 257
 485 686 l 257
EndSplineSet
EndChar

StartChar: parenleft
Encoding: 40 40 321
Width: 506
VWidth: 0
Flags: W
PickledData: "(dp1
S'com.typemytype.robofont.layerData'
p2
(dp3
S'b'
(dp4
S'name'
p5
S'parenleft'
p6
sS'lib'
p7
(dp8
sS'unicodes'
p9
(tsS'width'
p10
I506
sS'contours'
p11
(tsS'components'
p12
(tsS'anchors'
p13
(tsss."
LayerCount: 2
Fore
SplineSet
462 -114 m 257
 464 -64 l 257
 270 17 173 274 173 531 c 256
 173 788 270 1045 464 1125 c 257
 462 1174 l 257
 210 1086 84 807 84 529 c 256
 84 250 210 -28 462 -114 c 257
EndSplineSet
EndChar

StartChar: parenright
Encoding: 41 41 322
Width: 507
VWidth: 0
Flags: W
PickledData: "(dp1
S'com.typemytype.robofont.layerData'
p2
(dp3
S'b'
(dp4
S'name'
p5
S'parenright'
p6
sS'lib'
p7
(dp8
sS'unicodes'
p9
(tsS'width'
p10
I507
sS'contours'
p11
(tsS'components'
p12
(tsS'anchors'
p13
(tsss."
LayerCount: 2
Fore
SplineSet
86 -114 m 257
 338 -28 464 250 464 529 c 256
 464 807 338 1086 86 1174 c 257
 84 1125 l 257
 278 1045 375 788 375 531 c 256
 375 274 278 17 84 -64 c 257
 86 -114 l 257
EndSplineSet
EndChar

StartChar: partdagger
Encoding: 8224 8224 323
Width: 522
VWidth: 0
Flags: W
PickledData: "(dp1
S'com.typemytype.robofont.layerData'
p2
(dp3
S'b'
(dp4
S'name'
p5
S'dagger'
p6
sS'lib'
p7
(dp8
sS'unicodes'
p9
(tsS'width'
p10
I522
sS'contours'
p11
(tsS'components'
p12
(tsS'anchors'
p13
(tsss."
LayerCount: 2
Fore
SplineSet
242 2 m 257
 282 2 l 257
 282 227 308 406 308 593 c 256
 308 686 302 782 282 887 c 257
 509 862 l 257
 509 941 l 257
 282 923 l 257
 315 1210 l 257
 209 1210 l 257
 242 923 l 257
 12 941 l 257
 12 862 l 257
 242 887 l 257
 222 780 216 684 216 590 c 256
 216 404 242 229 242 2 c 257
EndSplineSet
EndChar

StartChar: partialdiff
Encoding: 8706 8706 324
Width: 916
VWidth: 0
Flags: W
PickledData: "(dp1
S'com.typemytype.robofont.layerData'
p2
(dp3
S'b'
(dp4
S'name'
p5
S'partialdiff'
p6
sS'lib'
p7
(dp8
sS'unicodes'
p9
(tsS'width'
p10
I916
sS'contours'
p11
(tsS'components'
p12
(tsS'anchors'
p13
(tsss."
LayerCount: 2
Fore
SplineSet
434 -22 m 256
 810 -22 838 345 838 522 c 256
 838 796 759 1154 440 1154 c 257
 332 1148 265 1131 158 1082 c 257
 181 1025 l 257
 277 1068 362 1090 436 1090 c 256
 630 1090 742 946 759 637 c 257
 353 613 164 390 164 210 c 256
 164 83 257 -22 434 -22 c 256
438 43 m 256
 301 43 236 117 236 209 c 256
 236 365 422 574 766 574 c 257
 767 553 768 532 768 512 c 256
 768 271 692 43 438 43 c 256
EndSplineSet
EndChar

StartChar: percent
Encoding: 37 37 325
Width: 1580
VWidth: 0
Flags: W
PickledData: "(dp1
S'com.typemytype.robofont.layerData'
p2
(dp3
S'b'
(dp4
S'name'
p5
S'percent'
p6
sS'lib'
p7
(dp8
sS'unicodes'
p9
(tsS'width'
p10
I1580
sS'contours'
p11
(tsS'components'
p12
(tsS'anchors'
p13
(tsss."
LayerCount: 2
Fore
SplineSet
390 657 m 256
 275 657 162 734 162 885 c 256
 162 1034 275 1111 390 1111 c 256
 504 1111 620 1034 620 885 c 256
 620 734 504 657 390 657 c 256
390 596 m 256
 539 596 689 694 689 885 c 256
 689 1075 539 1170 390 1170 c 256
 239 1170 93 1073 93 885 c 256
 93 694 240 596 390 596 c 256
308 -47 m 257
 1337 1184 l 257
 1299 1222 l 257
 266 -3 l 257
 308 -47 l 257
1176 34 m 256
 1061 34 948 111 948 262 c 256
 948 411 1061 489 1176 489 c 256
 1290 489 1406 411 1406 262 c 256
 1406 111 1290 34 1176 34 c 256
1176 -26 m 256
 1325 -26 1475 72 1475 262 c 256
 1475 452 1325 548 1176 548 c 256
 1026 548 879 450 879 262 c 256
 879 72 1027 -26 1176 -26 c 256
EndSplineSet
EndChar

StartChar: period
Encoding: 46 46 326
Width: 441
VWidth: 0
Flags: W
PickledData: "(dp1
S'com.typemytype.robofont.layerData'
p2
(dp3
S'b'
(dp4
S'name'
p5
S'period'
p6
sS'lib'
p7
(dp8
sS'unicodes'
p9
(tsS'width'
p10
I441
sS'contours'
p11
(tsS'components'
p12
(tsS'anchors'
p13
(tsss."
LayerCount: 2
Fore
SplineSet
165 0 m 257
 281 0 l 257
 281 120 l 257
 165 120 l 257
 165 0 l 257
EndSplineSet
EndChar

StartChar: periodcentered
Encoding: 183 183 327
Width: 442
VWidth: 0
Flags: W
PickledData: "(dp1
S'com.typemytype.robofont.layerData'
p2
(dp3
S'b'
(dp4
S'name'
p5
S'periodcentered'
p6
sS'lib'
p7
(dp8
sS'unicodes'
p9
(tsS'width'
p10
I442
sS'contours'
p11
(tsS'components'
p12
(tsS'anchors'
p13
(tsss."
AnchorPoint: "mid" 0 760 mark 0
LayerCount: 2
Fore
SplineSet
165 695 m 257
 282 695 l 257
 282 815 l 257
 165 815 l 257
 165 695 l 257
EndSplineSet
EndChar

StartChar: perthousand
Encoding: 8240 8240 328
Width: 2281
VWidth: 0
Flags: W
LayerCount: 2
Fore
SplineSet
1877 34 m 256
 1762 34 1649 111 1649 262 c 256
 1649 411 1762 489 1877 489 c 256
 1991 489 2107 411 2107 262 c 256
 2107 111 1991 34 1877 34 c 256
1877 -26 m 256
 2026 -26 2176 72 2176 262 c 256
 2176 452 2026 548 1877 548 c 256
 1727 548 1580 450 1580 262 c 256
 1580 72 1728 -26 1877 -26 c 256
EndSplineSet
Refer: 325 37 N 1 0 0 1 0 0 2
EndChar

StartChar: pi
Encoding: 960 960 329
Width: 1065
VWidth: 0
Flags: W
PickledData: "(dp1
S'com.typemytype.robofont.layerData'
p2
(dp3
S'b'
(dp4
S'name'
p5
S'pi'
p6
sS'lib'
p7
(dp8
sS'unicodes'
p9
(tsS'width'
p10
I1065
sS'contours'
p11
(tsS'components'
p12
(tsS'anchors'
p13
(tsss."
LayerCount: 2
Fore
SplineSet
832 -13 m 256
 859 -13 890 -6 928 13 c 257
 928 58 l 257
 906 52 888 49 872 49 c 256
 813 49 766 62 766 282 c 256
 766 384 776 531 800 743 c 257
 950 743 l 257
 950 804 l 257
 284 804 l 258
 185 804 157 723 157 636 c 257
 194 636 l 257
 198 691 231 743 283 743 c 258
 380 743 l 257
 302 237 l 258
 281 103 233 53 110 53 c 257
 110 -4 l 257
 299 -4 368 36 387 215 c 258
 444 743 l 257
 735 743 l 257
 698 504 682 340 682 228 c 256
 682 4 746 -13 832 -13 c 256
EndSplineSet
EndChar

StartChar: plus
Encoding: 43 43 330
Width: 792
VWidth: 0
Flags: W
PickledData: "(dp1
S'com.typemytype.robofont.layerData'
p2
(dp3
S'b'
(dp4
S'name'
p5
S'plus'
p6
sS'lib'
p7
(dp8
sS'unicodes'
p9
(tsS'width'
p10
I792
sS'contours'
p11
(tsS'components'
p12
(tsS'anchors'
p13
(tsss."
LayerCount: 2
Fore
SplineSet
366 138 m 257
 428 138 l 257
 428 534 l 257
 783 534 l 257
 783 598 l 257
 428 598 l 257
 428 982 l 257
 366 982 l 257
 366 598 l 257
 9 598 l 257
 9 534 l 257
 366 534 l 257
 366 138 l 257
EndSplineSet
EndChar

StartChar: plusminus
Encoding: 177 177 331
Width: 880
VWidth: 0
Flags: W
PickledData: "(dp1
S'com.typemytype.robofont.layerData'
p2
(dp3
S'b'
(dp4
S'name'
p5
S'plusminus'
p6
sS'lib'
p7
(dp8
sS'unicodes'
p9
(tsS'width'
p10
I880
sS'contours'
p11
(tsS'components'
p12
(tsS'anchors'
p13
(tsss."
LayerCount: 2
Fore
SplineSet
410 138 m 257
 472 138 l 257
 472 534 l 257
 828 534 l 257
 828 598 l 257
 472 598 l 257
 472 982 l 257
 410 982 l 257
 410 598 l 257
 54 598 l 257
 54 534 l 257
 410 534 l 257
 410 138 l 257
52 0 m 257
 826 0 l 257
 826 62 l 257
 52 62 l 257
 52 0 l 257
EndSplineSet
EndChar

StartChar: product
Encoding: 8719 8719 332
Width: 1311
VWidth: 0
Flags: W
PickledData: "(dp1
S'com.typemytype.robofont.layerData'
p2
(dp3
S'b'
(dp4
S'name'
p5
S'product'
p6
sS'lib'
p7
(dp8
sS'unicodes'
p9
(tsS'width'
p10
I1311
sS'contours'
p11
(tsS'components'
p12
(tsS'anchors'
p13
(tsss."
LayerCount: 2
Fore
SplineSet
112 0 m 257
 489 0 l 257
 489 59 l 257
 339 59 l 257
 339 1094 l 257
 972 1094 l 257
 972 59 l 257
 822 59 l 257
 822 0 l 257
 1199 0 l 257
 1199 59 l 257
 1048 59 l 257
 1048 1094 l 257
 1199 1094 l 257
 1199 1152 l 257
 112 1152 l 257
 112 1094 l 257
 263 1094 l 257
 263 59 l 257
 112 59 l 257
 112 0 l 257
EndSplineSet
EndChar

StartChar: q
Encoding: 113 113 333
Width: 1057
VWidth: 0
Flags: W
PickledData: "(dp1
S'com.typemytype.robofont.layerData'
p2
(dp3
S'b'
(dp4
S'name'
p5
S'q'
sS'lib'
p6
(dp7
sS'unicodes'
p8
(tsS'width'
p9
I1057
sS'contours'
p10
(tsS'components'
p11
(tsS'anchors'
p12
(tsss."
LayerCount: 2
Fore
SplineSet
631 -322 m 257
 991 -322 l 257
 991 -264 l 257
 849 -264 l 257
 849 732 l 257
 977 732 l 257
 977 790 l 257
 786 790 l 257
 772 674 l 257
 772 -264 l 257
 631 -264 l 257
 631 -322 l 257
EndSplineSet
Refer: 272 -1 N 1 0 0 1 -71 0 2
EndChar

StartChar: question
Encoding: 63 63 334
Width: 666
VWidth: 0
Flags: W
PickledData: "(dp1
S'com.typemytype.robofont.layerData'
p2
(dp3
S'b'
(dp4
S'name'
p5
S'question'
p6
sS'lib'
p7
(dp8
sS'unicodes'
p9
(tsS'width'
p10
I666
sS'contours'
p11
(tsS'components'
p12
(tsS'anchors'
p13
(tsss."
LayerCount: 2
Fore
SplineSet
276 289 m 257
 309 289 l 257
 321 492 403.25 572.75 482.5 641.625 c 256
 561.75 710.5 638 767.5 638 923 c 256
 638 1106 490 1223 318 1223 c 256
 190 1223 70 1168 16 1040 c 257
 77 1004 l 257
 113 1090 194 1151 321 1151 c 256
 485 1151 561 1039 561 923 c 256
 561 793.5 489.75 745.25 418.5 674.25 c 256
 347.25 603.25 276 509.5 276 289 c 257
261 -23 m 257
 345 -23 l 257
 345 56 l 257
 261 56 l 257
 261 -23 l 257
EndSplineSet
EndChar

StartChar: quotedbl
Encoding: 34 34 336
Width: 557
VWidth: 0
Flags: W
PickledData: "(dp1
S'com.typemytype.robofont.layerData'
p2
(dp3
S'b'
(dp4
S'name'
p5
S'quotedbl'
p6
sS'lib'
p7
(dp8
sS'unicodes'
p9
(tsS'width'
p10
I557
sS'contours'
p11
(tsS'components'
p12
(tsS'anchors'
p13
(tsss."
LayerCount: 2
Fore
SplineSet
166 854 m 257
 198 854 l 257
 231 1234 l 257
 139 1234 l 257
 166 854 l 257
359 854 m 257
 391 854 l 257
 424 1234 l 257
 333 1234 l 257
 359 854 l 257
EndSplineSet
EndChar

StartChar: quotedblbase
Encoding: 8222 8222 337
Width: 690
VWidth: 0
Flags: W
PickledData: "(dp1
S'com.typemytype.robofont.layerData'
p2
(dp3
S'b'
(dp4
S'name'
p5
S'quotedblbase'
p6
sS'lib'
p7
(dp8
sS'unicodes'
p9
(tsS'width'
p10
I690
sS'contours'
p11
(tsS'components'
p12
(tsS'anchors'
p13
(tsss."
LayerCount: 2
Fore
SplineSet
159 -180 m 257
 260 -180 294 -104 294 -6 c 258
 294 116 l 257
 168 116 l 257
 168 -4 l 257
 230 -4 l 257
 230 -88 225 -114 159 -136 c 257
 159 -180 l 257
410 -180 m 257
 510 -180 545 -104 545 -6 c 258
 545 116 l 257
 419 116 l 257
 419 -4 l 257
 480 -4 l 257
 480 -88 476 -114 410 -136 c 257
 410 -180 l 257
EndSplineSet
EndChar

StartChar: quotedblleft
Encoding: 8220 8220 338
Width: 664
VWidth: 0
Flags: W
PickledData: "(dp1
S'com.typemytype.robofont.layerData'
p2
(dp3
S'b'
(dp4
S'name'
p5
S'quotedblleft'
p6
sS'lib'
p7
(dp8
sS'unicodes'
p9
(tsS'width'
p10
I664
sS'contours'
p11
(tsS'components'
p12
(tsS'anchors'
p13
(tsss."
LayerCount: 2
Fore
SplineSet
147 959 m 257
 273 959 l 257
 273 1079 l 257
 212 1079 l 257
 212 1163 217 1189 283 1211 c 257
 283 1255 l 257
 182 1255 147 1180 147 1081 c 258
 147 959 l 257
373 959 m 257
 499 959 l 257
 499 1079 l 257
 438 1079 l 257
 438 1163 443 1189 509 1211 c 257
 509 1255 l 257
 408 1255 373 1180 373 1081 c 258
 373 959 l 257
EndSplineSet
EndChar

StartChar: quotedblright
Encoding: 8221 8221 339
Width: 665
VWidth: 0
Flags: W
PickledData: "(dp1
S'com.typemytype.robofont.layerData'
p2
(dp3
S'b'
(dp4
S'name'
p5
S'quotedblright'
p6
sS'lib'
p7
(dp8
sS'unicodes'
p9
(tsS'width'
p10
I665
sS'contours'
p11
(tsS'components'
p12
(tsS'anchors'
p13
(tsss."
LayerCount: 2
Fore
SplineSet
159 937 m 257
 260 937 295 1013 295 1111 c 258
 295 1234 l 257
 169 1234 l 257
 169 1114 l 257
 230 1114 l 257
 230 1030 225 1003 159 982 c 257
 159 937 l 257
385 937 m 257
 486 937 521 1013 521 1111 c 258
 521 1234 l 257
 395 1234 l 257
 395 1114 l 257
 456 1114 l 257
 456 1030 451 1003 385 982 c 257
 385 937 l 257
EndSplineSet
EndChar

StartChar: quoteleft
Encoding: 8216 8216 340
Width: 394
VWidth: 0
Flags: W
PickledData: "(dp1
S'com.typemytype.robofont.layerData'
p2
(dp3
S'b'
(dp4
S'name'
p5
S'quoteleft'
p6
sS'lib'
p7
(dp8
sS'unicodes'
p9
(tsS'width'
p10
I394
sS'contours'
p11
(tsS'components'
p12
(tsS'anchors'
p13
(tsss."
LayerCount: 2
Fore
SplineSet
119 959 m 257
 245 959 l 257
 245 1079 l 257
 184 1079 l 257
 184 1163 189 1189 255 1211 c 257
 255 1255 l 257
 154 1255 119 1180 119 1081 c 258
 119 959 l 257
EndSplineSet
EndChar

StartChar: quoteright
Encoding: 8217 8217 341
Width: 396
VWidth: 0
Flags: W
PickledData: "(dp1
S'com.typemytype.robofont.layerData'
p2
(dp3
S'b'
(dp4
S'name'
p5
S'quoteright'
p6
sS'lib'
p7
(dp8
sS'unicodes'
p9
(tsS'width'
p10
I396
sS'contours'
p11
(tsS'components'
p12
(tsS'anchors'
p13
(tsss."
LayerCount: 2
Fore
SplineSet
148 937 m 257
 249 937 284 1013 284 1111 c 258
 284 1234 l 257
 158 1234 l 257
 158 1114 l 257
 219 1114 l 257
 219 1030 214 1003 148 982 c 257
 148 937 l 257
EndSplineSet
EndChar

StartChar: quotesinglbase
Encoding: 8218 8218 342
Width: 399
VWidth: 0
Flags: W
PickledData: "(dp1
S'com.typemytype.robofont.layerData'
p2
(dp3
S'b'
(dp4
S'name'
p5
S'quotesinglbase'
p6
sS'lib'
p7
(dp8
sS'unicodes'
p9
(tsS'width'
p10
I399
sS'contours'
p11
(tsS'components'
p12
(tsS'anchors'
p13
(tsss."
LayerCount: 2
Fore
SplineSet
152 -180 m 257
 253 -180 287 -104 287 -6 c 258
 287 116 l 257
 161 116 l 257
 161 -4 l 257
 223 -4 l 257
 223 -88 218 -114 152 -136 c 257
 152 -180 l 257
EndSplineSet
EndChar

StartChar: quotesingle
Encoding: 39 39 343
Width: 267
VWidth: 0
Flags: W
PickledData: "(dp1
S'com.typemytype.robofont.layerData'
p2
(dp3
S'b'
(dp4
S'name'
p5
S'quotesingle'
p6
sS'lib'
p7
(dp8
sS'unicodes'
p9
(tsS'width'
p10
I267
sS'contours'
p11
(tsS'components'
p12
(tsS'anchors'
p13
(tsss."
LayerCount: 2
Fore
SplineSet
124 854 m 257
 156 854 l 257
 189 1234 l 257
 97 1234 l 257
 124 854 l 257
EndSplineSet
EndChar

StartChar: r
Encoding: 114 114 344
Width: 754
VWidth: 0
Flags: W
PickledData: "(dp1
S'com.typemytype.robofont.layerData'
p2
(dp3
S'b'
(dp4
S'name'
p5
S'r'
sS'lib'
p6
(dp7
sS'unicodes'
p8
(tsS'width'
p9
I754
sS'contours'
p10
((dp11
S'points'
p12
((dp13
S'segmentType'
p14
S'line'
p15
sS'x'
I338
sS'smooth'
p16
I0
sS'y'
I449
s(dp17
S'y'
I643
sS'x'
I338
sg16
I0
s(dp18
S'y'
I756
sS'x'
I441
sg16
I0
s(dp19
g14
S'curve'
p20
sS'x'
I570
sg16
I1
sS'y'
I756
s(dp21
S'y'
I756
sS'x'
I614
sg16
I0
s(dp22
S'y'
I742
sS'x'
I651
sg16
I0
s(dp23
g14
S'curve'
p24
sS'x'
I704
sg16
I0
sS'y'
I716
s(dp25
g14
S'line'
p26
sS'x'
I722
sg16
I0
sS'y'
I784
s(dp27
S'y'
I810
sS'x'
I664
sg16
I0
s(dp28
S'y'
I820
sS'x'
I622
sg16
I0
s(dp29
g14
S'curve'
p30
sS'x'
I575
sg16
I1
sS'y'
I820
s(dp31
S'y'
I820
sS'x'
I467
sg16
I0
s(dp32
S'y'
I769
sS'x'
I381
sg16
I0
s(dp33
g14
S'curve'
p34
sS'x'
I316
sg16
I0
sS'y'
I582
stp35
stp36
sS'components'
p37
(tsS'anchors'
p38
(tsss."
AnchorPoint: "top" 455 805 basechar 0
AnchorPoint: "bot" 320 0 basechar 0
LayerCount: 2
Fore
SplineSet
351 449 m 257
 351 636 443 762 567 762 c 256
 605 762 646 751 689 725 c 257
 703 784 l 257
 651 808 602 821 557 821 c 256
 457 821 376 756 329 582 c 257
 351 449 l 257
EndSplineSet
Refer: 276 -1 N 1 0 0 1 0 0 2
EndChar

StartChar: radical
Encoding: 8730 8730 346
Width: 1074
VWidth: 0
Flags: W
PickledData: "(dp1
S'com.typemytype.robofont.layerData'
p2
(dp3
S'b'
(dp4
S'name'
p5
S'radical'
p6
sS'lib'
p7
(dp8
sS'unicodes'
p9
(tsS'width'
p10
I1074
sS'contours'
p11
(tsS'components'
p12
(tsS'anchors'
p13
(tsss."
LayerCount: 2
Fore
SplineSet
516 -14 m 257
 552 -14 l 257
 1014 1363 l 257
 945 1363 l 257
 529 112 l 257
 296 641 l 257
 30 641 l 257
 30 568 l 257
 238 568 l 257
 516 -14 l 257
EndSplineSet
EndChar

StartChar: registered
Encoding: 174 174 349
Width: 1516
VWidth: 0
Flags: W
PickledData: "(dp1
S'com.typemytype.robofont.layerData'
p2
(dp3
S'b'
(dp4
S'name'
p5
S'registered'
p6
sS'lib'
p7
(dp8
sS'unicodes'
p9
(tsS'width'
p10
I1516
sS'contours'
p11
(tsS'components'
p12
(tsS'anchors'
p13
(tsss."
LayerCount: 2
Fore
SplineSet
441 221 m 257
 692 221 l 257
 692 279 l 257
 596 279 l 257
 596 553 l 257
 754 553 l 257
 951 221 l 257
 1102 221 l 257
 1102 279 l 257
 1000 279 l 257
 832 553 l 257
 963 561 1028 658 1028 753 c 256
 1028 851 956 951 812 951 c 258
 434 951 l 257
 434 894 l 257
 527 894 l 257
 527 279 l 257
 441 279 l 257
 441 221 l 257
596 611 m 257
 596 894 l 257
 812 894 l 258
 911 894 963 822 963 750 c 256
 963 681 910 611 812 611 c 258
 596 611 l 257
758 -3 m 256
 374 -3 188 281 188 580 c 256
 188 867 379 1162 758 1162 c 256
 1133 1162 1329 867 1329 580 c 256
 1329 291 1135 -3 758 -3 c 256
758 -60 m 256
 1187 -60 1400 259 1400 579 c 256
 1400 900 1185 1221 758 1221 c 256
 333 1221 116 900 116 579 c 256
 116 259 331 -60 758 -60 c 256
EndSplineSet
EndChar

StartChar: ring
Encoding: 730 730 350
Width: 388
VWidth: 0
Flags: W
PickledData: "(dp1
S'com.typemytype.robofont.layerData'
p2
(dp3
S'b'
(dp4
S'name'
p5
S'ring'
p6
sS'lib'
p7
(dp8
sS'unicodes'
p9
(tsS'width'
p10
I388
sS'contours'
p11
(tsS'components'
p12
(tsS'anchors'
p13
(tsss."
AnchorPoint: "top" 194 804 mark 0
LayerCount: 2
Fore
SplineSet
199 919 m 256
 287 919 333 986 333 1053 c 256
 333 1120 287 1188 199 1188 c 256
 110 1188 64 1120 64 1053 c 256
 64 986 110 919 199 919 c 256
200 961 m 256
 140 961 109 1008 109 1053 c 256
 109 1099 140 1145 200 1145 c 256
 257 1145 288 1099 288 1053 c 256
 288 1008 257 961 200 961 c 256
EndSplineSet
EndChar

StartChar: s
Encoding: 115 115 351
Width: 861
VWidth: 0
Flags: W
PickledData: "(dp1
S'com.typemytype.robofont.layerData'
p2
(dp3
S'b'
(dp4
S'name'
p5
S's'
sS'lib'
p6
(dp7
sS'unicodes'
p8
(tsS'width'
p9
I861
sS'contours'
p10
(tsS'components'
p11
(tsS'anchors'
p12
(tsss."
AnchorPoint: "top" 428 805 basechar 0
AnchorPoint: "bot" 459 0 basechar 0
LayerCount: 2
Fore
SplineSet
459 -14 m 256
 617 -14 777 56 777 211 c 256
 777 387 661 405 488 442 c 258
 372 467 l 258
 279 487 209 507 209 597 c 256
 209 707 306 762 421 762 c 256
 509 762 621 723 666 667 c 257
 666 549 l 257
 733 549 l 257
 733 804 l 257
 666 804 l 257
 666 744 l 257
 607 798 508 826 415 826 c 256
 271 826 130 757 130 600 c 256
 130 477 220 432 349 406 c 258
 476 380 l 258
 641 346 704 327 704 212 c 256
 704 104 588 50 463 50 c 256
 351 50 227 87 192 161 c 257
 192 257 l 257
 126 257 l 257
 126 -1 l 257
 192 -1 l 257
 192 74 l 257
 247 18 352 -14 459 -14 c 256
EndSplineSet
EndChar

StartChar: section
Encoding: 167 167 357
Width: 955
VWidth: 0
Flags: W
PickledData: "(dp1
S'com.typemytype.robofont.layerData'
p2
(dp3
S'b'
(dp4
S'name'
p5
S'section'
p6
sS'lib'
p7
(dp8
sS'unicodes'
p9
(tsS'width'
p10
I955
sS'contours'
p11
(tsS'components'
p12
(tsS'anchors'
p13
(tsss."
LayerCount: 2
Fore
SplineSet
492 37 m 256
 729 37 820 144 820 248 c 256
 820 314 784 372 724 407 c 257
 786 442 827 500 828 571 c 256
 828 905 232 704 232 947 c 256
 232 1036 347 1074 466 1074 c 256
 558 1074 654 1043 701 983 c 257
 701 896 l 257
 771 896 l 257
 771 1124 l 257
 701 1124 l 257
 701 1064 l 257
 639 1120 543 1141 447 1141 c 256
 297 1141 150 1082 150 944 c 256
 150 860 190 815 255 782 c 257
 192 749 150 690 150 612 c 256
 150 306 743 490 743 248 c 256
 743 176 660 104 497 104 c 256
 380 104 251 143 214 220 c 257
 214 283 l 257
 146 283 l 257
 146 52 l 257
 214 52 l 257
 214 125 l 257
 272 66 381 37 492 37 c 256
668 439 m 257
 484 481 232 463 232 614 c 256
 232 689 270 739 318 758 c 257
 464 714 748 737 748 569 c 256
 748 510 719 461 668 439 c 257
EndSplineSet
EndChar

StartChar: semicolon
Encoding: 59 59 358
Width: 328
VWidth: 0
Flags: W
PickledData: "(dp1
S'com.typemytype.robofont.layerData'
p2
(dp3
S'b'
(dp4
S'name'
p5
S'semicolon'
p6
sS'lib'
p7
(dp8
sS'unicodes'
p9
(tsS'width'
p10
I328
sS'contours'
p11
(tsS'components'
p12
(tsS'anchors'
p13
(tsss."
LayerCount: 2
Fore
SplineSet
84 19 m 257
 185 19 220 95 220 193 c 258
 220 316 l 257
 94 316 l 257
 94 196 l 257
 155 196 l 257
 155 112 150 85 84 64 c 257
 84 19 l 257
98 695 m 257
 215 695 l 257
 215 815 l 257
 98 815 l 257
 98 695 l 257
EndSplineSet
EndChar

StartChar: seven
Encoding: 55 55 359
Width: 1108
VWidth: 0
Flags: W
PickledData: "(dp1
S'com.typemytype.robofont.layerData'
p2
(dp3
S'b'
(dp4
S'name'
p5
S'seven'
p6
sS'lib'
p7
(dp8
sS'unicodes'
p9
(tsS'width'
p10
I1108
sS'contours'
p11
(tsS'components'
p12
(tsS'anchors'
p13
(tsss."
LayerCount: 2
Fore
SplineSet
486 0 m 257
 563 0 l 257
 563 0 764 650 955 1082 c 257
 955 1153 l 257
 215 1153 l 257
 215 855 l 257
 287 855 l 257
 287 1087 l 257
 873 1087 l 257
 650 533 486 0 486 0 c 257
EndSplineSet
EndChar

StartChar: six
Encoding: 54 54 360
Width: 1108
VWidth: 0
Flags: W
PickledData: "(dp1
S'com.typemytype.robofont.layerData'
p2
(dp3
S'b'
(dp4
S'name'
p5
S'six'
p6
sS'lib'
p7
(dp8
sS'unicodes'
p9
(tsS'width'
p10
I1108
sS'contours'
p11
(tsS'components'
p12
(tsS'anchors'
p13
(tsss."
LayerCount: 2
Fore
SplineSet
553 -23 m 256
 796 -23 925 156 925 345 c 256
 925 531 761 677 567 677 c 256
 508 677 446 662 385 632 c 257
 713 1187 l 257
 647 1227 l 257
 317 650 l 257
 317 650 190 451 190 317 c 256
 190 118 371 -23 553 -23 c 256
553 44 m 256
 357 44 262 180 262 320 c 256
 262 516 410 614 558 614 c 256
 704 614 849 518 849 329 c 256
 849 187 751 44 553 44 c 256
EndSplineSet
EndChar

StartChar: slash
Encoding: 47 47 361
Width: 437
VWidth: 0
Flags: W
PickledData: "(dp1
S'com.typemytype.robofont.layerData'
p2
(dp3
S'b'
(dp4
S'name'
p5
S'slash'
p6
sS'lib'
p7
(dp8
sS'unicodes'
p9
(tsS'width'
p10
I437
sS'contours'
p11
(tsS'components'
p12
(tsS'anchors'
p13
(tsss."
LayerCount: 2
Fore
SplineSet
11 -23 m 257
 81 -23 l 257
 425 1172 l 257
 359 1172 l 257
 11 -23 l 257
EndSplineSet
EndChar

StartChar: sterling
Encoding: 163 163 364
Width: 1159
VWidth: 0
Flags: W
PickledData: "(dp1
S'com.typemytype.robofont.layerData'
p2
(dp3
S'b'
(dp4
S'name'
p5
S'sterling'
p6
sS'lib'
p7
(dp8
sS'unicodes'
p9
(tsS'width'
p10
I1159
sS'contours'
p11
(tsS'components'
p12
(tsS'anchors'
p13
(tsss."
LayerCount: 2
Fore
SplineSet
291 -47 m 256
 338 -47 496 -32 555 107 c 257
 626 12 717 -29 814 -29 c 256
 997.529 -29 1057.33 162 1044 262 c 257
 994 262 l 257
 994 148 952 44 809 44 c 256
 719 44 633 78 572 156 c 257
 590 212 598 269 598 324 c 256
 598 402 581 480 552 562 c 257
 911 562 l 257
 911 611 l 257
 536 611 l 257
 472 734 407 828 407 954 c 256
 407 1109 502 1189 678 1189 c 256
 849 1189 912 1097 912 968 c 257
 988 968 l 257
 988 1146 878 1255 671 1255 c 256
 453 1255 320 1138 320 937 c 256
 320 828 382 714 436 611 c 257
 213 611 l 257
 213 562 l 257
 461 562 l 257
 496 480 520 392 520 301 c 256
 520 269 516 236 510 204 c 257
 465 265 380 300 296 300 c 256
 188 300 78 245 78 120 c 256
 78 31 142 -47 291 -47 c 256
287 7 m 256
 216 7 148 41 148 120 c 256
 148 209 222 244 300 244 c 256
 372 244 449 211 495 154 c 257
 472 55 375 7 287 7 c 256
EndSplineSet
EndChar

StartChar: summation
Encoding: 8721 8721 365
Width: 1119
VWidth: 0
Flags: W
PickledData: "(dp1
S'com.typemytype.robofont.layerData'
p2
(dp3
S'b'
(dp4
S'name'
p5
S'summation'
p6
sS'lib'
p7
(dp8
sS'unicodes'
p9
(tsS'width'
p10
I1119
sS'contours'
p11
(tsS'components'
p12
(tsS'anchors'
p13
(tsss."
LayerCount: 2
Fore
SplineSet
82 0 m 257
 1000 0 l 257
 1000 352 l 257
 928 352 l 257
 928 58 l 257
 294 58 l 257
 679 578 l 257
 679 623 l 257
 309 1093 l 257
 909 1093 l 257
 909 802 l 257
 980 802 l 257
 980 1152 l 257
 82 1152 l 257
 82 1093 l 257
 233 1093 l 257
 618 591 l 257
 233 58 l 257
 82 58 l 257
 82 0 l 257
EndSplineSet
EndChar

StartChar: t
Encoding: 116 116 366
Width: 576
VWidth: 0
Flags: W
PickledData: "(dp1
S'com.typemytype.robofont.layerData'
p2
(dp3
S'b'
(dp4
S'name'
p5
S't'
sS'lib'
p6
(dp7
sS'unicodes'
p8
(tsS'width'
p9
I576
sS'contours'
p10
(tsS'components'
p11
(tsS'anchors'
p12
(tsss."
AnchorPoint: "bot" 415 0 basechar 0
AnchorPoint: "top" 226 1024 basechar 0
AnchorPoint: "mid" 262 533 basechar 0
LayerCount: 2
Fore
SplineSet
433 0 m 258
 526 0 l 257
 526 58 l 257
 436 58 l 258
 305 58 261 117 261 228 c 258
 261 752 l 257
 491 752 l 257
 491 805 l 257
 261 805 l 257
 261 1096 l 257
 185 1078 l 257
 185 805 l 257
 39 805 l 257
 39 752 l 257
 185 752 l 257
 185 240 l 258
 185 123 229 0 433 0 c 258
EndSplineSet
EndChar

StartChar: thorn
Encoding: 254 254 371
Width: 1053
VWidth: 0
Flags: W
PickledData: "(dp1
S'com.typemytype.robofont.layerData'
p2
(dp3
S'b'
(dp4
S'name'
p5
S'thorn'
p6
sS'lib'
p7
(dp8
sS'unicodes'
p9
(tsS'width'
p10
F1053.0340000000001
sS'contours'
p11
(tsS'components'
p12
(tsS'anchors'
p13
(tsss."
LayerCount: 2
Fore
SplineSet
10 -360 m 257
 251 -360 l 257
 254 1152 l 257
 26 1152 l 257
 26 1092 l 257
 175 1092 l 257
 175 -300 l 257
 10 -300 l 257
 10 -360 l 257
EndSplineSet
Refer: 273 -1 N 1 0 0 1 -44 21 2
EndChar

StartChar: three
Encoding: 51 51 372
Width: 1108
VWidth: 0
Flags: W
PickledData: "(dp1
S'com.typemytype.robofont.layerData'
p2
(dp3
S'b'
(dp4
S'name'
p5
S'three'
p6
sS'lib'
p7
(dp8
sS'unicodes'
p9
(tsS'width'
p10
I1108
sS'contours'
p11
(tsS'components'
p12
(tsS'anchors'
p13
(tsss."
LayerCount: 2
Fore
SplineSet
568 -20 m 256
 799 -20 953 118 953 326 c 256
 953 475 846 588 686 609 c 257
 834 637 932 741 932 868 c 256
 932 1050 783 1172 559 1172 c 256
 387 1172 271 1086 211 947 c 257
 277 918 l 257
 336 1033 426 1105 557 1105 c 256
 735 1105 853 1010 853 867 c 256
 853 737 711 650 499 650 c 257
 499 576 l 257
 724 576 874 475 874 324 c 256
 874 157 755 46 576 46 c 256
 434 46 336 120 276 239 c 257
 217 201 l 257
 282 66 399 -20 568 -20 c 256
EndSplineSet
EndChar

StartChar: threequarters
Encoding: 190 190 373
Width: 1572
VWidth: 0
Flags: W
PickledData: "(dp1
S'com.typemytype.robofont.layerData'
p2
(dp3
S'b'
(dp4
S'name'
p5
S'threequarters'
p6
sS'lib'
p7
(dp8
sS'unicodes'
p9
(tsS'width'
p10
I1572
sS'contours'
p11
(tsS'components'
p12
(tsS'anchors'
p13
(tsss."
LayerCount: 2
Fore
SplineSet
328 348 m 256
 497 348 603 438 603 581 c 256
 603 697 532 774 413 785 c 257
 524 794 589 871 589 960 c 256
 589 1099 492 1174 338 1174 c 256
 225 1174 127 1121 84 1036 c 257
 145 1009 l 257
 178 1071 252 1110 336 1110 c 256
 447 1110 516 1059 516 959 c 256
 516 875 435 810 306 810 c 258
 246 810 l 257
 246 758 l 257
 308 758 l 258
 446 758 532 689 532 579 c 256
 532 472 454 405 329 405 c 256
 238 405 157 457 118 541 c 257
 68 509 l 257
 113 410 213 348 328 348 c 256
1233 0 m 257
 1523 0 l 257
 1523 57 l 257
 1411 57 l 257
 1411 260 l 257
 1531 260 l 257
 1531 314 l 257
 1411 314 l 257
 1411 804 l 257
 1326 804 l 257
 992 307 l 257
 1001 260 l 257
 1345 260 l 257
 1345 57 l 257
 1233 57 l 257
 1233 0 l 257
461 0 m 257
 530 0 l 257
 1304 1152 l 257
 1238 1152 l 257
 461 0 l 257
1062 314 m 257
 1345 736 l 257
 1345 314 l 257
 1062 314 l 257
EndSplineSet
EndChar

StartChar: threesuperior
Encoding: 179 179 374
Width: 811
VWidth: 0
Flags: W
PickledData: "(dp1
S'com.typemytype.robofont.layerData'
p2
(dp3
S'b'
(dp4
S'name'
p5
S'uni00B3'
p6
sS'lib'
p7
(dp8
sS'unicodes'
p9
(tsS'width'
p10
I811
sS'contours'
p11
(tsS'components'
p12
(tsS'anchors'
p13
(tsss."
LayerCount: 2
Fore
SplineSet
403 443 m 256
 584 443 698 543 698 702 c 256
 698 809 635 892 534 917 c 257
 626 942 683 1012 683 1100 c 256
 683 1244 579 1335 414 1335 c 256
 293 1335 188 1277 141 1184 c 257
 196 1155 l 257
 233 1229 317 1275 415 1275 c 256
 538 1275 615 1207 615 1100 c 256
 615 1002 527 940 386 940 c 258
 316 940 l 257
 316 880 l 257
 396 880 l 258
 535 880 622 811 622 700 c 256
 622 579 538 503 404 503 c 256
 311 503 225 559 181 649 c 257
 124 613 l 257
 175 509 283 443 403 443 c 256
EndSplineSet
EndChar

StartChar: tilde
Encoding: 732 732 375
Width: 474
VWidth: 0
Flags: W
PickledData: "(dp1
S'com.typemytype.robofont.layerData'
p2
(dp3
S'b'
(dp4
S'name'
p5
S'tilde'
p6
sS'lib'
p7
(dp8
sS'unicodes'
p9
(tsS'width'
p10
I474
sS'contours'
p11
(tsS'components'
p12
(tsS'anchors'
p13
(tsss."
AnchorPoint: "top" 237 804 mark 0
LayerCount: 2
Fore
SplineSet
345 946 m 256
 411 946 441 1009 449 1077 c 257
 415 1077 l 257
 407 1054 391 1021 357 1021 c 256
 296 1021 205 1081 125 1081 c 256
 67 1081 30 1028 21 952 c 257
 56 952 l 257
 63 974 67 1006 100 1006 c 256
 165 1006 253 946 345 946 c 256
EndSplineSet
EndChar

StartChar: trademark
Encoding: 8482 8482 376
Width: 1697
VWidth: 0
Flags: W
PickledData: "(dp1
S'com.typemytype.robofont.layerData'
p2
(dp3
S'b'
(dp4
S'name'
p5
S'trademark'
p6
sS'lib'
p7
(dp8
sS'unicodes'
p9
(tsS'width'
p10
I1697
sS'contours'
p11
(tsS'components'
p12
(tsS'anchors'
p13
(tsss."
LayerCount: 2
Fore
SplineSet
814 528 m 257
 1030 528 l 257
 1030 577 l 257
 950 577 l 257
 950 1031 l 257
 1178 567 l 257
 1190 567 l 257
 1410 1030 l 257
 1410 577 l 257
 1331 577 l 257
 1331 528 l 257
 1546 528 l 257
 1546 577 l 257
 1468 577 l 257
 1468 1103 l 257
 1546 1103 l 257
 1546 1152 l 257
 1405 1152 l 257
 1184 676 l 257
 955 1152 l 257
 814 1152 l 257
 814 1103 l 257
 893 1103 l 257
 893 577 l 257
 814 577 l 257
 814 528 l 257
288 528 m 257
 520 528 l 257
 520 576 l 257
 433 576 l 257
 433 1099 l 257
 625 1099 l 257
 625 942 l 257
 682 942 l 257
 682 1152 l 257
 130 1152 l 257
 130 942 l 257
 186 942 l 257
 186 1099 l 257
 374 1099 l 257
 374 576 l 257
 288 576 l 257
 288 528 l 257
EndSplineSet
EndChar

StartChar: two
Encoding: 50 50 377
Width: 1108
VWidth: 0
Flags: W
PickledData: "(dp1
S'com.typemytype.robofont.layerData'
p2
(dp3
S'b'
(dp4
S'name'
p5
S'two'
p6
sS'lib'
p7
(dp8
sS'unicodes'
p9
(tsS'width'
p10
I1108
sS'contours'
p11
(tsS'components'
p12
(tsS'anchors'
p13
(tsss."
LayerCount: 2
Fore
SplineSet
226 0 m 257
 926 0 l 257
 926 297 l 257
 850 297 l 257
 850 73 l 257
 329 73 l 257
 668 437 l 258
 800 578 905 690 905 851 c 256
 905 1055 756 1173 555 1173 c 256
 348 1173 195 1048 195 835 c 256
 195 798 198 763 206 727 c 257
 285 727 l 257
 276 763 270 800 270 837 c 256
 270 1004 389 1106 553 1106 c 256
 716 1106 828 1014 828 851 c 256
 828 713 739 622 615 490 c 258
 226 75 l 257
 226 0 l 257
EndSplineSet
EndChar

StartChar: twosuperior
Encoding: 178 178 378
Width: 898
VWidth: 0
Flags: W
PickledData: "(dp1
S'com.typemytype.robofont.layerData'
p2
(dp3
S'b'
(dp4
S'name'
p5
S'uni00B2'
p6
sS'lib'
p7
(dp8
sS'unicodes'
p9
(tsS'width'
p10
I898
sS'contours'
p11
(tsS'components'
p12
(tsS'anchors'
p13
(tsss."
LayerCount: 2
Fore
SplineSet
173 456 m 257
 714 456 l 257
 714 661 l 257
 650 661 l 257
 650 517 l 257
 263 517 l 257
 535 784 l 258
 638 886 713 973 713 1094 c 256
 713 1246 601 1335 451 1335 c 256
 296 1335 181 1241 181 1082 c 256
 181 1054 183 1028 189 1000 c 257
 259 1000 l 257
 252 1028 247 1055 247 1083 c 256
 247 1199 326 1275 449 1275 c 256
 571 1275 645 1216 645 1094 c 256
 645 991 589 932 492 835 c 258
 173 518 l 257
 173 456 l 257
EndSplineSet
EndChar

StartChar: u
Encoding: 117 117 379
Width: 1015
VWidth: 0
Flags: W
PickledData: "(dp1
S'com.typemytype.robofont.layerData'
p2
(dp3
S'b'
(dp4
S'name'
p5
S'u'
sS'lib'
p6
(dp7
sS'unicodes'
p8
(tsS'width'
p9
I1015
sS'contours'
p10
(tsS'components'
p11
(tsS'anchors'
p12
(tsss."
AnchorPoint: "bot" 507.5 0 basechar 0
AnchorPoint: "top" 483 805 basechar 0
AnchorPoint: "ogonek" 864 0 basechar 0
LayerCount: 2
Fore
SplineSet
434 -13 m 256
 554 -13 629 24 757 100 c 257
 764 0 l 257
 979 0 l 257
 979 56 l 257
 829 56 l 257
 829 805 l 257
 602 805 l 257
 602 747 l 257
 753 747 l 257
 753 167 l 257
 655 106 566 51 441 51 c 256
 285 51 258 131 258 230 c 258
 258 805 l 257
 30 805 l 257
 30 747 l 257
 182 747 l 257
 182 215 l 258
 182 110 240 -13 434 -13 c 256
EndSplineSet
EndChar

StartChar: uc_main_stem
Encoding: 65558 -1 382
Width: 635
VWidth: 0
Flags: W
PickledData: "(dp1
S'com.schriftgestaltung.Glyphs.Export'
p2
I00
sS'com.typemytype.robofont.layerData'
p3
(dp4
S'b'
(dp5
S'name'
p6
S'uc_main_stem'
p7
sS'lib'
p8
(dp9
sS'unicodes'
p10
(tsS'width'
p11
I635
sS'contours'
p12
(tsS'components'
p13
(tsS'anchors'
p14
(tsss."
LayerCount: 2
Fore
SplineSet
129 0 m 257
 506 0 l 257
 506 58 l 257
 356 58 l 257
 356 1093 l 257
 506 1093 l 257
 506 1152 l 257
 129 1152 l 257
 129 1093 l 257
 280 1093 l 257
 280 58 l 257
 129 58 l 257
 129 0 l 257
EndSplineSet
EndChar

StartChar: underscore
Encoding: 95 95 388
Width: 1061
VWidth: 0
Flags: W
PickledData: "(dp1
S'com.typemytype.robofont.layerData'
p2
(dp3
S'b'
(dp4
S'name'
p5
S'underscore'
p6
sS'lib'
p7
(dp8
sS'unicodes'
p9
(tsS'width'
p10
I1061
sS'contours'
p11
(tsS'components'
p12
(tsS'anchors'
p13
(tsss."
LayerCount: 2
Fore
SplineSet
165 -174 m 257
 897 -174 l 257
 897 -112 l 257
 165 -112 l 257
 165 -174 l 257
EndSplineSet
EndChar

StartChar: uni00AD
Encoding: 173 173 394
Width: 859
VWidth: 0
Flags: HW
PickledData: "(dp1
S'com.typemytype.robofont.layerData'
p2
(dp3
S'b'
(dp4
S'name'
p5
S'uni00AD'
p6
sS'lib'
p7
(dp8
sS'unicodes'
p9
(tsS'width'
p10
I395
sS'contours'
p11
(tsS'components'
p12
(tsS'anchors'
p13
(tsss."
AnchorPoint: "mid" 411 441 mark 0
LayerCount: 2
Fore
SplineSet
165 413 m 257
 695 413 l 257
 695 475 l 257
 165 475 l 257
 165 413 l 257
EndSplineSet
EndChar

StartChar: uni00B5
Encoding: 181 181 395
Width: 1015
VWidth: 0
Flags: W
PickledData: "(dp1
S'com.typemytype.robofont.layerData'
p2
(dp3
S'b'
(dp4
S'name'
p5
S'uni00B5'
p6
sS'lib'
p7
(dp8
sS'unicodes'
p9
(tsS'width'
p10
I1015
sS'contours'
p11
(tsS'components'
p12
(tsS'anchors'
p13
(tsss."
LayerCount: 2
Fore
SplineSet
182 -232 m 257
 258 -232 l 257
 257 308 l 257
 182 308 l 257
 182 -232 l 257
EndSplineSet
Refer: 379 117 N 1 0 0 1 0 0 2
EndChar

StartChar: uni02C9
Encoding: 713 713 461
Width: 600
VWidth: 0
Flags: W
LayerCount: 2
Fore
SplineSet
110 949 m 257
 501 949 l 257
 501 1014 l 257
 110 1014 l 257
 110 949 l 257
EndSplineSet
EndChar

StartChar: uni0307
Encoding: 775 775 462
Width: 397
VWidth: 0
Flags: W
PickledData: "(dp1
S'com.typemytype.robofont.layerData'
p2
(dp3
S'b'
(dp4
S'name'
p5
S'uni0307'
p6
sS'lib'
p7
(dp8
sS'unicodes'
p9
(tsS'width'
p10
I397
sS'contours'
p11
(tsS'components'
p12
(tsS'anchors'
p13
(tsss."
AnchorPoint: "top" 198.5 804 mark 0
LayerCount: 2
Fore
SplineSet
198 970 m 256
 242 970 264 1002 264 1031 c 256
 264 1062 242 1092 198 1092 c 256
 155 1092 133 1062 133 1031 c 256
 133 1002 155 970 198 970 c 256
EndSplineSet
EndChar

StartChar: uni0326
Encoding: 806 806 463
Width: 457
VWidth: 0
Flags: W
PickledData: "(dp1
S'com.typemytype.robofont.layerData'
p2
(dp3
S'b'
(dp4
S'name'
p5
S'uni0326'
p6
sS'lib'
p7
(dp8
sS'unicodes'
p9
(tsS'width'
p10
I457
sS'contours'
p11
(tsS'components'
p12
(tsS'anchors'
p13
(tsss."
AnchorPoint: "bot" 228.5 0 mark 0
LayerCount: 2
Fore
SplineSet
182 -427 m 257
 283 -427 317 -351 317 -253 c 258
 317 -131 l 257
 191 -131 l 257
 191 -251 l 257
 253 -251 l 257
 253 -335 248 -361 182 -383 c 257
 182 -427 l 257
EndSplineSet
EndChar

StartChar: uni2113
Encoding: 8467 8467 482
Width: 566
VWidth: 0
Flags: W
LayerCount: 2
Fore
SplineSet
398 -11 m 257
 410 39 l 257
 262 39 205 54 237 258 c 258
 388 1215 l 257
 133 1215 l 257
 130 1162 l 257
 319 1162 l 257
 171 259 l 258
 137 49 183 -13 398 -11 c 257
EndSplineSet
EndChar

StartChar: uni2126
Encoding: 8486 8486 483
Width: 1377
VWidth: 0
Flags: W
LayerCount: 2
Fore
SplineSet
214 0 m 257
 627 0 l 257
 627 48 l 257
 386 198 270 450 270 666 c 256
 270 909 418 1117 703 1117 c 256
 988 1117 1136 909 1136 666 c 256
 1136 450 1020 198 779 48 c 257
 779 0 l 257
 1192 0 l 257
 1192 57 l 257
 876 57 l 257
 1092 198 1207 452 1207 676 c 256
 1207 940 1047 1174 703 1174 c 256
 359 1174 199 940 199 676 c 256
 199 452 314 198 530 57 c 257
 214 57 l 257
 214 0 l 257
EndSplineSet
EndChar

StartChar: uni2206
Encoding: 8710 8710 484
Width: 1268
VWidth: 0
Flags: W
PickledData: "(dp1
S'com.typemytype.robofont.layerData'
p2
(dp3
S'b'
(dp4
S'name'
p5
S'uni2206'
p6
sS'lib'
p7
(dp8
sS'unicodes'
p9
(tsS'width'
p10
I759
sS'contours'
p11
(tsS'components'
p12
(tsS'anchors'
p13
(tsss."
LayerCount: 2
Fore
SplineSet
597 1152 m 257
 190 0 l 257
 1078 0 l 257
 708 1152 l 257
 597 1152 l 257
645 1107 m 257
 953 93 l 257
 294 93 l 257
 639 1107 l 257
 645 1107 l 257
EndSplineSet
EndChar

StartChar: v
Encoding: 118 118 490
Width: 1028
VWidth: 0
Flags: W
PickledData: "(dp1
S'com.typemytype.robofont.layerData'
p2
(dp3
S'b'
(dp4
S'name'
p5
S'v'
sS'lib'
p6
(dp7
sS'unicodes'
p8
(tsS'width'
p9
I1028
sS'contours'
p10
(tsS'components'
p11
(tsS'anchors'
p12
(tsss."
LayerCount: 2
Fore
SplineSet
483 0 m 257
 569 0 l 257
 876 747 l 257
 1016 747 l 257
 1016 805 l 257
 639 805 l 257
 639 747 l 257
 790 747 l 257
 523 68 l 257
 233 747 l 257
 394 747 l 257
 394 805 l 257
 12 805 l 257
 12 747 l 257
 155 747 l 257
 483 0 l 257
EndSplineSet
EndChar

StartChar: w
Encoding: 119 119 491
Width: 1530
VWidth: 0
Flags: W
PickledData: "(dp1
S'com.typemytype.robofont.layerData'
p2
(dp3
S'b'
(dp4
S'name'
p5
S'w'
sS'lib'
p6
(dp7
sS'unicodes'
p8
(tsS'width'
p9
I1530
sS'contours'
p10
(tsS'components'
p11
(tsS'anchors'
p12
(tsss."
AnchorPoint: "bot" 765 0 basechar 0
AnchorPoint: "top" 766 805 basechar 0
LayerCount: 2
Fore
SplineSet
426 0 m 257
 512 0 l 257
 766 684 l 257
 1019 0 l 257
 1105 0 l 257
 1373 747 l 257
 1508 747 l 257
 1508 805 l 257
 1150 805 l 257
 1150 747 l 257
 1287 747 l 257
 1058 62 l 257
 806 747 l 257
 946 747 l 257
 946 805 l 257
 581 805 l 257
 581 747 l 257
 718 747 l 257
 468 62 l 257
 232 747 l 257
 379 747 l 257
 379 805 l 257
 22 805 l 257
 22 747 l 257
 157 747 l 257
 426 0 l 257
EndSplineSet
EndChar

StartChar: x
Encoding: 120 120 496
Width: 1060
VWidth: 0
Flags: W
PickledData: "(dp1
S'com.typemytype.robofont.layerData'
p2
(dp3
S'b'
(dp4
S'name'
p5
S'x'
sS'lib'
p6
(dp7
sS'unicodes'
p8
(tsS'width'
p9
I1060
sS'contours'
p10
(tsS'components'
p11
(tsS'anchors'
p12
(tsss."
LayerCount: 2
Fore
SplineSet
46 0 m 257
 414 0 l 257
 414 58 l 257
 281 58 l 257
 534 363 l 257
 792 58 l 257
 634 58 l 257
 634 0 l 257
 1014 0 l 257
 1014 58 l 257
 869 58 l 257
 571 409 l 257
 850 746 l 257
 1003 746 l 257
 1003 804 l 257
 622 804 l 257
 622 746 l 257
 764 746 l 257
 527 462 l 257
 287 746 l 257
 438 746 l 257
 438 804 l 257
 69 804 l 257
 69 746 l 257
 212 746 l 257
 488 416 l 257
 190 58 l 257
 46 58 l 257
 46 0 l 257
EndSplineSet
EndChar

StartChar: y
Encoding: 121 121 497
Width: 1053
VWidth: 0
Flags: W
PickledData: "(dp1
S'com.typemytype.robofont.layerData'
p2
(dp3
S'b'
(dp4
S'name'
p5
S'y'
sS'lib'
p6
(dp7
sS'unicodes'
p8
(tsS'width'
p9
I1053
sS'contours'
p10
(tsS'components'
p11
(tsS'anchors'
p12
(tsss."
AnchorPoint: "bot" 526.5 0 basechar 0
AnchorPoint: "top" 556 805 basechar 0
LayerCount: 2
Fore
SplineSet
200 -261 m 257
 220 -261 l 258
 382 -261 497 -258 554 -120 c 258
 915 746 l 257
 1045 746 l 257
 1045 804 l 257
 667 804 l 257
 667 746 l 257
 828 746 l 257
 563 87 l 257
 276 746 l 257
 418 746 l 257
 418 804 l 257
 35 804 l 257
 35 746 l 257
 192 746 l 257
 499 58 l 257
 553 58 l 257
 486 -98 l 258
 446 -190 362 -196 251 -196 c 258
 200 -196 l 257
 200 -261 l 257
EndSplineSet
EndChar

StartChar: yen
Encoding: 165 165 501
Width: 1258
VWidth: 0
Flags: W
PickledData: "(dp1
S'com.typemytype.robofont.layerData'
p2
(dp3
S'b'
(dp4
S'name'
p5
S'yen'
p6
sS'lib'
p7
(dp8
sS'unicodes'
p9
(tsS'width'
p10
I1258
sS'contours'
p11
(tsS'components'
p12
(tsS'anchors'
p13
(tsss."
LayerCount: 2
Fore
SplineSet
249 260 m 257
 998 260 l 257
 998 316 l 257
 249 316 l 257
 249 260 l 257
249 410 m 257
 998 410 l 257
 998 466 l 257
 249 466 l 257
 249 410 l 257
EndSplineSet
Refer: 124 89 N 1 0 0 1 0 0 2
EndChar

StartChar: z
Encoding: 122 122 503
Width: 914
VWidth: 0
Flags: W
PickledData: "(dp1
S'com.typemytype.robofont.layerData'
p2
(dp3
S'b'
(dp4
S'name'
p5
S'z'
sS'lib'
p6
(dp7
sS'unicodes'
p8
(tsS'width'
p9
I914
sS'contours'
p10
(tsS'components'
p11
(tsS'anchors'
p12
(tsss."
AnchorPoint: "bot" 457 0 basechar 0
AnchorPoint: "top" 468 805 basechar 0
LayerCount: 2
Fore
SplineSet
132 0 m 257
 782 0 l 257
 782 266 l 257
 716 266 l 257
 716 56 l 257
 219 56 l 257
 765 735 l 257
 765 805 l 257
 153 805 l 257
 153 562 l 257
 219 562 l 257
 219 747 l 257
 685 747 l 257
 132 64 l 257
 132 0 l 257
EndSplineSet
EndChar

StartChar: zero
Encoding: 48 48 507
Width: 1066
VWidth: 0
Flags: W
PickledData: "(dp1
S'com.typemytype.robofont.layerData'
p2
(dp3
S'b'
(dp4
S'name'
p5
S'zero'
p6
sS'lib'
p7
(dp8
sS'unicodes'
p9
(tsS'width'
p10
I1066
sS'contours'
p11
(tsS'components'
p12
(tsS'anchors'
p13
(tsss."
LayerCount: 2
Fore
SplineSet
533 43 m 256
 297 43 193 216 193 574 c 256
 193 904 290 1104 533 1104 c 256
 776 1104 873 904 873 574 c 256
 873 216 769 43 533 43 c 256
533 -23 m 256
 830 -23 952 233 952 574 c 256
 952 909 830 1172 533 1172 c 256
 236 1172 114 909 114 574 c 256
 114 233 236 -23 533 -23 c 256
EndSplineSet
EndChar
